<?xml version="1.0" encoding="UTF-8" standalone="no"?>
<!-- Created with Inkscape (http://www.inkscape.org/) -->

<svg
   width="42.772163mm"
   height="53.81958mm"
   viewBox="0 0 42.772163 53.81958"
   version="1.1"
   id="svg1"
   inkscape:version="1.3.2 (091e20e, 2023-11-25, custom)"
   sodipodi:docname="HIAL--hial-logo--RAO-2025.svg"
   xml:space="preserve"
   xmlns:inkscape="http://www.inkscape.org/namespaces/inkscape"
   xmlns:sodipodi="http://sodipodi.sourceforge.net/DTD/sodipodi-0.dtd"
   xmlns="http://www.w3.org/2000/svg"
   xmlns:svg="http://www.w3.org/2000/svg"
   xmlns:rdf="http://www.w3.org/1999/02/22-rdf-syntax-ns#"
   xmlns:cc="http://creativecommons.org/ns#"
   xmlns:dc="http://purl.org/dc/elements/1.1/"><title
     id="title4">{Making Scholars } Ready-for-Global-Development</title><sodipodi:namedview
     id="namedview1"
     pagecolor="#ffffff"
     bordercolor="#000000"
     borderopacity="0.25"
     inkscape:showpageshadow="2"
     inkscape:pageopacity="0.0"
     inkscape:pagecheckerboard="0"
     inkscape:deskcolor="#d1d1d1"
     inkscape:document-units="mm"
     inkscape:zoom="1.0166671"
     inkscape:cx="2110.327"
     inkscape:cy="315.24577"
     inkscape:window-width="1680"
     inkscape:window-height="987"
     inkscape:window-x="-8"
     inkscape:window-y="-8"
     inkscape:window-maximized="1"
     inkscape:current-layer="layer1"
     showguides="true"><sodipodi:guide
       position="-284.20806,323.53"
       orientation="0,-1"
       id="guide32"
       inkscape:locked="false" /><sodipodi:guide
       position="-285.97771,310.78856"
       orientation="0,-1"
       id="guide33"
       inkscape:locked="false" /><inkscape:page
       x="-7.2095003e-07"
       y="5.6461062e-07"
       width="42.772163"
       height="53.81958"
       id="page1"
       margin="0"
       bleed="0" /></sodipodi:namedview><defs
     id="defs1" /><g
     inkscape:label="Layer 1"
     inkscape:groupmode="layer"
     id="layer1"
     transform="translate(-476.39153,-49.535391)"><g
       id="g266"><g
         id="g265"
         inkscape:export-filename="..\favicon.svg"
         inkscape:export-xdpi="96"
         inkscape:export-ydpi="96"><path
           style="fill:#f2f2f2;fill-opacity:1;stroke-width:22.7416"
           d="m 482.09727,78.553412 -2.33839,1.996323 -3.36734,-0.898349 1.68364,-2.09611 1.96433,-1.596889 0.18721,-2.39552 7.29607,-7.585688 2.24496,-2.295681 h 1.02885 l 2.05793,1.796646 h 1.87067 l 1.77725,-1.996273 2.05787,0.299777 3.83512,3.39366 2.05774,3.493374 1.02904,1.796633 2.99318,3.393589 1.1225,1.696742 0.28082,1.69686 -2.61919,0.100366 -1.68371,-1.397318 c 0,0 -0.93524,-1.197826 -1.30935,-1.097921 -0.37441,0.09971 -1.59021,1.297361 -1.59021,1.297361 l -2.71269,-3.093994 -1.59003,0.998122 1.59003,4.790867 0.28082,1.397384 -9.91502,-7.98495 c 0,0 -0.65479,-1.796633 -1.0289,-1.896485 -0.37442,-0.09971 -2.05776,2.794782 -2.05776,2.794782 l -0.46801,1.796633 -2.24491,2.295615 -1.59016,0.598939 z"
           id="path252"
           sodipodi:nodetypes="cccccccccccccccccccccsccccccsccccc" /><g
           id="g255"
           transform="matrix(5.6711224,0,0,5.6711224,-2453.9457,-1052.5895)"><path
             style="fill:#483e37;fill-opacity:1;stroke-width:4"
             d="m 521.3537,200.71682 c 0,0 0.0515,0.26485 0.0441,0.32371 -0.007,0.0588 -0.0294,0.38255 -0.0294,0.38255 l 0.20597,0.30899 0.36785,0.0221 0.73571,-0.0736 0.29426,-0.22806 c 0,0 -0.13977,-0.51498 -0.13977,-0.55177 0,-0.0368 -0.0368,-0.30899 -0.0368,-0.30899 l 0.27956,-0.0589 0.31636,-0.33842 -0.17655,-0.44877 -0.94171,0.25749 -0.57383,0.0368 -0.89016,0.0368 c 0,0 -0.20601,0.13978 -0.20601,0.18392 0,0.0442 0.0441,0.36049 0.0515,0.38992 0.007,0.0294 0.23543,0.0809 0.23543,0.0809 z"
             id="path253" /><path
             style="fill:#999999;fill-opacity:1;stroke-width:4"
             d="m 522.36893,202.24705 0.0589,0.1545 0.13978,0.1692 0.3384,-0.11035 0.12507,-0.23542 -0.22807,-0.60326 c 0,0 -0.15449,0.0441 -0.2354,0.0662 -0.0809,0.0221 -0.4267,0.0662 -0.4267,0.0662 0,0 -0.19129,0.0147 -0.26484,0.0147 -0.0736,0 -0.35314,0.0147 -0.35314,0.0147 l -0.0441,0.21335 c 0,0 0.0662,0.25013 0.0736,0.30899 0.007,0.0589 0.022,0.21335 0.022,0.21335 l 0.33107,0.16185 0.30163,-0.0662 0.13978,-0.103 z"
             id="path255" /></g><path
           style="fill:#ffff00;fill-opacity:1;stroke-width:16.1269"
           d="m 502.17672,68.063436 c 0,0 6.69603,-16.612863 -7.66229,-17.425503 -17.2161,-0.974395 -9.66619,15.668265 -9.66619,15.668265 0,0 3.74549,-1.317856 3.74549,-1.903581 0,-0.586097 2.78614,-6.150194 2.78614,-6.150194 l 3.65703,1.317854 c 0,0 2.26387,3.075096 2.61209,4.246549 0.34812,1.171516 1.56735,2.196569 1.56735,2.196569 z"
           id="path256"
           sodipodi:nodetypes="cscsccscc" /><path
           style="fill:#000000;stroke-width:0.969728"
           d="m 504.41703,103.07909 c -1.63391,-0.47413 -1.64112,-2.38817 -0.0119,-2.57831 0.84048,-0.0979 0.49616,-3.205054 -0.39276,-3.543068 -0.78603,-0.299159 -0.96437,-0.695111 -1.23777,-2.749372 -0.14439,-1.080908 -0.39706,-2.350375 -0.56346,-2.821146 -0.1658,-0.470468 -0.30161,-1.694539 -0.30161,-2.719342 0,-1.827112 -0.0119,-1.860691 -0.49371,-1.725124 -2.16176,0.605679 -3.03087,0.368915 -3.42034,-0.930714 -0.31812,-1.061428 -2.19705,-1.500692 -3.51141,-0.820932 -0.92644,0.479634 -2.20483,0.460062 -2.38059,-0.03666 -0.0753,-0.211679 -0.28265,-0.554282 -0.46068,-0.762585 -0.54327,-0.632834 0.0489,-1.774555 0.85441,-1.655935 0.52309,0.07702 0.62238,0.0053 0.67842,-0.474135 0.10828,-0.930899 0.96032,-0.883116 1.41947,0.07953 0.43377,0.90931 0.82341,0.971468 2.70613,0.431311 0.66385,-0.190261 2.27628,-0.427631 3.58319,-0.526138 2.70122,-0.204952 2.75134,-0.226964 2.26221,-0.972984 -0.53165,-0.811726 -0.44905,-2.260863 0.1921,-3.383684 0.71084,-1.243459 0.7101,-1.244382 -0.42581,-0.578747 -1.13847,0.66727 -1.35064,0.591593 -2.53843,-0.902636 -1.02799,-1.293325 -1.10006,-1.231721 -0.73299,0.625923 0.69935,3.539865 0.40807,5.311057 -0.57263,3.479184 -0.12239,-0.228811 -0.88086,-0.724061 -1.68511,-1.100427 -2.54633,-1.191588 -5.74623,-3.851211 -7.15279,-5.944999 -0.36096,-0.537757 -0.36892,-0.515125 -0.37993,1.123428 -0.0183,3.089352 -0.90403,7.039728 -1.60324,7.174385 -0.602,0.116193 -0.69047,-0.514518 -0.31324,-2.222879 0.87498,-3.959121 0.71781,-4.791223 -0.54633,-2.892721 -1.89752,2.849172 -3.7324,3.29015 -5.09357,1.223953 -1.27472,-1.93497 -1.18589,-1.901629 -2.50943,-0.941793 -1.5337,1.112112 -0.74792,1.791871 1.01593,0.878896 0.92723,-0.480254 1.117,0.518184 0.33404,1.75828 -0.36034,0.569581 -2.03052,0.512685 -2.72503,-0.09364 -0.19027,-0.166402 -0.50779,-0.302219 -0.70558,-0.302219 -1.29289,0 -0.77018,-1.43728 1.04005,-2.859934 1.36576,-1.073258 1.54121,-1.344339 1.45024,-2.240921 -0.0551,-0.549996 0.31384,-0.986503 2.34137,-2.765965 0.99264,-0.870996 2.05972,-1.918074 2.37154,-2.326872 l 0.56713,-0.743263 -0.76179,-0.997951 c -6.59307,-8.637476 4.72582,-21.412282 14.78258,-16.684195 5.34887,2.514759 7.11805,12.377694 2.86256,15.958433 l -0.64243,0.540817 1.09424,1.77805 c 0.602,0.977996 1.31204,1.893425 1.57824,2.034188 1.16141,0.614489 2.3038,1.741517 2.19337,2.163899 -0.0772,0.29366 0.23371,0.8105 1.01026,1.681878 0.61643,0.691867 1.12097,1.43091 1.12097,1.642589 0,0.211059 0.11501,0.635894 0.25451,0.942888 0.26551,0.581807 -0.20373,1.437702 -0.78792,1.437702 -0.14377,0 -0.24595,0.389713 -0.24472,0.932666 6.7e-4,0.513292 -0.0489,1.179533 -0.10406,1.481397 -0.14132,0.732672 0.37504,0.667151 3.55175,-0.451503 3.24945,-1.144411 3.722,-1.443268 4.16108,-2.63198 0.19883,-0.53715 0.47107,-0.966627 0.60566,-0.954573 0.5965,0.05513 0.68393,0.106433 0.68393,0.416632 0,0.470468 0.38237,0.406832 0.65834,-0.110126 0.57325,-1.071728 1.77884,0.162736 1.66462,1.704444 -0.0802,1.088794 -1.48904,1.997128 -2.59271,1.672382 -0.28142,-0.08256 -2.34456,0.862872 -3.40655,1.5619 -0.0306,0.01833 0.0923,0.521851 0.27224,1.115053 0.64122,2.113584 0.43621,2.440889 -1.62589,2.594696 -1.71625,0.12793 -1.60338,-0.124238 -1.06922,2.386524 0.40745,1.914593 0.41969,2.17962 0.12423,2.520087 -0.36646,0.420298 -0.3579,0.460062 0.5084,2.395454 l 0.6075,1.356525 1.13701,-0.363415 1.13695,-0.363402 0.43988,0.54327 c 0.37686,0.464968 0.41968,0.739966 0.29977,1.912205 -0.2025,1.981526 -0.26674,2.083211 -1.22443,1.972413 -1.16877,-0.135198 -1.3674,-0.313232 -1.20026,-1.074551 l 0.14437,-0.654055 -1.61218,0.04286 c -0.88667,0.01833 -2.12108,-0.01187 -2.74314,-0.06858 l -1.13089,-0.107092 -0.14438,0.961853 c -0.0789,0.529197 -0.077,1.881443 0.005,3.005183 0.20066,2.73089 -0.32243,3.2311 -2.66502,2.55079 z m 1.60448,-7.791188 0.92832,-0.14745 -0.055,-1.01507 c -0.074,-1.483414 0.66574,-1.46549 1.12923,0.0306 0.38299,1.234899 0.34995,1.227303 1.41219,0.325471 l 0.83626,-0.709922 -0.44538,-1.003147 -0.44478,-1.003094 -1.70027,0.29122 c -1.13769,0.194547 -2.04589,0.228811 -2.74473,0.100894 -1.1766,-0.213526 -1.30636,-0.159069 -1.173,0.493706 0.0551,0.254503 0.15724,1.037781 0.23433,1.742309 0.1278,1.175748 0.17864,1.271366 0.61503,1.162651 0.26062,-0.06489 0.89333,-0.184761 1.40387,-0.266135 z m -0.54939,-4.636876 c 0.33833,-0.305279 0.49126,-0.325471 0.8373,-0.110126 0.75293,0.469861 1.45979,0.358509 0.99299,-0.157829 -0.91236,-1.008238 -0.11685,-1.584545 1.07228,-0.777224 1.43313,0.972496 1.5444,-0.01187 0.46129,-4.083504 -0.18903,-0.709593 0.31385,-1.184413 1.05614,-0.998122 1.17096,0.29366 1.95716,-0.259396 1.79663,-1.264627 -0.20678,-1.291914 -0.19088,-1.290199 -3.08451,-0.317518 -2.64153,0.887469 -4.73451,1.132238 -5.25233,0.614489 -0.24594,-0.245944 -1.16912,-0.271635 -2.6176,-0.0728 l -1.0182,0.139484 0.003,0.902939 c 0.005,1.55826 0.97421,1.749813 2.68826,0.531637 1.26476,-0.898956 1.94084,0.597726 1.12447,2.489423 -0.79771,1.848386 -0.62757,3.068909 0.46374,3.324388 0.81674,0.190273 1.06169,0.154176 1.4763,-0.220239 z m -7.20191,-12.91178 c -0.0661,-0.254503 -0.64434,-0.716227 -1.36448,-1.092105 -1.56733,-0.817898 -5.16845,-4.255419 -5.05746,-4.827809 0.15049,-0.781313 0.65363,-0.564068 2.23149,0.966139 1.29552,1.256239 1.72145,1.544215 2.24606,1.519064 0.35606,-0.01833 0.82017,0.04893 1.03141,0.138877 0.2955,0.130304 0.3842,0.06674 0.3842,-0.277755 0,-0.956472 -0.43131,-1.52757 -1.68376,-2.230396 -1.93289,-1.084522 -3.6607,-2.569571 -5.04499,-4.336292 -2.86318,-3.654034 -3.4122,-0.769944 -0.70864,3.722304 2.07574,3.449206 8.55489,8.669722 7.96629,6.418883 z m 9.27214,-0.501053 c -0.20005,-0.221478 -0.36461,-0.598332 -0.36461,-0.83809 0,-1.080486 -1.38252,-1.835737 -2.10976,-1.152549 -0.58549,0.549996 -0.46007,1.073931 0.25695,1.073931 0.75605,0 1.5783,0.432537 1.97638,1.040339 0.1921,0.29366 0.40746,0.476588 0.4772,0.406846 0.0703,-0.0703 -0.0367,-0.308339 -0.23677,-0.530424 z m -22.24787,-0.04286 c 0.30833,-0.24287 1.11364,-1.501628 1.7899,-2.798197 0.67621,-1.296438 1.34392,-2.519771 1.48377,-2.718604 0.20312,-0.288767 0.10762,-0.69738 -0.48086,-2.04619 l -0.73452,-1.684621 -0.54081,0.72931 c -0.29733,0.401332 -1.52673,1.68346 -2.73147,2.849409 -1.20472,1.166014 -2.15453,2.212658 -2.11072,2.325962 0.27959,0.721845 2.31746,3.78379 2.51855,3.78379 0.13459,0 0.49738,-0.198833 0.80567,-0.44049 z m 17.99294,-2.744176 1.20082,-1.539137 -0.86923,-0.984669 c -0.47841,-0.541437 -1.31534,-1.675996 -1.86062,-2.520879 -1.36075,-2.108533 -2.27292,-3.002042 -3.81861,-3.740847 l -1.31846,-0.630144 -0.74559,0.813928 c -1.0308,1.125024 -3.24524,1.132845 -3.90615,0.01833 -0.22086,-0.375035 -0.59282,-0.387274 -0.59282,-0.01833 0,1.595426 5.63921,5.8495 6.31653,4.764978 0.29121,-0.466181 1.14509,-0.272241 1.14509,0.260016 0,0.941107 2.61167,5.359934 3.06732,5.189681 0.0997,-0.03666 0.72124,-0.760092 1.38155,-1.606623 z m -15.78775,-8.50117 c 1.12654,-1.222476 1.81627,-2.640235 2.45033,-5.037346 0.43926,-1.66015 0.78163,-2.057202 2.5946,-3.008655 1.99823,-1.048667 3.67422,0.02447 4.86366,3.111313 0.33648,0.873329 0.82054,1.932213 1.07583,2.353002 0.25573,0.420298 0.56529,0.963878 0.68887,1.206999 2.19057,4.309137 5.56201,-3.599278 3.63268,-8.521548 -2.51493,-6.416177 -11.57486,-6.812127 -16.81874,-0.734818 -2.69164,3.119327 -2.82041,8.568592 -0.26735,11.286703 0.6119,0.651444 0.55611,0.672058 1.77963,-0.65565 z m 7.12532,-0.866842 c 0.4931,-0.4931 0.29244,-0.833991 -0.49188,-0.833991 -0.85718,0 -1.16308,0.307115 -0.77306,0.777702 0.3218,0.38788 0.90729,0.414191 1.26494,0.05513 z m -1.49246,-2.170934 c 0.73708,-0.33526 1.22431,-0.414792 1.92034,-0.310788 1.79884,0.267351 1.25735,-1.262427 -0.81618,-2.305772 l -0.98077,-0.493101 -0.8338,0.939646 c -1.74745,1.969105 -1.37132,3.118104 0.71041,2.170506 z"
           id="path257"
           inkscape:transform-center-x="-201.49314"
           inkscape:transform-center-y="-11.414608" /></g></g></g><metadata
     id="metadata4"><rdf:RDF><cc:Work
         rdf:about=""><dc:title>{Making Scholars } Ready-for-Global-Development</dc:title></cc:Work></rdf:RDF></metadata></svg>
