<?xml version="1.0" encoding="UTF-8" standalone="no"?>
<!-- Created with Inkscape (http://www.inkscape.org/) -->

<svg
   width="43.490108mm"
   height="55.224239mm"
   viewBox="0 0 43.490108 55.224239"
   version="1.1"
   id="svg1"
   inkscape:version="1.3.2 (091e20e, 2023-11-25, custom)"
   sodipodi:docname="HIAL--hial-logo--RAO-2025.svg"
   xml:space="preserve"
   xmlns:inkscape="http://www.inkscape.org/namespaces/inkscape"
   xmlns:sodipodi="http://sodipodi.sourceforge.net/DTD/sodipodi-0.dtd"
   xmlns="http://www.w3.org/2000/svg"
   xmlns:svg="http://www.w3.org/2000/svg"
   xmlns:rdf="http://www.w3.org/1999/02/22-rdf-syntax-ns#"
   xmlns:cc="http://creativecommons.org/ns#"
   xmlns:dc="http://purl.org/dc/elements/1.1/"><title
     id="title4">{Making Scholars } Ready-for-Global-Development</title><sodipodi:namedview
     id="namedview1"
     pagecolor="#ffffff"
     bordercolor="#000000"
     borderopacity="0.25"
     inkscape:showpageshadow="2"
     inkscape:pageopacity="0.0"
     inkscape:pagecheckerboard="0"
     inkscape:deskcolor="#d1d1d1"
     inkscape:document-units="mm"
     inkscape:zoom="1.0166671"
     inkscape:cx="2110.327"
     inkscape:cy="315.24577"
     inkscape:window-width="1680"
     inkscape:window-height="987"
     inkscape:window-x="-8"
     inkscape:window-y="-8"
     inkscape:window-maximized="1"
     inkscape:current-layer="layer1"
     showguides="true"><sodipodi:guide
       position="-350.12313,334.94325"
       orientation="0,-1"
       id="guide32"
       inkscape:locked="false" /><sodipodi:guide
       position="-351.89278,322.20181"
       orientation="0,-1"
       id="guide33"
       inkscape:locked="false" /><inkscape:page
       x="2.9863988e-06"
       y="-6.7421809e-08"
       width="43.490108"
       height="55.224239"
       id="page1"
       margin="0"
       bleed="0" /></sodipodi:namedview><defs
     id="defs1" /><g
     inkscape:label="Layer 1"
     inkscape:groupmode="layer"
     id="layer1"
     transform="translate(-542.3066,-60.948637)"><path
       style="fill:#000000;stroke:none"
       d="m 543.92962,90.14269 c 0.30186,-0.27783 0.59635,-0.55711 0.91519,-0.81566 0.35327,-0.28646 0.80367,-0.76167 1.27998,-0.82106 1.45284,-0.18111 1.59494,2.96436 3.24516,2.89888 2.28733,-0.0908 3.27661,-2.72974 4.74358,-3.97786 -0.1336,1.69279 -0.53597,3.31013 -0.79925,4.97862 -0.0626,0.39695 -0.18239,1.26968 0.39412,1.37584 0.86361,0.15903 1.06079,-1.52315 1.17992,-2.05459 0.51065,-2.27799 0.58306,-4.46487 0.58306,-6.78927 h 0.22631 c 1.43695,3.0199 4.57123,5.14937 7.46819,6.61901 0.55386,0.28097 2.20846,1.80078 2.76845,1.3266 0.38889,-0.32932 0.2248,-0.96274 0.14301,-1.38282 -0.26247,-1.34803 -0.46166,-2.76733 -0.87468,-4.07339 l 2.71903,2.3022 2.03346,-0.71804 c -1.29027,1.81409 -1.45277,3.2262 -0.45262,5.20511 l -4.75248,0.34277 -3.16483,0.65135 -2.03033,-1.30285 -0.68888,1.21396 -1.13154,-0.45262 c -0.20125,0.36148 -0.44155,0.71752 -0.50693,1.13714 -0.51928,3.33253 4.18974,1.18846 5.68759,1.64719 0.92815,0.28426 0.85567,1.26446 1.49772,1.83161 0.89096,0.78702 2.5032,0.11701 3.50552,-0.0898 l 0.6461,6.11034 0.56332,3.37019 1.39017,1.63865 0.56874,2.91198 c -0.92113,0.0701 -2.4069,0.81462 -1.65018,1.98526 0.62591,0.96829 3.16751,1.46299 3.74528,0.22614 0.4874,-1.04338 0.06,-2.48383 -0.0166,-3.56926 -0.065,-0.92134 0.1821,-1.83146 0.41089,-2.7157 l 5.43141,0.22631 c -0.062,0.40068 -0.20392,0.8833 0.0265,1.26076 0.3578,0.586 1.52192,0.73871 1.9706,0.18684 0.71373,-0.87789 0.82876,-3.57112 -0.4376,-4.01698 -0.73715,-0.25954 -1.5899,0.23108 -2.23847,0.53259 l -1.2351,-3.1299 0.25967,-1.6259 -0.83504,-3.84394 c 0.94393,-0.22483 2.29833,-0.0592 3.09638,-0.66495 1.08019,-0.81995 0.16913,-2.64038 -0.15436,-3.63492 l 2.94201,-1.32415 3.39464,-0.93894 c -0.0739,-0.83101 0.1433,-3.4736 -1.52287,-2.91564 -0.33879,0.11345 -0.68188,0.4486 -0.96653,0.65256 l -0.90524,-0.90524 -1.18236,2.17403 -3.57012,1.5805 -3.84726,0.99796 0.22631,-2.94202 c 1.77614,-0.5156 1.18837,-2.41251 0.32323,-3.62094 -0.39526,-0.5521 -0.94426,-0.99245 -1.28434,-1.58416 -0.34473,-0.5998 -0.38059,-1.22113 -0.88603,-1.74237 -1.36858,-1.41137 -3.50835,-2.40594 -3.91431,-4.59429 -0.14807,-0.7982 0.58607,-1.42776 0.98539,-2.03678 0.71276,-1.08706 1.18719,-2.35178 1.45634,-3.62094 1.2488,-5.8887 -2.51558,-12.59647 -8.90096,-12.67243 -6.73117,-0.0801 -14.29963,4.51507 -13.78459,11.9935 0.11711,1.70037 0.60502,3.47542 1.41094,4.9788 0.3858,0.71968 1.34496,1.61021 1.01123,2.4894 -0.69617,1.83402 -3.16907,2.84131 -4.34964,4.33829 -0.67984,0.86204 -0.51811,1.99826 -1.3128,2.79865 -0.75987,0.76531 -2.72469,1.6571 -2.45046,3.01711 0.23935,1.18699 3.10579,1.95032 3.99708,1.24784 0.43104,-0.33973 1.12121,-1.68499 0.24273,-1.92799 -0.74685,-0.20659 -1.80724,0.34787 -2.6429,0.25738 m 16.29425,-27.99752 c 5.03811,-0.57824 9.05258,3.39281 9.26976,8.30865 0.0828,1.8733 -0.17155,3.49649 -0.96635,5.20493 -0.30556,0.65678 -0.69812,1.57124 -1.52392,1.66169 -1.24875,0.13678 -1.98931,-1.22956 -2.52258,-2.11431 -1.15337,-1.91355 -1.84002,-6.13424 -4.70953,-6.32059 -0.57327,-0.0372 -1.09826,0.33072 -1.58416,0.58306 -2.9013,1.50671 -2.43168,4.11748 -3.89562,6.64294 -0.42934,0.74066 -1.80888,2.8946 -2.85261,2.31932 -1.42488,-0.78535 -1.80918,-3.36957 -2.01321,-4.80872 -0.8808,-6.21258 5.06099,-10.81848 10.79822,-11.47697 m 1.58416,12.1559 -2.03678,-0.12905 -2.71571,0.58167 c 0.21706,-1.09989 0.54556,-2.3989 1.60459,-3.00803 1.5365,-0.88375 3.07714,1.26655 3.1479,2.55541 m -1.13154,1.58416 c -0.34429,1.08905 -1.24072,1.24876 -1.81048,0.22631 l 1.81048,-0.22631 m 9.95759,8.82605 v 0.22631 l -2.4894,3.16832 c -2.0803,-1.01433 -2.30593,-3.40453 -3.44213,-5.17612 -0.45643,-0.71167 -0.85214,-0.61456 -1.31036,-0.029 -2.46682,-0.4452 -5.74839,-3.18345 -6.33665,-5.65773 1.10394,0.5617 2.05389,1.39648 3.39377,1.03324 1.02857,-0.27885 1.55242,-1.5626 2.71744,-1.25396 3.5319,0.93567 5.10241,5.27416 7.46733,7.68892 m -7.01558,1.81047 -2.4894,-0.5979 -3.39463,-2.79673 1.35872,2.4894 2.71484,2.38986 2.4894,2.36262 c -3.82,-0.68136 -7.25242,-4.87739 -8.91546,-8.14712 -0.46937,-0.92283 -1.91801,-3.2012 -0.90558,-4.15895 0.96879,-0.91648 2.10422,1.07364 2.58002,1.66955 0.92348,1.1566 1.95252,2.14338 3.16746,2.99388 1.64671,1.15277 3.21151,1.57576 3.39463,3.79539 m -10.63652,-6.78927 c 0.37695,0.97158 1.16131,2.12794 1.23684,3.16833 0.0616,0.8481 -0.6362,1.56493 -1.02048,2.26309 -0.92868,1.68724 -1.4917,4.09734 -3.61099,4.52618 l -2.04429,-3.84394 1.36553,-1.83404 4.07339,-4.27962 m 20.36781,9.27867 -2.71571,-1.35785 c 1.50413,-0.92838 2.51215,-0.46967 2.71571,1.35785 m 0.67892,0.45262 v 0.45262 l -0.45261,-0.45262 h 0.45261 m 3.62095,4.75249 c 0.25281,0.79772 0.79598,2.00927 -0.25984,2.44696 -0.67746,0.28084 -2.00665,-0.16576 -2.27199,0.77323 -0.13494,0.47751 0.1455,1.06404 0.23032,1.53229 0.21685,1.19716 0.46589,2.40295 0.49104,3.62095 l -2.71571,-1.13155 0.45262,1.81047 c -1.13272,-0.12476 -3.29204,0.53163 -4.13189,-0.35954 -1.13773,-1.20726 0.39061,-2.9027 0.45471,-4.16664 0.0321,-0.63275 -0.27953,-1.67159 -1.08841,-1.51833 -0.47521,0.09 -0.89555,0.46699 -1.34441,0.64156 -0.50531,0.19653 -1.0605,0.28818 -1.58451,0.42416 l -0.22631,-2.4894 2.94202,-0.19697 3.16832,0.46536 5.88404,-1.85255 m -2.03678,9.95759 c 0.81575,1.74474 0.75659,2.51704 -0.90524,3.62094 -0.34168,-0.64741 -1.73748,-3.17612 -1.66694,-0.91414 0.009,0.30004 0.0602,0.61481 0.0828,0.91414 l -2.94202,0.45262 -0.45262,-3.62094 z"
       id="path114"
       inkscape:export-filename="..\pa.js.org\icon.svg"
       inkscape:export-xdpi="96"
       inkscape:export-ydpi="96" /></g><metadata
     id="metadata4"><rdf:RDF><cc:Work
         rdf:about=""><dc:title>{Making Scholars } Ready-for-Global-Development</dc:title></cc:Work></rdf:RDF></metadata></svg>
