<?xml version="1.0" encoding="UTF-8" standalone="no"?>
<!-- Created with Inkscape (http://www.inkscape.org/) -->

<svg
   width="67.267654mm"
   height="125.85652mm"
   viewBox="0 0 67.267654 125.85652"
   version="1.1"
   id="svg1"
   xml:space="preserve"
   inkscape:version="1.3.2 (091e20e, 2023-11-25, custom)"
   sodipodi:docname="pajs-compact-lean.svg"
   xmlns:inkscape="http://www.inkscape.org/namespaces/inkscape"
   xmlns:sodipodi="http://sodipodi.sourceforge.net/DTD/sodipodi-0.dtd"
   xmlns="http://www.w3.org/2000/svg"
   xmlns:svg="http://www.w3.org/2000/svg"><sodipodi:namedview
     id="namedview1"
     pagecolor="#ffffff"
     bordercolor="#000000"
     borderopacity="0.25"
     inkscape:showpageshadow="2"
     inkscape:pageopacity="0.0"
     inkscape:pagecheckerboard="0"
     inkscape:deskcolor="#d1d1d1"
     inkscape:document-units="mm"
     inkscape:zoom="7.1012399"
     inkscape:cx="667.7003"
     inkscape:cy="280.5848"
     inkscape:window-width="1680"
     inkscape:window-height="987"
     inkscape:window-x="-8"
     inkscape:window-y="-8"
     inkscape:window-maximized="1"
     inkscape:current-layer="layer1"
     showguides="true"
     showgrid="true"><sodipodi:guide
       position="-144.78076,365.96001"
       orientation="0,-1"
       id="guide49"
       inkscape:locked="false" /><sodipodi:guide
       position="-128.10363,363.672"
       orientation="0,-1"
       id="guide50"
       inkscape:locked="false" /><inkscape:grid
       id="grid85"
       units="mm"
       originx="-503.80731"
       originy="-235.21892"
       spacingx="0.99999998"
       spacingy="1"
       empcolor="#0099e5"
       empopacity="0.30196078"
       color="#0099e5"
       opacity="0.14901961"
       empspacing="5"
       dotted="false"
       gridanglex="30"
       gridanglez="30"
       visible="true" /><sodipodi:guide
       position="-105.62321,384.28284"
       orientation="1,0"
       id="guide86"
       inkscape:locked="false" /><sodipodi:guide
       position="-109.10959,383.90242"
       orientation="0,-1"
       id="guide132"
       inkscape:locked="false" /><sodipodi:guide
       position="-109.33237,383.48465"
       orientation="0,-1"
       id="guide133"
       inkscape:locked="false" /><sodipodi:guide
       position="-102.02232,251.13672"
       orientation="1,0"
       id="guide134"
       inkscape:locked="false" /><sodipodi:guide
       position="-109.22103,383.73955"
       orientation="0,-1"
       id="guide135"
       inkscape:locked="false" /><sodipodi:guide
       position="-109.2596,383.50596"
       orientation="0,-1"
       id="guide136"
       inkscape:locked="false" /><sodipodi:guide
       position="-109.2896,383.61954"
       orientation="0,-1"
       id="guide137"
       inkscape:locked="false" /><sodipodi:guide
       position="-109.39675,383.50596"
       orientation="1,0"
       id="guide138"
       inkscape:locked="false" /><sodipodi:guide
       position="-117.30849,386.21446"
       orientation="0,-1"
       id="guide197"
       inkscape:locked="false" /><sodipodi:guide
       position="-262.89931,361.56578"
       orientation="0,-1"
       id="guide227"
       inkscape:locked="false" /><sodipodi:guide
       position="-265.22066,361.77061"
       orientation="0,-1"
       id="guide228"
       inkscape:locked="false" /><sodipodi:guide
       position="-234.85077,282.96133"
       orientation="0,-1"
       id="guide229"
       inkscape:locked="false" /><sodipodi:guide
       position="-148.96328,283.48663"
       orientation="0,-1"
       id="guide230"
       inkscape:locked="false" /><sodipodi:guide
       position="-145.40364,246.83444"
       orientation="0,-1"
       id="guide248"
       inkscape:locked="false" /></sodipodi:namedview><defs
     id="defs1" /><g
     inkscape:label="Layer 1"
     inkscape:groupmode="layer"
     id="layer1"
     transform="translate(-503.80733,-235.21892)"><text
       xml:space="preserve"
       style="font-size:2.20408px;font-family:'OCR A Std';-inkscape-font-specification:'OCR A Std';letter-spacing:0px;fill:#1a1a1a;stroke:#1a1a1a;stroke-width:8.33037;stroke-linecap:round;stroke-linejoin:round"
       x="529.68213"
       y="327.60077"
       id="text16"><tspan
         sodipodi:role="line"
         id="tspan16"
         style="font-style:normal;font-variant:normal;font-weight:normal;font-stretch:normal;font-family:Cubic;-inkscape-font-specification:Cubic;letter-spacing:0px;fill:#1a1a1a;stroke:#1a1a1a;stroke-width:0.290519;stroke-opacity:1"
         x="529.68213"
         y="327.60077"><tspan
   style="font-style:normal;font-variant:normal;font-weight:normal;font-stretch:normal;font-size:2.57835px;font-family:Dimitri;-inkscape-font-specification:Dimitri;stroke-width:0.290519"
   id="tspan19">p</tspan>ajs</tspan></text><text
       xml:space="preserve"
       style="font-size:2.20408px;font-family:'OCR A Std';-inkscape-font-specification:'OCR A Std';letter-spacing:0px;fill:#1a1a1a;stroke:#1a1a1a;stroke-width:8.33037;stroke-linecap:round;stroke-linejoin:round"
       x="529.66046"
       y="325.44565"
       id="text21"><tspan
         sodipodi:role="line"
         id="tspan21"
         style="font-style:normal;font-variant:normal;font-weight:normal;font-stretch:normal;font-family:Dimitri;-inkscape-font-specification:Dimitri;letter-spacing:0px;fill:#1a1a1a;stroke:#1a1a1a;stroke-width:0.290519;stroke-opacity:1"
         x="529.66046"
         y="325.44565">p<tspan
   style="font-style:normal;font-variant:normal;font-weight:normal;font-stretch:normal;font-size:1.80484px;font-family:Cubic;-inkscape-font-specification:Cubic;stroke-width:0.290519"
   id="tspan23">a</tspan>js</tspan></text><rect
       style="fill:#ffffff;stroke:none;stroke-width:1.5;stroke-linecap:round;stroke-linejoin:round;stroke-opacity:1"
       id="rect21"
       width="1.7853054"
       height="1.5524395"
       x="526.03967"
       y="340.77191" /><rect
       style="fill:#ffffff;stroke:none;stroke-width:1.5;stroke-linecap:round;stroke-linejoin:round;stroke-opacity:1"
       id="rect23"
       width="1.6300615"
       height="1.1643295"
       x="529.22217"
       y="342.94531" /><g
       id="g25"
       inkscape:export-filename="final-jogu-compact-pajs.svg"
       inkscape:export-xdpi="96"
       inkscape:export-ydpi="96"><path
         style="fill:#808080;stroke-width:0.286348"
         d="m 518.00928,347.77687 c -0.0353,-0.031 -1.21377,-2.04135 -2.03246,-3.4682 -0.0685,-0.1196 -0.16112,-0.27761 -0.20542,-0.35129 -0.0651,-0.10783 -0.0802,-0.15554 -0.0793,-0.24602 0.002,-0.0995 0.0217,-0.14934 0.19148,-0.43659 0.95536,-1.63001 0.92252,-1.5699 0.92304,-1.68901 4.4e-4,-0.12083 0.0217,-0.0843 -0.78083,-1.45408 -0.14376,-0.24601 -0.26708,-0.47439 -0.27358,-0.50745 -0.009,-0.0449 0.003,-0.0747 0.0452,-0.11743 l 0.0573,-0.0573 h 2.30633 c 2.48625,0 2.36616,-0.006 2.47392,0.11526 0.0248,0.0279 0.0871,0.123 0.13633,0.20914 0.0493,0.0861 0.16267,0.28257 0.25221,0.43625 0.0896,0.15369 0.27886,0.48097 0.42108,0.72704 0.14221,0.24602 0.27947,0.4714 0.30488,0.50071 0.0248,0.0279 0.0867,0.0719 0.13602,0.0945 0.0827,0.0384 0.16638,0.0412 1.13634,0.0418 l 1.04686,4.3e-4 0.0573,0.0573 c 0.0437,0.0437 0.0545,0.0722 0.0449,0.11991 -0.0124,0.0548 -0.3872,0.71214 -1.82582,3.18953 -0.20016,0.34454 -0.39267,0.67226 -0.42802,0.72828 -0.11588,0.18373 -0.0716,0.17785 -1.34672,0.17785 -1.07654,9e-5 -1.12639,0.003 -1.19536,0.044 -0.0833,0.0508 -0.14594,0.14408 -0.43666,0.64946 -0.74817,1.30111 -0.73119,1.27515 -0.83363,1.27515 -0.0279,0 -0.0713,-0.0186 -0.096,-0.039 z m 2.44343,-4.07617 c 0.0483,-0.0124 0.11186,-0.0387 0.1416,-0.061 0.0682,-0.0518 1.10189,-1.83355 1.10189,-1.89942 0,-0.0279 -0.0186,-0.0728 -0.0428,-0.10194 l -0.0428,-0.0527 -1.059,-0.006 -1.05904,-0.006 -0.10039,0.0508 c -0.097,0.0493 -0.11836,0.0821 -0.63195,0.96673 -0.29249,0.50371 -0.53159,0.93473 -0.53159,0.95781 0,0.0632 0.0418,0.12859 0.0967,0.1509 0.0651,0.0248 2.0152,0.0279 2.12764,0.002 z"
         id="path1" /><path
         style="font-size:8.20078px;font-family:Higher;-inkscape-font-specification:Higher;letter-spacing:0px;stroke-width:23.2463;stroke-linecap:round;stroke-linejoin:round"
         d="m 511.07422,339.54433 h 1.75497 v 6.15059 h -1.75497 v -2.63245 h 0.52485 v 0 0 2.1076 h 0.70527 v -5.10089 h -1.23012 z m 2.165,0 h 1.75497 v 6.15059 h -1.75497 z m 1.23012,5.61754 v -5.09269 h -0.70527 v 5.09269 z m 2.68986,-5.61754 v 0.52485 h -1.23012 v 5.10089 h 0.70527 v -4.39562 h -0.35264 v -0.35264 h 0.87749 v 5.27311 h -1.75497 v -6.15059 z m 2.165,0 v 6.15059 h -1.75497 v -6.15059 h 0.52485 v 5.60933 h 0.70527 v -5.60933 z m 0.61506,6.85585 h 1.13171 v -5.97016 h -1.13171 v -0.59046 h 1.83697 v 7.15108 h -1.83697 z"
         id="text17"
         aria-label="Jogu]" /><path
         style="fill:#cccccc;stroke:none;stroke-width:2;stroke-linecap:round;stroke-linejoin:round"
         d="m 507.72085,347.44739 -2.87201,-1.78531 -0.31049,-5.82165 2.63915,-1.70768 3.41537,1.55244 v 5.6664 z"
         id="path16" /><g
         id="g15"
         transform="matrix(0.22732704,0,0,0.22732704,487.65559,282.75449)"><path
           d="m 72.638196,255.68542 h -1.5875 v 7.40834 h 1.5875 v 10.31875 l 0.13229,4.23333 1.7198,1.14652 3.70416,2.11667 6.35,3.66008 2.64584,1.4993 3.43958,-1.76388 8.20208,-4.7625 3.042714,-1.94029 0.13229,-4.18923 v -10.31875 h 1.5875 v -7.40834 h -1.5875 v -3.96875 l -0.13229,-1.5875 -3.571874,-2.20486 -7.67292,-4.45381 -3.175,-1.7639 -3.43958,1.7639 -8.20209,4.7625 -3.04271,1.89617 -0.13229,1.5875 v 3.96875 m 26.45834,9.78959 -3.96875,-2.07257 -1.7198,-1.14653 -0.13229,-3.66007 h 2.91042 v -2.91042 h -5.82083 v 7.40834 h -6.08542 v -7.40834 h -5.82083 v 2.91042 h 2.91041 l -0.13229,3.66007 -1.71979,1.14653 -3.96875,2.07257 v -10.05417 l 0.13229,-3.61597 2.51354,-1.49931 6.35,-3.66006 2.91042,-1.41112 2.64583,1.41112 6.35,3.66006 2.51354,1.49931 0.1323,3.61597 v 10.05417 m -5.82084,0.52916 v 5.82084 h -2.91041 v -2.91042 h -6.08542 v 2.91042 h -2.91042 v -5.82084 h 11.90625"
           style="fill:#030303;stroke:none"
           id="path15" /></g><path
         style="font-size:0.767px;font-family:Dimitri;-inkscape-font-specification:Dimitri;letter-spacing:0px;stroke-width:0.232947;stroke-linecap:round;stroke-linejoin:round"
         d="m 526.12872,336.83415 h -0.10125 v 0.47707 h -0.15186 v -0.47707 h -0.10738 v -0.13116 h 0.36049 z m 0.41418,0.40727 h -0.36049 v -0.53843 h 0.36049 v 0.13116 h -0.20862 v 0.0859 h 0.0805 v 0.0936 h -0.0805 v 0.0966 h 0.20862 z m 0.41495,-0.53843 v 0.2953 h -0.15264 v -0.16414 h -0.0567 v 0.29069 h 0.0567 v -0.0897 h 0.15187 l 7.7e-4,0.0928 -0.11505,0.11351 h -0.24621 v -0.36125 l 0.11505,-0.17718 z m 0.0529,0.60823 h 0.15187 v -0.29759 h 0.0567 v 0.22779 h 0.15187 v -0.53843 h -0.15187 v 0.21706 h -0.0567 v -0.21706 h -0.15187 z m 0.77544,-0.0698 h -0.15263 v -0.40727 h -0.0568 v 0.40727 h -0.15187 v -0.42491 l 0.11505,-0.11352 h 0.24621 z m 0.41418,-0.11351 -0.11505,0.11351 h -0.24621 v -0.42261 l 0.11505,-0.11582 h 0.24621 z m -0.15187,-0.0176 v -0.27612 h -0.0568 v 0.27612 z m 0.52923,0.13115 h -0.32444 v -0.53843 h 0.15187 v 0.40728 h 0.17257 z m 0.41495,-0.11351 -0.11505,0.11351 h -0.24621 v -0.42261 l 0.11505,-0.11582 h 0.24621 z m -0.15186,-0.0176 v -0.27612 h -0.0568 v 0.27612 z m 0.56604,-0.23317 -7.7e-4,0.43412 h -0.15186 v -0.0698 h -0.0936 l -0.11505,-0.17717 v -0.36126 h 0.36049 v 0.11658 h -0.20862 v 0.2907 h 0.0568 v -0.23317 z m 0.20479,0.36432 h -0.15186 v -0.53843 h 0.15186 z m 0.41418,0 h -0.36049 v -0.53843 h 0.36049 v 0.13116 h -0.20862 v 0.0859 h 0.0805 v 0.0936 h -0.0805 v 0.0966 h 0.20862 z m 0.41495,-0.40727 h -0.21323 v 0.0859 h 0.21246 v 0.2347 l -0.0775,0.0867 h -0.28302 v -0.12118 h 0.22857 v -0.10661 h -0.22857 v -0.13346 l 0.11505,-0.17718 h 0.24621 z m 0.99173,0.48397 h -0.15186 v -0.69183 h 0.15186 z m 0.20556,0 h -0.15187 v -0.69183 h 0.15187 z m 1.20189,-0.52232 -7.7e-4,0.17948 -0.0836,7.6e-4 0.0836,0.0836 v 0.25157 h -0.15186 v -0.2324 l -0.0568,-0.0575 v 0.22012 h -0.15187 v -0.53843 h 0.24621 z m -0.15263,0.12425 v -0.0859 h -0.0568 v 0.0859 z m 0.56604,-0.0859 h -0.20862 v 0.0859 h 0.0805 v 0.0936 h -0.0805 v 0.22779 h -0.15187 v -0.53843 h 0.36049 z m 0.0537,0.29069 h 0.15187 v 0.11658 h -0.15187 z m 0.56682,-0.24774 -7.7e-4,0.43412 h -0.15187 v -0.0698 h -0.0936 l -0.11505,-0.17717 v -0.36126 h 0.36049 v 0.11658 h -0.20862 v 0.2907 h 0.0568 v -0.23317 z m 0.41418,0.25081 -0.11505,0.11351 h -0.24621 v -0.53843 h 0.24621 l 0.11505,0.17718 z m -0.15187,-0.0176 v -0.27612 h -0.0568 v 0.27612 z"
         id="text24"
         transform="scale(0.97204391,1.0287601)"
         aria-label="TEChNOLOGIES   ||   Rf.GD" /><path
         style="font-size:0.353008px;font-family:'OCR A Std';-inkscape-font-specification:'OCR A Std';letter-spacing:0px;stroke-width:0.107213;stroke-linecap:round;stroke-linejoin:round"
         d="m 519.87329,339.69434 v -0.20403 h 0.0643 c 0.0113,0 0.0212,-0.005 0.0212,-0.0177 0,-0.0131 -0.0106,-0.0177 -0.0219,-0.0177 h -0.12885 c -0.0201,0 -0.0236,0.006 -0.0236,0.0251 v 0.22592 c 0,0.0201 0.006,0.0237 0.0251,0.0237 h 0.12814 c 0.0113,0 0.0212,-0.005 0.0212,-0.0177 0,-0.0131 -0.0106,-0.0177 -0.0219,-0.0177 z m -0.0536,0 v -0.20403 h 0.0183 v 0.20403 z m 0.2231,-0.0434 c 0,0.0208 0.004,0.0311 0.0201,0.0445 l 0.0251,0.0208 c 0.0159,0.0131 0.024,0.0134 0.0438,0.0134 h 0.0536 c 0.0113,0 0.0233,-0.002 0.0233,-0.0169 0,-0.0148 -0.0134,-0.0169 -0.0233,-0.0169 h -0.0597 c -0.007,0 -0.0134,-0.004 -0.0194,-0.008 l -0.0205,-0.0173 c -0.005,-0.004 -0.009,-0.008 -0.009,-0.0145 v -0.042 c 0,-0.007 0.004,-0.0102 0.009,-0.0145 l 0.0205,-0.0173 c 0.006,-0.005 0.0127,-0.008 0.0194,-0.008 h 0.0597 c 0.01,0 0.0233,-0.002 0.0233,-0.0169 0,-0.0145 -0.012,-0.017 -0.0233,-0.017 h -0.0536 c -0.0198,0 -0.0279,3.6e-4 -0.0438,0.0134 l -0.0251,0.0208 c -0.0162,0.0134 -0.0201,0.0236 -0.0201,0.0445 z m 0.27181,0.0434 c -0.0113,0 -0.0219,0.005 -0.0219,0.0177 0,0.0127 0.01,0.0177 0.0212,0.0177 h 0.12814 c 0.0194,0 0.0251,-0.004 0.0251,-0.0237 v -0.22592 c 0,-0.0191 -0.004,-0.0251 -0.0236,-0.0251 h -0.12885 c -0.0113,0 -0.0219,0.005 -0.0219,0.0177 0,0.0127 0.01,0.0177 0.0212,0.0177 h 0.0642 v 0.20403 z m 0.0988,0 v -0.20403 h 0.0183 v 0.20403 z m 0.4229,-0.0844 h 0.0995 c 0.0117,0 0.0198,-0.002 0.0286,-0.01 0.01,-0.009 0.0109,-0.0187 0.0109,-0.0314 v -0.0724 c 0,-0.0127 -10e-4,-0.0222 -0.0109,-0.0314 -0.009,-0.008 -0.0169,-0.01 -0.0286,-0.01 h -0.1172 c -0.009,0 -0.0177,0.005 -0.0177,0.0177 0,0.0127 0.008,0.0177 0.0177,0.0177 h 0.12143 v 0.0844 h -0.0992 c -0.0265,0 -0.0399,0.0134 -0.0399,0.0399 v 0.11508 h 0.15673 c 0.009,0 0.0177,-0.005 0.0177,-0.0177 0,-0.0127 -0.008,-0.0177 -0.0177,-0.0177 h -0.12143 z m 0.25416,-0.15498 c -0.0194,0 -0.0353,0.0159 -0.0353,0.0353 v 0.20403 c 0,0.0198 0.0152,0.0353 0.0353,0.0353 h 0.10379 c 0.0201,0 0.0353,-0.0155 0.0353,-0.0353 v -0.20403 c 0,-0.0194 -0.0159,-0.0353 -0.0353,-0.0353 z m 0,0.23934 v -0.20403 h 0.10379 v 0.20403 z m 0.25417,-0.23934 c -0.0194,0 -0.0353,0.0159 -0.0353,0.0353 v 0.20403 c 0,0.0198 0.0152,0.0353 0.0353,0.0353 h 0.10378 c 0.0201,0 0.0353,-0.0155 0.0353,-0.0353 v -0.20403 c 0,-0.0194 -0.0159,-0.0353 -0.0353,-0.0353 z m 0,0.23934 v -0.20403 h 0.10378 v 0.20403 z m 0.25417,-0.0844 h 0.0995 c 0.0116,0 0.0198,-0.002 0.0286,-0.01 0.01,-0.009 0.0109,-0.0187 0.0109,-0.0314 v -0.0724 c 0,-0.0127 -10e-4,-0.0222 -0.0109,-0.0314 -0.009,-0.008 -0.017,-0.01 -0.0286,-0.01 h -0.1172 c -0.009,0 -0.0177,0.005 -0.0177,0.0177 0,0.0127 0.008,0.0177 0.0177,0.0177 h 0.12144 v 0.0844 h -0.0992 c -0.0265,0 -0.0399,0.0134 -0.0399,0.0399 v 0.11508 h 0.15674 c 0.009,0 0.0177,-0.005 0.0177,-0.0177 0,-0.0127 -0.008,-0.0177 -0.0177,-0.0177 h -0.12143 z"
         id="text25"
         aria-label="[c] 2002" /></g><g
       id="g41"
       transform="translate(0.14833692,-13.199036)"><path
         style="fill:#808080;stroke-width:0.286348"
         d="m 518.00928,347.77687 c -0.0353,-0.031 -1.21377,-2.04135 -2.03246,-3.4682 -0.0685,-0.1196 -0.16112,-0.27761 -0.20542,-0.35129 -0.0651,-0.10783 -0.0802,-0.15554 -0.0793,-0.24602 0.002,-0.0995 0.0217,-0.14934 0.19148,-0.43659 0.95536,-1.63001 0.92252,-1.5699 0.92304,-1.68901 4.4e-4,-0.12083 0.0217,-0.0843 -0.78083,-1.45408 -0.14376,-0.24601 -0.26708,-0.47439 -0.27358,-0.50745 -0.009,-0.0449 0.003,-0.0747 0.0452,-0.11743 l 0.0573,-0.0573 h 2.30633 c 2.48625,0 2.36616,-0.006 2.47392,0.11526 0.0248,0.0279 0.0871,0.123 0.13633,0.20914 0.0493,0.0861 0.16267,0.28257 0.25221,0.43625 0.0896,0.15369 0.27886,0.48097 0.42108,0.72704 0.14221,0.24602 0.27947,0.4714 0.30488,0.50071 0.0248,0.0279 0.0867,0.0719 0.13602,0.0945 0.0827,0.0384 0.16638,0.0412 1.13634,0.0418 l 1.04686,4.3e-4 0.0573,0.0573 c 0.0437,0.0437 0.0545,0.0722 0.0449,0.11991 -0.0124,0.0548 -0.3872,0.71214 -1.82582,3.18953 -0.20016,0.34454 -0.39267,0.67226 -0.42802,0.72828 -0.11588,0.18373 -0.0716,0.17785 -1.34672,0.17785 -1.07654,9e-5 -1.12639,0.003 -1.19536,0.044 -0.0833,0.0508 -0.14594,0.14408 -0.43666,0.64946 -0.74817,1.30111 -0.73119,1.27515 -0.83363,1.27515 -0.0279,0 -0.0713,-0.0186 -0.096,-0.039 z m 2.44343,-4.07617 c 0.0483,-0.0124 0.11186,-0.0387 0.1416,-0.061 0.0682,-0.0518 1.10189,-1.83355 1.10189,-1.89942 0,-0.0279 -0.0186,-0.0728 -0.0428,-0.10194 l -0.0428,-0.0527 -1.059,-0.006 -1.05904,-0.006 -0.10039,0.0508 c -0.097,0.0493 -0.11836,0.0821 -0.63195,0.96673 -0.29249,0.50371 -0.53159,0.93473 -0.53159,0.95781 0,0.0632 0.0418,0.12859 0.0967,0.1509 0.0651,0.0248 2.0152,0.0279 2.12764,0.002 z"
         id="path25" /><g
         id="text26"
         style="font-size:8.20078px;font-family:Cubic;-inkscape-font-specification:Cubic;letter-spacing:0px;stroke:#000000;stroke-width:23.2463;stroke-linecap:round;stroke-linejoin:round"
         aria-label="pajs]"><path
           style="font-family:Higher;-inkscape-font-specification:Higher;stroke-width:0.25"
           d="m 511.07422,339.54433 h 1.75497 v 1.58275 h -1.23012 v 4.56784 h -0.52485 z m 1.23012,1.0497 v -0.52485 h -0.70527 v 0.52485 z m 1.81237,-1.0497 h 0.87748 v 6.15059 h -0.52485 v -0.52485 h -0.70527 v 0.52485 h -0.52485 v -6.15059 z m 0.35263,5.2731 v -4.74825 h -0.70527 v 4.74825 z m 0.93489,-5.2731 h 1.75497 v 6.15059 h -1.75497 v -2.63245 h 0.52485 v 0 0 2.1076 h 0.70527 v -5.10089 h -1.23012 z m 2.68985,0.52485 v 0.35263 h 1.23012 v 5.27311 h -1.75497 v -0.53305 h 1.23012 v -4.38742 h -1.23012 v -1.23012 h 1.75497 v 0.52485 z"
           id="path41" /><path
           style="font-family:Higher;-inkscape-font-specification:Higher;stroke:none;stroke-width:0.25"
           d="m 519.93926,346.40018 h 1.13171 v -5.97016 h -1.13171 v -0.59046 h 1.83697 v 7.15108 h -1.83697 z"
           id="path42" /></g><path
         style="fill:#cccccc;stroke:none;stroke-width:2;stroke-linecap:round;stroke-linejoin:round"
         d="m 507.72085,347.44739 -2.87201,-1.78531 -0.31049,-5.82165 2.63915,-1.70768 3.41537,1.55244 v 5.6664 z"
         id="path26" /><g
         id="g27"
         transform="matrix(0.22732704,0,0,0.22732704,487.65559,282.75449)"><path
           d="m 72.638196,255.68542 h -1.5875 v 7.40834 h 1.5875 v 10.31875 l 0.13229,4.23333 1.7198,1.14652 3.70416,2.11667 6.35,3.66008 2.64584,1.4993 3.43958,-1.76388 8.20208,-4.7625 3.042714,-1.94029 0.13229,-4.18923 v -10.31875 h 1.5875 v -7.40834 h -1.5875 v -3.96875 l -0.13229,-1.5875 -3.571874,-2.20486 -7.67292,-4.45381 -3.175,-1.7639 -3.43958,1.7639 -8.20209,4.7625 -3.04271,1.89617 -0.13229,1.5875 v 3.96875 m 26.45834,9.78959 -3.96875,-2.07257 -1.7198,-1.14653 -0.13229,-3.66007 h 2.91042 v -2.91042 h -5.82083 v 7.40834 h -6.08542 v -7.40834 h -5.82083 v 2.91042 h 2.91041 l -0.13229,3.66007 -1.71979,1.14653 -3.96875,2.07257 v -10.05417 l 0.13229,-3.61597 2.51354,-1.49931 6.35,-3.66006 2.91042,-1.41112 2.64583,1.41112 6.35,3.66006 2.51354,1.49931 0.1323,3.61597 v 10.05417 m -5.82084,0.52916 v 5.82084 h -2.91041 v -2.91042 h -6.08542 v 2.91042 h -2.91042 v -5.82084 h 11.90625"
           style="fill:#030303;stroke:none"
           id="path27" /></g><path
         style="font-size:0.767px;font-family:Dimitri;-inkscape-font-specification:Dimitri;letter-spacing:0px;stroke-width:0.232947;stroke-linecap:round;stroke-linejoin:round"
         d="m 526.12872,336.83415 h -0.10125 v 0.47707 h -0.15186 v -0.47707 h -0.10738 v -0.13116 h 0.36049 z m 0.41418,0.40727 h -0.36049 v -0.53843 h 0.36049 v 0.13116 h -0.20862 v 0.0859 h 0.0805 v 0.0936 h -0.0805 v 0.0966 h 0.20862 z m 0.41495,-0.53843 v 0.2953 h -0.15264 v -0.16414 h -0.0567 v 0.29069 h 0.0567 v -0.0897 h 0.15187 l 7.7e-4,0.0928 -0.11505,0.11351 h -0.24621 v -0.36125 l 0.11505,-0.17718 z m 0.0529,0.60823 h 0.15187 v -0.29759 h 0.0567 v 0.22779 h 0.15187 v -0.53843 h -0.15187 v 0.21706 h -0.0567 v -0.21706 h -0.15187 z m 0.77544,-0.0698 h -0.15263 v -0.40727 h -0.0568 v 0.40727 h -0.15187 v -0.42491 l 0.11505,-0.11352 h 0.24621 z m 0.41418,-0.11351 -0.11505,0.11351 h -0.24621 v -0.42261 l 0.11505,-0.11582 h 0.24621 z m -0.15187,-0.0176 v -0.27612 h -0.0568 v 0.27612 z m 0.52923,0.13115 h -0.32444 v -0.53843 h 0.15187 v 0.40728 h 0.17257 z m 0.41495,-0.11351 -0.11505,0.11351 h -0.24621 v -0.42261 l 0.11505,-0.11582 h 0.24621 z m -0.15186,-0.0176 v -0.27612 h -0.0568 v 0.27612 z m 0.56604,-0.23317 -7.7e-4,0.43412 h -0.15186 v -0.0698 h -0.0936 l -0.11505,-0.17717 v -0.36126 h 0.36049 v 0.11658 h -0.20862 v 0.2907 h 0.0568 v -0.23317 z m 0.20479,0.36432 h -0.15186 v -0.53843 h 0.15186 z m 0.41418,0 h -0.36049 v -0.53843 h 0.36049 v 0.13116 h -0.20862 v 0.0859 h 0.0805 v 0.0936 h -0.0805 v 0.0966 h 0.20862 z m 0.41495,-0.40727 h -0.21323 v 0.0859 h 0.21246 v 0.2347 l -0.0775,0.0867 h -0.28302 v -0.12118 h 0.22857 v -0.10661 h -0.22857 v -0.13346 l 0.11505,-0.17718 h 0.24621 z m 0.99173,0.48397 h -0.15186 v -0.69183 h 0.15186 z m 0.20556,0 h -0.15187 v -0.69183 h 0.15187 z m 1.20189,-0.52232 -7.7e-4,0.17948 -0.0836,7.6e-4 0.0836,0.0836 v 0.25157 h -0.15186 v -0.2324 l -0.0568,-0.0575 v 0.22012 h -0.15187 v -0.53843 h 0.24621 z m -0.15263,0.12425 v -0.0859 h -0.0568 v 0.0859 z m 0.56604,-0.0859 h -0.20862 v 0.0859 h 0.0805 v 0.0936 h -0.0805 v 0.22779 h -0.15187 v -0.53843 h 0.36049 z m 0.0537,0.29069 h 0.15187 v 0.11658 h -0.15187 z m 0.56682,-0.24774 -7.7e-4,0.43412 h -0.15187 v -0.0698 h -0.0936 l -0.11505,-0.17717 v -0.36126 h 0.36049 v 0.11658 h -0.20862 v 0.2907 h 0.0568 v -0.23317 z m 0.41418,0.25081 -0.11505,0.11351 h -0.24621 v -0.53843 h 0.24621 l 0.11505,0.17718 z m -0.15187,-0.0176 v -0.27612 h -0.0568 v 0.27612 z"
         id="text27"
         transform="scale(0.97204391,1.0287601)"
         aria-label="TEChNOLOGIES   ||   Rf.GD" /><path
         style="font-size:0.353008px;font-family:'OCR A Std';-inkscape-font-specification:'OCR A Std';letter-spacing:0px;stroke-width:0.107213;stroke-linecap:round;stroke-linejoin:round"
         d="m 519.87329,339.69434 v -0.20403 h 0.0643 c 0.0113,0 0.0212,-0.005 0.0212,-0.0177 0,-0.0131 -0.0106,-0.0177 -0.0219,-0.0177 h -0.12885 c -0.0201,0 -0.0236,0.006 -0.0236,0.0251 v 0.22592 c 0,0.0201 0.006,0.0237 0.0251,0.0237 h 0.12814 c 0.0113,0 0.0212,-0.005 0.0212,-0.0177 0,-0.0131 -0.0106,-0.0177 -0.0219,-0.0177 z m -0.0536,0 v -0.20403 h 0.0183 v 0.20403 z m 0.2231,-0.0434 c 0,0.0208 0.004,0.0311 0.0201,0.0445 l 0.0251,0.0208 c 0.0159,0.0131 0.024,0.0134 0.0438,0.0134 h 0.0536 c 0.0113,0 0.0233,-0.002 0.0233,-0.0169 0,-0.0148 -0.0134,-0.0169 -0.0233,-0.0169 h -0.0597 c -0.007,0 -0.0134,-0.004 -0.0194,-0.008 l -0.0205,-0.0173 c -0.005,-0.004 -0.009,-0.008 -0.009,-0.0145 v -0.042 c 0,-0.007 0.004,-0.0102 0.009,-0.0145 l 0.0205,-0.0173 c 0.006,-0.005 0.0127,-0.008 0.0194,-0.008 h 0.0597 c 0.01,0 0.0233,-0.002 0.0233,-0.0169 0,-0.0145 -0.012,-0.017 -0.0233,-0.017 h -0.0536 c -0.0198,0 -0.0279,3.6e-4 -0.0438,0.0134 l -0.0251,0.0208 c -0.0162,0.0134 -0.0201,0.0236 -0.0201,0.0445 z m 0.27181,0.0434 c -0.0113,0 -0.0219,0.005 -0.0219,0.0177 0,0.0127 0.01,0.0177 0.0212,0.0177 h 0.12814 c 0.0194,0 0.0251,-0.004 0.0251,-0.0237 v -0.22592 c 0,-0.0191 -0.004,-0.0251 -0.0236,-0.0251 h -0.12885 c -0.0113,0 -0.0219,0.005 -0.0219,0.0177 0,0.0127 0.01,0.0177 0.0212,0.0177 h 0.0642 v 0.20403 z m 0.0988,0 v -0.20403 h 0.0183 v 0.20403 z m 0.4229,-0.0844 h 0.0995 c 0.0117,0 0.0198,-0.002 0.0286,-0.01 0.01,-0.009 0.0109,-0.0187 0.0109,-0.0314 v -0.0724 c 0,-0.0127 -10e-4,-0.0222 -0.0109,-0.0314 -0.009,-0.008 -0.0169,-0.01 -0.0286,-0.01 h -0.1172 c -0.009,0 -0.0177,0.005 -0.0177,0.0177 0,0.0127 0.008,0.0177 0.0177,0.0177 h 0.12143 v 0.0844 h -0.0992 c -0.0265,0 -0.0399,0.0134 -0.0399,0.0399 v 0.11508 h 0.15673 c 0.009,0 0.0177,-0.005 0.0177,-0.0177 0,-0.0127 -0.008,-0.0177 -0.0177,-0.0177 h -0.12143 z m 0.25416,-0.15498 c -0.0194,0 -0.0353,0.0159 -0.0353,0.0353 v 0.20403 c 0,0.0198 0.0152,0.0353 0.0353,0.0353 h 0.10379 c 0.0201,0 0.0353,-0.0155 0.0353,-0.0353 v -0.20403 c 0,-0.0194 -0.0159,-0.0353 -0.0353,-0.0353 z m 0,0.23934 v -0.20403 h 0.10379 v 0.20403 z m 0.25417,-0.23934 c -0.0194,0 -0.0353,0.0159 -0.0353,0.0353 v 0.20403 c 0,0.0198 0.0152,0.0353 0.0353,0.0353 h 0.10378 c 0.0201,0 0.0353,-0.0155 0.0353,-0.0353 v -0.20403 c 0,-0.0194 -0.0159,-0.0353 -0.0353,-0.0353 z m 0,0.23934 v -0.20403 h 0.10378 v 0.20403 z m 0.25417,-0.0844 h 0.0995 c 0.0116,0 0.0198,-0.002 0.0286,-0.01 0.01,-0.009 0.0109,-0.0187 0.0109,-0.0314 v -0.0724 c 0,-0.0127 -10e-4,-0.0222 -0.0109,-0.0314 -0.009,-0.008 -0.017,-0.01 -0.0286,-0.01 h -0.1172 c -0.009,0 -0.0177,0.005 -0.0177,0.0177 0,0.0127 0.008,0.0177 0.0177,0.0177 h 0.12144 v 0.0844 h -0.0992 c -0.0265,0 -0.0399,0.0134 -0.0399,0.0399 v 0.11508 h 0.15674 c 0.009,0 0.0177,-0.005 0.0177,-0.0177 0,-0.0127 -0.008,-0.0177 -0.0177,-0.0177 h -0.12143 z"
         id="text28"
         aria-label="[c] 2002" /></g><path
       style="fill:#808080;stroke-width:0.286348"
       d="m 542.43543,345.25809 c -0.0353,-0.031 -1.21377,-2.04135 -2.03246,-3.4682 -0.0685,-0.1196 -0.16112,-0.27761 -0.20542,-0.35129 -0.0651,-0.10783 -0.0802,-0.15554 -0.0793,-0.24602 0.002,-0.0995 0.0217,-0.14934 0.19148,-0.43659 0.95536,-1.63001 0.92252,-1.5699 0.92304,-1.68901 4.4e-4,-0.12083 0.0217,-0.0843 -0.78083,-1.45408 -0.14376,-0.24601 -0.26708,-0.47439 -0.27358,-0.50745 -0.009,-0.0449 0.003,-0.0747 0.0452,-0.11743 l 0.0573,-0.0573 h 2.30633 c 2.48625,0 2.36616,-0.006 2.47392,0.11526 0.0248,0.0279 0.0871,0.123 0.13633,0.20914 0.0493,0.0861 0.16267,0.28257 0.25221,0.43625 0.0896,0.15369 0.27886,0.48097 0.42108,0.72704 0.14221,0.24602 0.27947,0.4714 0.30488,0.50071 0.0248,0.0279 0.0867,0.0719 0.13602,0.0945 0.0827,0.0384 0.16638,0.0412 1.13634,0.0418 l 1.04686,4.3e-4 0.0573,0.0573 c 0.0437,0.0437 0.0545,0.0722 0.0449,0.11991 -0.0124,0.0548 -0.3872,0.71214 -1.82582,3.18953 -0.20016,0.34454 -0.39267,0.67226 -0.42802,0.72828 -0.11588,0.18373 -0.0716,0.17785 -1.34672,0.17785 -1.07654,9e-5 -1.12639,0.003 -1.19536,0.044 -0.0833,0.0508 -0.14594,0.14408 -0.43666,0.64946 -0.74817,1.30111 -0.73119,1.27515 -0.83363,1.27515 -0.0279,0 -0.0713,-0.0186 -0.096,-0.039 z m 2.44343,-4.07617 c 0.0483,-0.0124 0.11186,-0.0387 0.1416,-0.061 0.0682,-0.0518 1.10189,-1.83355 1.10189,-1.89942 0,-0.0279 -0.0186,-0.0728 -0.0428,-0.10194 l -0.0428,-0.0527 -1.059,-0.006 -1.05904,-0.006 -0.10039,0.0508 c -0.097,0.0493 -0.11836,0.0821 -0.63195,0.96673 -0.29249,0.50371 -0.53159,0.93473 -0.53159,0.95781 0,0.0632 0.0418,0.12859 0.0967,0.1509 0.0651,0.0248 2.0152,0.0279 2.12764,0.002 z"
       id="path37" /><text
       xml:space="preserve"
       style="font-style:normal;font-variant:normal;font-weight:normal;font-stretch:normal;font-size:8.20078px;font-family:Cubic;-inkscape-font-specification:Cubic;letter-spacing:0px;fill:#000000;stroke:#000000;stroke-width:23.2463;stroke-linecap:round;stroke-linejoin:round;stroke-opacity:1"
       x="535.50037"
       y="343.17615"
       id="text39"><tspan
         sodipodi:role="line"
         id="tspan39"
         style="font-style:normal;font-variant:normal;font-weight:normal;font-stretch:normal;font-family:Higher;-inkscape-font-specification:Higher;fill:#000000;stroke:#000000;stroke-width:0.25;stroke-opacity:1"
         x="535.50037"
         y="343.17615">pajs<tspan
   style="stroke:none"
   id="tspan38">]</tspan></tspan></text><path
       style="fill:#cccccc;stroke:none;stroke-width:2;stroke-linecap:round;stroke-linejoin:round"
       d="m 532.147,344.92861 -2.87201,-1.78531 -0.31049,-5.82165 2.63915,-1.70768 3.41537,1.55244 v 5.6664 z"
       id="path39" /><g
       id="g40"
       transform="matrix(0.22732704,0,0,0.22732704,512.08174,280.23571)"><path
         d="m 72.638196,255.68542 h -1.5875 v 7.40834 h 1.5875 v 10.31875 l 0.13229,4.23333 1.7198,1.14652 3.70416,2.11667 6.35,3.66008 2.64584,1.4993 3.43958,-1.76388 8.20208,-4.7625 3.042714,-1.94029 0.13229,-4.18923 v -10.31875 h 1.5875 v -7.40834 h -1.5875 v -3.96875 l -0.13229,-1.5875 -3.571874,-2.20486 -7.67292,-4.45381 -3.175,-1.7639 -3.43958,1.7639 -8.20209,4.7625 -3.04271,1.89617 -0.13229,1.5875 v 3.96875 m 26.45834,9.78959 -3.96875,-2.07257 -1.7198,-1.14653 -0.13229,-3.66007 h 2.91042 v -2.91042 h -5.82083 v 7.40834 h -6.08542 v -7.40834 h -5.82083 v 2.91042 h 2.91041 l -0.13229,3.66007 -1.71979,1.14653 -3.96875,2.07257 v -10.05417 l 0.13229,-3.61597 2.51354,-1.49931 6.35,-3.66006 2.91042,-1.41112 2.64583,1.41112 6.35,3.66006 2.51354,1.49931 0.1323,3.61597 v 10.05417 m -5.82084,0.52916 v 5.82084 h -2.91041 v -2.91042 h -6.08542 v 2.91042 h -2.91042 v -5.82084 h 11.90625"
         style="fill:#030303;stroke:none"
         id="path40" /></g><text
       xml:space="preserve"
       style="font-style:normal;font-variant:normal;font-weight:normal;font-stretch:normal;font-size:0.767px;font-family:Cubic;-inkscape-font-specification:Cubic;letter-spacing:0px;fill:#ffffff;stroke:none;stroke-width:0.232947;stroke-linecap:round;stroke-linejoin:round;stroke-opacity:1"
       x="550.84314"
       y="334.79306"
       id="text40"
       transform="scale(0.97204391,1.0287601)"><tspan
         sodipodi:role="line"
         id="tspan40"
         style="font-style:normal;font-variant:normal;font-weight:normal;font-stretch:normal;font-family:Dimitri;-inkscape-font-specification:Dimitri;fill:#000000;stroke-width:0.232947"
         x="550.84314"
         y="334.79306">TEChNOLOGIES   ||   Rf.GD</tspan></text><text
       xml:space="preserve"
       style="font-style:normal;font-variant:normal;font-weight:normal;font-stretch:normal;font-size:0.353008px;font-family:Dimitri;-inkscape-font-specification:Dimitri;letter-spacing:0px;fill:#000000;stroke:none;stroke-width:0.107213;stroke-linecap:round;stroke-linejoin:round;stroke-opacity:1"
       x="544.17059"
       y="337.21088"
       id="text41"><tspan
         sodipodi:role="line"
         id="tspan41"
         style="font-style:normal;font-variant:normal;font-weight:normal;font-stretch:normal;font-family:'OCR A Std';-inkscape-font-specification:'OCR A Std';stroke-width:0.107213"
         x="544.17059"
         y="337.21088">[c] 2002</tspan></text><g
       id="g36"
       transform="translate(0.14833692,13.259297)"><path
         style="fill:#808080;stroke-width:0.286348"
         d="m 518.00928,347.77687 c -0.0353,-0.031 -1.21377,-2.04135 -2.03246,-3.4682 -0.0685,-0.1196 -0.16112,-0.27761 -0.20542,-0.35129 -0.0651,-0.10783 -0.0802,-0.15554 -0.0793,-0.24602 0.002,-0.0995 0.0217,-0.14934 0.19148,-0.43659 0.95536,-1.63001 0.92252,-1.5699 0.92304,-1.68901 4.4e-4,-0.12083 0.0217,-0.0843 -0.78083,-1.45408 -0.14376,-0.24601 -0.26708,-0.47439 -0.27358,-0.50745 -0.009,-0.0449 0.003,-0.0747 0.0452,-0.11743 l 0.0573,-0.0573 h 2.30633 c 2.48625,0 2.36616,-0.006 2.47392,0.11526 0.0248,0.0279 0.0871,0.123 0.13633,0.20914 0.0493,0.0861 0.16267,0.28257 0.25221,0.43625 0.0896,0.15369 0.27886,0.48097 0.42108,0.72704 0.14221,0.24602 0.27947,0.4714 0.30488,0.50071 0.0248,0.0279 0.0867,0.0719 0.13602,0.0945 0.0827,0.0384 0.16638,0.0412 1.13634,0.0418 l 1.04686,4.3e-4 0.0573,0.0573 c 0.0437,0.0437 0.0545,0.0722 0.0449,0.11991 -0.0124,0.0548 -0.3872,0.71214 -1.82582,3.18953 -0.20016,0.34454 -0.39267,0.67226 -0.42802,0.72828 -0.11588,0.18373 -0.0716,0.17785 -1.34672,0.17785 -1.07654,9e-5 -1.12639,0.003 -1.19536,0.044 -0.0833,0.0508 -0.14594,0.14408 -0.43666,0.64946 -0.74817,1.30111 -0.73119,1.27515 -0.83363,1.27515 -0.0279,0 -0.0713,-0.0186 -0.096,-0.039 z m 2.44343,-4.07617 c 0.0483,-0.0124 0.11186,-0.0387 0.1416,-0.061 0.0682,-0.0518 1.10189,-1.83355 1.10189,-1.89942 0,-0.0279 -0.0186,-0.0728 -0.0428,-0.10194 l -0.0428,-0.0527 -1.059,-0.006 -1.05904,-0.006 -0.10039,0.0508 c -0.097,0.0493 -0.11836,0.0821 -0.63195,0.96673 -0.29249,0.50371 -0.53159,0.93473 -0.53159,0.95781 0,0.0632 0.0418,0.12859 0.0967,0.1509 0.0651,0.0248 2.0152,0.0279 2.12764,0.002 z"
         id="path33" /><text
         xml:space="preserve"
         style="font-style:normal;font-variant:normal;font-weight:normal;font-stretch:normal;font-size:8.20078px;font-family:Cubic;-inkscape-font-specification:Cubic;letter-spacing:0px;fill:#000000;stroke:#000000;stroke-width:23.2463;stroke-linecap:round;stroke-linejoin:round;stroke-opacity:1"
         x="511.07422"
         y="345.69492"
         id="text33"><tspan
           sodipodi:role="line"
           id="tspan33"
           style="font-style:normal;font-variant:normal;font-weight:normal;font-stretch:normal;font-family:Higher;-inkscape-font-specification:Higher;fill:#000000;stroke:none;stroke-width:23.2463"
           x="511.07422"
           y="345.69492">Jogu]</tspan></text><path
         style="fill:#cccccc;stroke:none;stroke-width:2;stroke-linecap:round;stroke-linejoin:round"
         d="m 507.72085,347.44739 -2.87201,-1.78531 -0.31049,-5.82165 2.63915,-1.70768 3.41537,1.55244 v 5.6664 z"
         id="path34" /><g
         id="g35"
         transform="matrix(0.22732704,0,0,0.22732704,487.65559,282.75449)"><path
           d="m 72.638196,255.68542 h -1.5875 v 7.40834 h 1.5875 v 10.31875 l 0.13229,4.23333 1.7198,1.14652 3.70416,2.11667 6.35,3.66008 2.64584,1.4993 3.43958,-1.76388 8.20208,-4.7625 3.042714,-1.94029 0.13229,-4.18923 v -10.31875 h 1.5875 v -7.40834 h -1.5875 v -3.96875 l -0.13229,-1.5875 -3.571874,-2.20486 -7.67292,-4.45381 -3.175,-1.7639 -3.43958,1.7639 -8.20209,4.7625 -3.04271,1.89617 -0.13229,1.5875 v 3.96875 m 26.45834,9.78959 -3.96875,-2.07257 -1.7198,-1.14653 -0.13229,-3.66007 h 2.91042 v -2.91042 h -5.82083 v 7.40834 h -6.08542 v -7.40834 h -5.82083 v 2.91042 h 2.91041 l -0.13229,3.66007 -1.71979,1.14653 -3.96875,2.07257 v -10.05417 l 0.13229,-3.61597 2.51354,-1.49931 6.35,-3.66006 2.91042,-1.41112 2.64583,1.41112 6.35,3.66006 2.51354,1.49931 0.1323,3.61597 v 10.05417 m -5.82084,0.52916 v 5.82084 h -2.91041 v -2.91042 h -6.08542 v 2.91042 h -2.91042 v -5.82084 h 11.90625"
           style="fill:#030303;stroke:none"
           id="path35" /></g><text
         xml:space="preserve"
         style="font-style:normal;font-variant:normal;font-weight:normal;font-stretch:normal;font-size:0.767px;font-family:Cubic;-inkscape-font-specification:Cubic;letter-spacing:0px;fill:#ffffff;stroke:none;stroke-width:0.232947;stroke-linecap:round;stroke-linejoin:round;stroke-opacity:1"
         x="525.71454"
         y="337.24142"
         id="text35"
         transform="scale(0.97204391,1.0287601)"><tspan
           sodipodi:role="line"
           id="tspan35"
           style="font-style:normal;font-variant:normal;font-weight:normal;font-stretch:normal;font-family:Dimitri;-inkscape-font-specification:Dimitri;fill:#000000;stroke-width:0.232947"
           x="525.71454"
           y="337.24142">TEChNOLOGIES   ||   Rf.GD</tspan></text><text
         xml:space="preserve"
         style="font-style:normal;font-variant:normal;font-weight:normal;font-stretch:normal;font-size:0.353008px;font-family:Dimitri;-inkscape-font-specification:Dimitri;letter-spacing:0px;fill:#000000;stroke:none;stroke-width:0.107213;stroke-linecap:round;stroke-linejoin:round;stroke-opacity:1"
         x="519.74445"
         y="339.72964"
         id="text36"><tspan
           sodipodi:role="line"
           id="tspan36"
           style="font-style:normal;font-variant:normal;font-weight:normal;font-stretch:normal;font-family:'OCR A Std';-inkscape-font-specification:'OCR A Std';stroke-width:0.107213"
           x="519.74445"
           y="339.72964">[c] 2002</tspan></text></g><g
       id="g45"
       transform="matrix(0.03591331,0,0,0.03591331,504.86281,321.6754)"
       style="fill:#000000"><path
         style="fill:#000000;stroke:none;stroke-width:1.78134"
         d="m 304.86742,204.9623 c -0.85485,0.17814 -1.5274,0.67909 -2.28672,1.07986 -0.85954,0.45364 -1.75703,0.8684 -2.37141,1.67268 -0.63045,0.82532 -1.10072,2.4538 0.46581,2.5408 0.98204,0.0545 1.18964,-0.96514 1.82091,-1.39744 1.00867,-0.69077 1.91138,-1.8808 3.13365,-1.90559 1.04861,-0.0213 1.87678,0.94731 2.75253,1.52447 0.73083,0.48166 1.29852,2.01317 2.07498,1.60917 0.77727,-0.40441 0.32534,-1.87512 -0.12704,-2.62548 -0.78745,-1.30612 -2.49167,-1.84589 -3.93824,-2.32908 -0.48495,-0.16198 -1.01257,-0.27603 -1.52448,-0.16939"
         id="path43" /><path
         style="fill:#000000;stroke:none;stroke-width:1.78134"
         d="m 304.23222,201.15113 c -3.60252,0.70047 -6.94442,2.84441 -8.65988,6.18259 -0.44653,0.86892 -0.89794,1.79499 -0.99515,2.79487 -0.29477,3.03194 1.13242,6.22086 3.176,8.38464 0.60635,0.64202 1.26506,1.77856 2.28671,1.77856 1.03686,0 1.27019,-1.18785 0.76224,-1.9056 -0.47129,-0.66596 -1.22898,-1.16982 -1.77855,-1.77855 -0.94318,-1.04475 -1.51529,-2.53693 -1.65152,-3.93825 -0.30032,-3.08898 0.8463,-6.89566 3.68415,-8.51166 1.87043,-1.0651 4.84379,-1.02591 6.86016,-0.46582 4.15427,1.15397 6.83,5.70676 5.67444,9.86676 -0.5123,1.84428 -1.62992,3.06218 -2.87957,4.4464 -0.44812,0.49638 -1.22542,2.17926 0,2.26555 0.82383,0.0581 1.745,-0.85711 2.28672,-1.37627 1.22998,-1.17873 1.97312,-2.42223 2.68901,-3.93823 0.35961,-0.76154 0.78395,-1.54813 0.8681,-2.41377 0.44193,-4.54558 -2.73205,-8.50142 -6.60607,-10.43843 -1.66574,-0.83287 -3.8439,-1.31697 -5.71679,-0.95279"
         id="path44" /><path
         style="fill:#000000;stroke:none;stroke-width:1.78134"
         d="m 304.74038,196.45058 c -2.03796,0.39625 -4.03245,0.4609 -5.97087,1.37626 -3.6335,1.7158 -6.74271,5.23353 -7.58005,9.25272 -0.28377,1.36216 -0.16938,2.80181 -0.16938,4.19232 0,4.76338 1.10308,9.58583 5.33567,12.40757 1.0619,0.70792 2.57754,1.7747 3.93823,1.56681 1.23548,-0.18875 0.26113,-1.57667 -0.25408,-1.99027 -0.67573,-0.5425 -1.44597,-0.87931 -2.15967,-1.35511 -1.89672,-1.26447 -3.86863,-3.53384 -4.40405,-5.80148 -0.41412,-1.7539 -0.34212,-3.68602 -0.16939,-5.46272 0.32511,-3.34393 1.19896,-6.78859 3.8112,-9.14687 2.97644,-2.68707 8.07593,-3.15588 11.8147,-2.11732 7.01754,1.94932 10.67007,10.04621 8.25759,16.72691 -0.73757,2.04251 -2.07646,3.84113 -3.81119,5.16629 -0.80284,0.61328 -1.74559,0.99317 -2.5408,1.60916 -0.38556,0.29868 -1.19291,1.33246 -0.25408,1.48213 1.07909,0.17208 2.13311,-0.41018 3.04896,-0.86811 3.02169,-1.51084 5.57022,-4.53043 6.22495,-7.89763 0.27643,-1.42164 0.6503,-2.98432 0.50816,-4.44639 -0.52606,-5.41097 -3.71579,-9.93682 -8.38463,-12.72516 -1.65871,-0.99062 -3.39615,-1.69586 -5.33567,-1.88443 -0.64212,-0.0624 -1.2506,-0.21205 -1.9056,-0.0846"
         id="path45" /></g><path
       id="path46"
       style="fill:#000000;stroke:none;stroke-width:0.0567235"
       d="m 515.80129,329.22128 c -0.0935,0.0234 -0.0625,0.2027 0.0404,0.17125 0.0932,-0.0285 0.067,-0.19811 -0.0404,-0.17125 m -0.16181,0.085 c -0.03,0.007 -0.0404,0.0411 -0.0276,0.0674 0.0288,0.0592 0.10154,0.0775 0.10855,0.14968 0.006,0.0606 -0.0122,0.11843 -0.0122,0.17799 0,0.0227 -0.009,0.0438 0.005,0.0647 0.0145,0.0209 0.0625,0.0253 0.0755,0 0.008,-0.0159 0.002,-0.0357 0.004,-0.0526 10e-4,-0.0123 0.006,-0.0243 0.008,-0.0364 0.002,-0.0108 0.008,-0.0362 0.0243,-0.0303 0.0107,0.004 0.0155,0.0167 0.0189,0.0263 0.004,0.0125 0.008,0.0272 0.007,0.0405 -10e-4,0.0301 -0.0148,0.0649 0.0303,0.0668 0.007,2.4e-4 0.0173,-10e-4 0.0243,-0.003 0.0348,-0.0111 0.0283,-0.0465 0.0283,-0.0755 0,-0.0701 -0.027,-0.14032 -0.003,-0.21035 0.0141,-0.0406 0.0561,-0.0628 0.0823,-0.0944 0.0177,-0.0214 0.0322,-0.0561 0.009,-0.0796 -0.0175,-0.0181 -0.0523,-0.0165 -0.0674,0.004 -0.0123,0.0167 -0.015,0.0395 -0.027,0.0566 -0.0442,0.0637 -0.13338,0.082 -0.19283,0.0283 -0.0151,-0.0136 -0.0271,-0.0303 -0.0357,-0.0485 -0.0131,-0.0277 -0.0218,-0.0611 -0.0614,-0.0512 z" /><g
       id="g57"><g
         id="g53"
         transform="translate(0.14833692,-29.074037)"><path
           style="fill:#808080;stroke-width:0.286348"
           d="m 518.00928,347.77687 c -0.0353,-0.031 -1.21377,-2.04135 -2.03246,-3.4682 -0.0685,-0.1196 -0.16112,-0.27761 -0.20542,-0.35129 -0.0651,-0.10783 -0.0802,-0.15554 -0.0793,-0.24602 0.002,-0.0995 0.0217,-0.14934 0.19148,-0.43659 0.95536,-1.63001 0.92252,-1.5699 0.92304,-1.68901 4.4e-4,-0.12083 0.0217,-0.0843 -0.78083,-1.45408 -0.14376,-0.24601 -0.26708,-0.47439 -0.27358,-0.50745 -0.009,-0.0449 0.003,-0.0747 0.0452,-0.11743 l 0.0573,-0.0573 h 2.30633 c 2.48625,0 2.36616,-0.006 2.47392,0.11526 0.0248,0.0279 0.0871,0.123 0.13633,0.20914 0.0493,0.0861 0.16267,0.28257 0.25221,0.43625 0.0896,0.15369 0.27886,0.48097 0.42108,0.72704 0.14221,0.24602 0.27947,0.4714 0.30488,0.50071 0.0248,0.0279 0.0867,0.0719 0.13602,0.0945 0.0827,0.0384 0.16638,0.0412 1.13634,0.0418 l 1.04686,4.3e-4 0.0573,0.0573 c 0.0437,0.0437 0.0545,0.0722 0.0449,0.11991 -0.0124,0.0548 -0.3872,0.71214 -1.82582,3.18953 -0.20016,0.34454 -0.39267,0.67226 -0.42802,0.72828 -0.11588,0.18373 -0.0716,0.17785 -1.34672,0.17785 -1.07654,9e-5 -1.12639,0.003 -1.19536,0.044 -0.0833,0.0508 -0.14594,0.14408 -0.43666,0.64946 -0.74817,1.30111 -0.73119,1.27515 -0.83363,1.27515 -0.0279,0 -0.0713,-0.0186 -0.096,-0.039 z m 2.44343,-4.07617 c 0.0483,-0.0124 0.11186,-0.0387 0.1416,-0.061 0.0682,-0.0518 1.10189,-1.83355 1.10189,-1.89942 0,-0.0279 -0.0186,-0.0728 -0.0428,-0.10194 l -0.0428,-0.0527 -1.059,-0.006 -1.05904,-0.006 -0.10039,0.0508 c -0.097,0.0493 -0.11836,0.0821 -0.63195,0.96673 -0.29249,0.50371 -0.53159,0.93473 -0.53159,0.95781 0,0.0632 0.0418,0.12859 0.0967,0.1509 0.0651,0.0248 2.0152,0.0279 2.12764,0.002 z"
           id="path47" /><g
           id="g49"
           style="font-size:8.20078px;font-family:Cubic;-inkscape-font-specification:Cubic;letter-spacing:0px;stroke:#000000;stroke-width:23.2463;stroke-linecap:round;stroke-linejoin:round"
           aria-label="pajs]"><path
             style="font-family:Higher;-inkscape-font-specification:Higher;stroke-width:0.25"
             d="m 511.07422,339.54433 h 1.75497 v 1.58275 h -1.23012 v 4.56784 h -0.52485 z m 1.23012,1.0497 v -0.52485 h -0.70527 v 0.52485 z m 1.81237,-1.0497 h 0.87748 v 6.15059 h -0.52485 v -0.52485 h -0.70527 v 0.52485 h -0.52485 v -6.15059 z m 0.35263,5.2731 v -4.74825 h -0.70527 v 4.74825 z m 0.93489,-5.2731 h 1.75497 v 6.15059 h -1.75497 v -2.63245 h 0.52485 v 0 0 2.1076 h 0.70527 v -5.10089 h -1.23012 z m 2.68985,0.52485 v 0.35263 h 1.23012 v 5.27311 h -1.75497 v -0.53305 h 1.23012 v -4.38742 h -1.23012 v -1.23012 h 1.75497 v 0.52485 z"
             id="path48" /><path
             style="font-family:Higher;-inkscape-font-specification:Higher;stroke:none;stroke-width:0.25"
             d="m 519.93926,346.40018 h 1.13171 v -5.97016 h -1.13171 v -0.59046 h 1.83697 v 7.15108 h -1.83697 z"
             id="path49" /></g><path
           style="fill:#cccccc;stroke:none;stroke-width:2;stroke-linecap:round;stroke-linejoin:round"
           d="m 507.72085,347.44739 -2.87201,-1.78531 -0.31049,-5.82165 2.63915,-1.70768 3.41537,1.55244 v 5.6664 z"
           id="path50" /><g
           id="g51"
           transform="matrix(0.22732704,0,0,0.22732704,487.65559,282.75449)"><path
             d="m 72.638196,255.68542 h -1.5875 v 7.40834 h 1.5875 v 10.31875 l 0.13229,4.23333 1.7198,1.14652 3.70416,2.11667 6.35,3.66008 2.64584,1.4993 3.43958,-1.76388 8.20208,-4.7625 3.042714,-1.94029 0.13229,-4.18923 v -10.31875 h 1.5875 v -7.40834 h -1.5875 v -3.96875 l -0.13229,-1.5875 -3.571874,-2.20486 -7.67292,-4.45381 -3.175,-1.7639 -3.43958,1.7639 -8.20209,4.7625 -3.04271,1.89617 -0.13229,1.5875 v 3.96875 m 26.45834,9.78959 -3.96875,-2.07257 -1.7198,-1.14653 -0.13229,-3.66007 h 2.91042 v -2.91042 h -5.82083 v 7.40834 h -6.08542 v -7.40834 h -5.82083 v 2.91042 h 2.91041 l -0.13229,3.66007 -1.71979,1.14653 -3.96875,2.07257 v -10.05417 l 0.13229,-3.61597 2.51354,-1.49931 6.35,-3.66006 2.91042,-1.41112 2.64583,1.41112 6.35,3.66006 2.51354,1.49931 0.1323,3.61597 v 10.05417 m -5.82084,0.52916 v 5.82084 h -2.91041 v -2.91042 h -6.08542 v 2.91042 h -2.91042 v -5.82084 h 11.90625"
             style="fill:#030303;stroke:none"
             id="path51" /></g><path
           style="font-size:0.767px;font-family:Dimitri;-inkscape-font-specification:Dimitri;letter-spacing:0px;stroke-width:0.232947;stroke-linecap:round;stroke-linejoin:round"
           d="m 526.12872,336.83415 h -0.10125 v 0.47707 h -0.15186 v -0.47707 h -0.10738 v -0.13116 h 0.36049 z m 0.41418,0.40727 h -0.36049 v -0.53843 h 0.36049 v 0.13116 h -0.20862 v 0.0859 h 0.0805 v 0.0936 h -0.0805 v 0.0966 h 0.20862 z m 0.41495,-0.53843 v 0.2953 h -0.15264 v -0.16414 h -0.0567 v 0.29069 h 0.0567 v -0.0897 h 0.15187 l 7.7e-4,0.0928 -0.11505,0.11351 h -0.24621 v -0.36125 l 0.11505,-0.17718 z m 0.0529,0.60823 h 0.15187 v -0.29759 h 0.0567 v 0.22779 h 0.15187 v -0.53843 h -0.15187 v 0.21706 h -0.0567 v -0.21706 h -0.15187 z m 0.77544,-0.0698 h -0.15263 v -0.40727 h -0.0568 v 0.40727 h -0.15187 v -0.42491 l 0.11505,-0.11352 h 0.24621 z m 0.41418,-0.11351 -0.11505,0.11351 h -0.24621 v -0.42261 l 0.11505,-0.11582 h 0.24621 z m -0.15187,-0.0176 v -0.27612 h -0.0568 v 0.27612 z m 0.52923,0.13115 h -0.32444 v -0.53843 h 0.15187 v 0.40728 h 0.17257 z m 0.41495,-0.11351 -0.11505,0.11351 h -0.24621 v -0.42261 l 0.11505,-0.11582 h 0.24621 z m -0.15186,-0.0176 v -0.27612 h -0.0568 v 0.27612 z m 0.56604,-0.23317 -7.7e-4,0.43412 h -0.15186 v -0.0698 h -0.0936 l -0.11505,-0.17717 v -0.36126 h 0.36049 v 0.11658 h -0.20862 v 0.2907 h 0.0568 v -0.23317 z m 0.20479,0.36432 h -0.15186 v -0.53843 h 0.15186 z m 0.41418,0 h -0.36049 v -0.53843 h 0.36049 v 0.13116 h -0.20862 v 0.0859 h 0.0805 v 0.0936 h -0.0805 v 0.0966 h 0.20862 z m 0.41495,-0.40727 h -0.21323 v 0.0859 h 0.21246 v 0.2347 l -0.0775,0.0867 h -0.28302 v -0.12118 h 0.22857 v -0.10661 h -0.22857 v -0.13346 l 0.11505,-0.17718 h 0.24621 z m 0.99173,0.48397 h -0.15186 v -0.69183 h 0.15186 z m 0.20556,0 h -0.15187 v -0.69183 h 0.15187 z m 1.20189,-0.52232 -7.7e-4,0.17948 -0.0836,7.6e-4 0.0836,0.0836 v 0.25157 h -0.15186 v -0.2324 l -0.0568,-0.0575 v 0.22012 h -0.15187 v -0.53843 h 0.24621 z m -0.15263,0.12425 v -0.0859 h -0.0568 v 0.0859 z m 0.56604,-0.0859 h -0.20862 v 0.0859 h 0.0805 v 0.0936 h -0.0805 v 0.22779 h -0.15187 v -0.53843 h 0.36049 z m 0.0537,0.29069 h 0.15187 v 0.11658 h -0.15187 z m 0.56682,-0.24774 -7.7e-4,0.43412 h -0.15187 v -0.0698 h -0.0936 l -0.11505,-0.17717 v -0.36126 h 0.36049 v 0.11658 h -0.20862 v 0.2907 h 0.0568 v -0.23317 z m 0.41418,0.25081 -0.11505,0.11351 h -0.24621 v -0.53843 h 0.24621 l 0.11505,0.17718 z m -0.15187,-0.0176 v -0.27612 h -0.0568 v 0.27612 z"
           id="path52"
           transform="scale(0.97204391,1.0287601)"
           aria-label="TEChNOLOGIES   ||   Rf.GD" /><path
           style="font-size:0.353008px;font-family:'OCR A Std';-inkscape-font-specification:'OCR A Std';letter-spacing:0px;stroke-width:0.107213;stroke-linecap:round;stroke-linejoin:round"
           d="m 519.87329,339.69434 v -0.20403 h 0.0643 c 0.0113,0 0.0212,-0.005 0.0212,-0.0177 0,-0.0131 -0.0106,-0.0177 -0.0219,-0.0177 h -0.12885 c -0.0201,0 -0.0236,0.006 -0.0236,0.0251 v 0.22592 c 0,0.0201 0.006,0.0237 0.0251,0.0237 h 0.12814 c 0.0113,0 0.0212,-0.005 0.0212,-0.0177 0,-0.0131 -0.0106,-0.0177 -0.0219,-0.0177 z m -0.0536,0 v -0.20403 h 0.0183 v 0.20403 z m 0.2231,-0.0434 c 0,0.0208 0.004,0.0311 0.0201,0.0445 l 0.0251,0.0208 c 0.0159,0.0131 0.024,0.0134 0.0438,0.0134 h 0.0536 c 0.0113,0 0.0233,-0.002 0.0233,-0.0169 0,-0.0148 -0.0134,-0.0169 -0.0233,-0.0169 h -0.0597 c -0.007,0 -0.0134,-0.004 -0.0194,-0.008 l -0.0205,-0.0173 c -0.005,-0.004 -0.009,-0.008 -0.009,-0.0145 v -0.042 c 0,-0.007 0.004,-0.0102 0.009,-0.0145 l 0.0205,-0.0173 c 0.006,-0.005 0.0127,-0.008 0.0194,-0.008 h 0.0597 c 0.01,0 0.0233,-0.002 0.0233,-0.0169 0,-0.0145 -0.012,-0.017 -0.0233,-0.017 h -0.0536 c -0.0198,0 -0.0279,3.6e-4 -0.0438,0.0134 l -0.0251,0.0208 c -0.0162,0.0134 -0.0201,0.0236 -0.0201,0.0445 z m 0.27181,0.0434 c -0.0113,0 -0.0219,0.005 -0.0219,0.0177 0,0.0127 0.01,0.0177 0.0212,0.0177 h 0.12814 c 0.0194,0 0.0251,-0.004 0.0251,-0.0237 v -0.22592 c 0,-0.0191 -0.004,-0.0251 -0.0236,-0.0251 h -0.12885 c -0.0113,0 -0.0219,0.005 -0.0219,0.0177 0,0.0127 0.01,0.0177 0.0212,0.0177 h 0.0642 v 0.20403 z m 0.0988,0 v -0.20403 h 0.0183 v 0.20403 z m 0.4229,-0.0844 h 0.0995 c 0.0117,0 0.0198,-0.002 0.0286,-0.01 0.01,-0.009 0.0109,-0.0187 0.0109,-0.0314 v -0.0724 c 0,-0.0127 -10e-4,-0.0222 -0.0109,-0.0314 -0.009,-0.008 -0.0169,-0.01 -0.0286,-0.01 h -0.1172 c -0.009,0 -0.0177,0.005 -0.0177,0.0177 0,0.0127 0.008,0.0177 0.0177,0.0177 h 0.12143 v 0.0844 h -0.0992 c -0.0265,0 -0.0399,0.0134 -0.0399,0.0399 v 0.11508 h 0.15673 c 0.009,0 0.0177,-0.005 0.0177,-0.0177 0,-0.0127 -0.008,-0.0177 -0.0177,-0.0177 h -0.12143 z m 0.25416,-0.15498 c -0.0194,0 -0.0353,0.0159 -0.0353,0.0353 v 0.20403 c 0,0.0198 0.0152,0.0353 0.0353,0.0353 h 0.10379 c 0.0201,0 0.0353,-0.0155 0.0353,-0.0353 v -0.20403 c 0,-0.0194 -0.0159,-0.0353 -0.0353,-0.0353 z m 0,0.23934 v -0.20403 h 0.10379 v 0.20403 z m 0.25417,-0.23934 c -0.0194,0 -0.0353,0.0159 -0.0353,0.0353 v 0.20403 c 0,0.0198 0.0152,0.0353 0.0353,0.0353 h 0.10378 c 0.0201,0 0.0353,-0.0155 0.0353,-0.0353 v -0.20403 c 0,-0.0194 -0.0159,-0.0353 -0.0353,-0.0353 z m 0,0.23934 v -0.20403 h 0.10378 v 0.20403 z m 0.25417,-0.0844 h 0.0995 c 0.0116,0 0.0198,-0.002 0.0286,-0.01 0.01,-0.009 0.0109,-0.0187 0.0109,-0.0314 v -0.0724 c 0,-0.0127 -10e-4,-0.0222 -0.0109,-0.0314 -0.009,-0.008 -0.017,-0.01 -0.0286,-0.01 h -0.1172 c -0.009,0 -0.0177,0.005 -0.0177,0.0177 0,0.0127 0.008,0.0177 0.0177,0.0177 h 0.12144 v 0.0844 h -0.0992 c -0.0265,0 -0.0399,0.0134 -0.0399,0.0399 v 0.11508 h 0.15674 c 0.009,0 0.0177,-0.005 0.0177,-0.0177 0,-0.0127 -0.008,-0.0177 -0.0177,-0.0177 h -0.12143 z"
           id="path53"
           aria-label="[c] 2002" /></g><g
         id="g56"
         transform="matrix(0.03591331,0,0,0.03591331,504.86281,305.80039)"
         style="fill:#000000"><path
           style="fill:#000000;stroke:none;stroke-width:1.78134"
           d="m 304.86742,204.9623 c -0.85485,0.17814 -1.5274,0.67909 -2.28672,1.07986 -0.85954,0.45364 -1.75703,0.8684 -2.37141,1.67268 -0.63045,0.82532 -1.10072,2.4538 0.46581,2.5408 0.98204,0.0545 1.18964,-0.96514 1.82091,-1.39744 1.00867,-0.69077 1.91138,-1.8808 3.13365,-1.90559 1.04861,-0.0213 1.87678,0.94731 2.75253,1.52447 0.73083,0.48166 1.29852,2.01317 2.07498,1.60917 0.77727,-0.40441 0.32534,-1.87512 -0.12704,-2.62548 -0.78745,-1.30612 -2.49167,-1.84589 -3.93824,-2.32908 -0.48495,-0.16198 -1.01257,-0.27603 -1.52448,-0.16939"
           id="path54" /><path
           style="fill:#000000;stroke:none;stroke-width:1.78134"
           d="m 304.23222,201.15113 c -3.60252,0.70047 -6.94442,2.84441 -8.65988,6.18259 -0.44653,0.86892 -0.89794,1.79499 -0.99515,2.79487 -0.29477,3.03194 1.13242,6.22086 3.176,8.38464 0.60635,0.64202 1.26506,1.77856 2.28671,1.77856 1.03686,0 1.27019,-1.18785 0.76224,-1.9056 -0.47129,-0.66596 -1.22898,-1.16982 -1.77855,-1.77855 -0.94318,-1.04475 -1.51529,-2.53693 -1.65152,-3.93825 -0.30032,-3.08898 0.8463,-6.89566 3.68415,-8.51166 1.87043,-1.0651 4.84379,-1.02591 6.86016,-0.46582 4.15427,1.15397 6.83,5.70676 5.67444,9.86676 -0.5123,1.84428 -1.62992,3.06218 -2.87957,4.4464 -0.44812,0.49638 -1.22542,2.17926 0,2.26555 0.82383,0.0581 1.745,-0.85711 2.28672,-1.37627 1.22998,-1.17873 1.97312,-2.42223 2.68901,-3.93823 0.35961,-0.76154 0.78395,-1.54813 0.8681,-2.41377 0.44193,-4.54558 -2.73205,-8.50142 -6.60607,-10.43843 -1.66574,-0.83287 -3.8439,-1.31697 -5.71679,-0.95279"
           id="path55" /><path
           style="fill:#000000;stroke:none;stroke-width:1.78134"
           d="m 304.74038,196.45058 c -2.03796,0.39625 -4.03245,0.4609 -5.97087,1.37626 -3.6335,1.7158 -6.74271,5.23353 -7.58005,9.25272 -0.28377,1.36216 -0.16938,2.80181 -0.16938,4.19232 0,4.76338 1.10308,9.58583 5.33567,12.40757 1.0619,0.70792 2.57754,1.7747 3.93823,1.56681 1.23548,-0.18875 0.26113,-1.57667 -0.25408,-1.99027 -0.67573,-0.5425 -1.44597,-0.87931 -2.15967,-1.35511 -1.89672,-1.26447 -3.86863,-3.53384 -4.40405,-5.80148 -0.41412,-1.7539 -0.34212,-3.68602 -0.16939,-5.46272 0.32511,-3.34393 1.19896,-6.78859 3.8112,-9.14687 2.97644,-2.68707 8.07593,-3.15588 11.8147,-2.11732 7.01754,1.94932 10.67007,10.04621 8.25759,16.72691 -0.73757,2.04251 -2.07646,3.84113 -3.81119,5.16629 -0.80284,0.61328 -1.74559,0.99317 -2.5408,1.60916 -0.38556,0.29868 -1.19291,1.33246 -0.25408,1.48213 1.07909,0.17208 2.13311,-0.41018 3.04896,-0.86811 3.02169,-1.51084 5.57022,-4.53043 6.22495,-7.89763 0.27643,-1.42164 0.6503,-2.98432 0.50816,-4.44639 -0.52606,-5.41097 -3.71579,-9.93682 -8.38463,-12.72516 -1.65871,-0.99062 -3.39615,-1.69586 -5.33567,-1.88443 -0.64212,-0.0624 -1.2506,-0.21205 -1.9056,-0.0846"
           id="path56" /></g><path
         id="path57"
         style="fill:#000000;stroke:none;stroke-width:0.0567235"
         d="m 515.80129,313.34627 c -0.0935,0.0234 -0.0625,0.2027 0.0404,0.17125 0.0932,-0.0285 0.067,-0.19811 -0.0404,-0.17125 m -0.16181,0.085 c -0.03,0.007 -0.0404,0.0411 -0.0276,0.0674 0.0288,0.0592 0.10154,0.0775 0.10855,0.14968 0.006,0.0606 -0.0122,0.11843 -0.0122,0.17799 0,0.0227 -0.009,0.0438 0.005,0.0647 0.0145,0.0209 0.0625,0.0253 0.0755,0 0.008,-0.0159 0.002,-0.0357 0.004,-0.0526 10e-4,-0.0123 0.006,-0.0243 0.008,-0.0364 0.002,-0.0108 0.008,-0.0362 0.0243,-0.0303 0.0107,0.004 0.0155,0.0167 0.0189,0.0263 0.004,0.0125 0.008,0.0272 0.007,0.0405 -10e-4,0.0301 -0.0148,0.0649 0.0303,0.0668 0.007,2.4e-4 0.0173,-0.001 0.0243,-0.003 0.0348,-0.0111 0.0283,-0.0465 0.0283,-0.0755 0,-0.0701 -0.027,-0.14032 -0.003,-0.21035 0.0141,-0.0406 0.0561,-0.0628 0.0823,-0.0944 0.0177,-0.0214 0.0322,-0.0561 0.009,-0.0796 -0.0175,-0.0181 -0.0523,-0.0165 -0.0674,0.004 -0.0123,0.0167 -0.015,0.0395 -0.027,0.0566 -0.0442,0.0637 -0.13338,0.082 -0.19283,0.0283 -0.0151,-0.0136 -0.0271,-0.0303 -0.0357,-0.0485 -0.0131,-0.0277 -0.0218,-0.0611 -0.0614,-0.0512 z" /></g><text
       xml:space="preserve"
       style="font-size:1.41111px;font-family:'OCR A Std';-inkscape-font-specification:'OCR A Std';letter-spacing:0px;fill:#808080;fill-opacity:1;stroke-width:4"
       x="-295.37097"
       y="551.75537"
       id="text31"
       transform="rotate(-90)"><tspan
         sodipodi:role="line"
         id="tspan31"
         style="font-style:normal;font-variant:normal;font-weight:normal;font-stretch:normal;font-family:'Dimitri Swank';-inkscape-font-specification:'Dimitri Swank';fill:#1a1a1a;stroke-width:4"
         x="-295.37097"
         y="551.75537">. ORG</tspan></text><text
       xml:space="preserve"
       style="font-size:0.870179px;font-family:'OCR A Std';-inkscape-font-specification:'OCR A Std';letter-spacing:0px;fill:#4d4d4d;fill-opacity:1;stroke-width:2.46665"
       x="-294.82437"
       y="549.30945"
       id="text37"
       transform="rotate(-90)"><tspan
         sodipodi:role="line"
         id="tspan37"
         style="font-style:normal;font-variant:normal;font-weight:normal;font-stretch:normal;font-family:Dimitri;-inkscape-font-specification:Dimitri;fill:#4d4d4d;stroke-width:2.46665"
         x="-294.82437"
         y="549.30945">. ORG</tspan></text><g
       id="g69"
       transform="matrix(2.3146159,0,0,2.3146159,-713.74562,-461.17188)"
       inkscape:export-filename="pajs-logo.jpg"
       inkscape:export-xdpi="96"
       inkscape:export-ydpi="96"><g
         id="g68"><path
           id="rect31"
           style="fill:#1a1a1a;stroke-width:8.57056"
           d="m 544.53638,306.12805 h 0.83832 v 1.88157 h -0.83832 z" /><g
           id="g23"
           transform="translate(30.916082,-36.834258)"><path
             style="fill:#808080;stroke-width:0.286348"
             d="m 518.00928,347.77687 c -0.0353,-0.031 -1.21377,-2.04135 -2.03246,-3.4682 -0.0685,-0.1196 -0.16112,-0.27761 -0.20542,-0.35129 -0.0651,-0.10783 -0.0802,-0.15554 -0.0793,-0.24602 0.002,-0.0995 0.0217,-0.14934 0.19148,-0.43659 0.95536,-1.63001 0.92252,-1.5699 0.92304,-1.68901 4.4e-4,-0.12083 0.0217,-0.0843 -0.78083,-1.45408 -0.14376,-0.24601 -0.26708,-0.47439 -0.27358,-0.50745 -0.009,-0.0449 0.003,-0.0747 0.0452,-0.11743 l 0.0573,-0.0573 h 2.30633 c 2.48625,0 2.36616,-0.006 2.47392,0.11526 0.0248,0.0279 0.0871,0.123 0.13633,0.20914 0.0493,0.0861 0.16267,0.28257 0.25221,0.43625 0.0896,0.15369 0.27886,0.48097 0.42108,0.72704 0.14221,0.24602 0.27947,0.4714 0.30488,0.50071 0.0248,0.0279 0.0867,0.0719 0.13602,0.0945 0.0827,0.0384 0.16638,0.0412 1.13634,0.0418 l 1.04686,4.3e-4 0.0573,0.0573 c 0.0437,0.0437 0.0545,0.0722 0.0449,0.11991 -0.0124,0.0548 -0.3872,0.71214 -1.82582,3.18953 -0.20016,0.34454 -0.39267,0.67226 -0.42802,0.72828 -0.11588,0.18373 -0.0716,0.17785 -1.34672,0.17785 -1.07654,9e-5 -1.12639,0.003 -1.19536,0.044 -0.0833,0.0508 -0.14594,0.14408 -0.43666,0.64946 -0.74817,1.30111 -0.73119,1.27515 -0.83363,1.27515 -0.0279,0 -0.0713,-0.0186 -0.096,-0.039 z m 2.44343,-4.07617 c 0.0483,-0.0124 0.11186,-0.0387 0.1416,-0.061 0.0682,-0.0518 1.10189,-1.83355 1.10189,-1.89942 0,-0.0279 -0.0186,-0.0728 -0.0428,-0.10194 l -0.0428,-0.0527 -1.059,-0.006 -1.05904,-0.006 -0.10039,0.0508 c -0.097,0.0493 -0.11836,0.0821 -0.63195,0.96673 -0.29249,0.50371 -0.53159,0.93473 -0.53159,0.95781 0,0.0632 0.0418,0.12859 0.0967,0.1509 0.0651,0.0248 2.0152,0.0279 2.12764,0.002 z"
             id="path17" /><g
             id="g19"
             style="font-size:8.20078px;font-family:Cubic;-inkscape-font-specification:Cubic;letter-spacing:0px;stroke:#000000;stroke-width:23.2463;stroke-linecap:round;stroke-linejoin:round"
             aria-label="pajs]"><path
               style="font-family:Higher;-inkscape-font-specification:Higher;stroke-width:0.25"
               d="m 511.07422,339.54433 h 1.75497 v 1.58275 h -1.23012 v 4.56784 h -0.52485 z m 1.23012,1.0497 v -0.52485 h -0.70527 v 0.52485 z m 1.81237,-1.0497 h 0.87748 v 6.15059 h -0.52485 v -0.52485 h -0.70527 v 0.52485 h -0.52485 v -6.15059 z m 0.35263,5.2731 v -4.74825 h -0.70527 v 4.74825 z m 0.93489,-5.2731 h 1.75497 v 6.15059 h -1.75497 v -2.63245 h 0.52485 v 0 0 2.1076 h 0.70527 v -5.10089 h -1.23012 z m 2.68985,0.52485 v 0.35263 h 1.23012 v 5.27311 h -1.75497 v -0.53305 h 1.23012 v -4.38742 h -1.23012 v -1.23012 h 1.75497 v 0.52485 z"
               id="path18" /><path
               style="font-family:Higher;-inkscape-font-specification:Higher;stroke:none;stroke-width:0.25"
               d="m 519.93926,346.40018 h 1.13171 v -5.97016 h -1.13171 v -0.59046 h 1.83697 v 7.15108 h -1.83697 z"
               id="path19" /></g><path
             style="fill:#cccccc;stroke:none;stroke-width:2;stroke-linecap:round;stroke-linejoin:round"
             d="m 507.72085,347.44739 -2.87201,-1.78531 -0.31049,-5.82165 2.63915,-1.70768 3.41537,1.55244 v 5.6664 z"
             id="path20" /><g
             id="g21"
             transform="matrix(0.22732704,0,0,0.22732704,487.65559,282.75449)"><path
               d="m 72.638196,255.68542 h -1.5875 v 7.40834 h 1.5875 v 10.31875 l 0.13229,4.23333 1.7198,1.14652 3.70416,2.11667 6.35,3.66008 2.64584,1.4993 3.43958,-1.76388 8.20208,-4.7625 3.042714,-1.94029 0.13229,-4.18923 v -10.31875 h 1.5875 v -7.40834 h -1.5875 v -3.96875 l -0.13229,-1.5875 -3.571874,-2.20486 -7.67292,-4.45381 -3.175,-1.7639 -3.43958,1.7639 -8.20209,4.7625 -3.04271,1.89617 -0.13229,1.5875 v 3.96875 m 26.45834,9.78959 -3.96875,-2.07257 -1.7198,-1.14653 -0.13229,-3.66007 h 2.91042 v -2.91042 h -5.82083 v 7.40834 h -6.08542 v -7.40834 h -5.82083 v 2.91042 h 2.91041 l -0.13229,3.66007 -1.71979,1.14653 -3.96875,2.07257 v -10.05417 l 0.13229,-3.61597 2.51354,-1.49931 6.35,-3.66006 2.91042,-1.41112 2.64583,1.41112 6.35,3.66006 2.51354,1.49931 0.1323,3.61597 v 10.05417 m -5.82084,0.52916 v 5.82084 h -2.91041 v -2.91042 h -6.08542 v 2.91042 h -2.91042 v -5.82084 h 11.90625"
               style="fill:#030303;stroke:none"
               id="path21" /></g><path
             style="font-size:0.767px;font-family:Dimitri;-inkscape-font-specification:Dimitri;letter-spacing:0px;stroke-width:0.232947;stroke-linecap:round;stroke-linejoin:round"
             d="m 526.12872,336.83415 h -0.10125 v 0.47707 h -0.15186 v -0.47707 h -0.10738 v -0.13116 h 0.36049 z m 0.41418,0.40727 h -0.36049 v -0.53843 h 0.36049 v 0.13116 h -0.20862 v 0.0859 h 0.0805 v 0.0936 h -0.0805 v 0.0966 h 0.20862 z m 0.41495,-0.53843 v 0.2953 h -0.15264 v -0.16414 h -0.0567 v 0.29069 h 0.0567 v -0.0897 h 0.15187 l 7.7e-4,0.0928 -0.11505,0.11351 h -0.24621 v -0.36125 l 0.11505,-0.17718 z m 0.0529,0.60823 h 0.15187 v -0.29759 h 0.0567 v 0.22779 h 0.15187 v -0.53843 h -0.15187 v 0.21706 h -0.0567 v -0.21706 h -0.15187 z m 0.77544,-0.0698 h -0.15263 v -0.40727 h -0.0568 v 0.40727 h -0.15187 v -0.42491 l 0.11505,-0.11352 h 0.24621 z m 0.41418,-0.11351 -0.11505,0.11351 h -0.24621 v -0.42261 l 0.11505,-0.11582 h 0.24621 z m -0.15187,-0.0176 v -0.27612 h -0.0568 v 0.27612 z m 0.52923,0.13115 h -0.32444 v -0.53843 h 0.15187 v 0.40728 h 0.17257 z m 0.41495,-0.11351 -0.11505,0.11351 h -0.24621 v -0.42261 l 0.11505,-0.11582 h 0.24621 z m -0.15186,-0.0176 v -0.27612 h -0.0568 v 0.27612 z m 0.56604,-0.23317 -7.7e-4,0.43412 h -0.15186 v -0.0698 h -0.0936 l -0.11505,-0.17717 v -0.36126 h 0.36049 v 0.11658 h -0.20862 v 0.2907 h 0.0568 v -0.23317 z m 0.20479,0.36432 h -0.15186 v -0.53843 h 0.15186 z m 0.41418,0 h -0.36049 v -0.53843 h 0.36049 v 0.13116 h -0.20862 v 0.0859 h 0.0805 v 0.0936 h -0.0805 v 0.0966 h 0.20862 z m 0.41495,-0.40727 h -0.21323 v 0.0859 h 0.21246 v 0.2347 l -0.0775,0.0867 h -0.28302 v -0.12118 h 0.22857 v -0.10661 h -0.22857 v -0.13346 l 0.11505,-0.17718 h 0.24621 z m 0.99173,0.48397 h -0.15186 v -0.69183 h 0.15186 z m 0.20556,0 h -0.15187 v -0.69183 h 0.15187 z m 1.20189,-0.52232 -7.7e-4,0.17948 -0.0836,7.6e-4 0.0836,0.0836 v 0.25157 h -0.15186 v -0.2324 l -0.0568,-0.0575 v 0.22012 h -0.15187 v -0.53843 h 0.24621 z m -0.15263,0.12425 v -0.0859 h -0.0568 v 0.0859 z m 0.56604,-0.0859 h -0.20862 v 0.0859 h 0.0805 v 0.0936 h -0.0805 v 0.22779 h -0.15187 v -0.53843 h 0.36049 z m 0.0537,0.29069 h 0.15187 v 0.11658 h -0.15187 z m 0.56682,-0.24774 -7.7e-4,0.43412 h -0.15187 v -0.0698 h -0.0936 l -0.11505,-0.17717 v -0.36126 h 0.36049 v 0.11658 h -0.20862 v 0.2907 h 0.0568 v -0.23317 z m 0.41418,0.25081 -0.11505,0.11351 h -0.24621 v -0.53843 h 0.24621 l 0.11505,0.17718 z m -0.15187,-0.0176 v -0.27612 h -0.0568 v 0.27612 z"
             id="path22"
             transform="scale(0.97204391,1.0287601)"
             aria-label="TEChNOLOGIES   ||   Rf.GD" /><path
             style="font-size:0.353008px;font-family:'OCR A Std';-inkscape-font-specification:'OCR A Std';letter-spacing:0px;stroke-width:0.107213;stroke-linecap:round;stroke-linejoin:round"
             d="m 519.87329,339.69434 v -0.20403 h 0.0643 c 0.0113,0 0.0212,-0.005 0.0212,-0.0177 0,-0.0131 -0.0106,-0.0177 -0.0219,-0.0177 h -0.12885 c -0.0201,0 -0.0236,0.006 -0.0236,0.0251 v 0.22592 c 0,0.0201 0.006,0.0237 0.0251,0.0237 h 0.12814 c 0.0113,0 0.0212,-0.005 0.0212,-0.0177 0,-0.0131 -0.0106,-0.0177 -0.0219,-0.0177 z m -0.0536,0 v -0.20403 h 0.0183 v 0.20403 z m 0.2231,-0.0434 c 0,0.0208 0.004,0.0311 0.0201,0.0445 l 0.0251,0.0208 c 0.0159,0.0131 0.024,0.0134 0.0438,0.0134 h 0.0536 c 0.0113,0 0.0233,-0.002 0.0233,-0.0169 0,-0.0148 -0.0134,-0.0169 -0.0233,-0.0169 h -0.0597 c -0.007,0 -0.0134,-0.004 -0.0194,-0.008 l -0.0205,-0.0173 c -0.005,-0.004 -0.009,-0.008 -0.009,-0.0145 v -0.042 c 0,-0.007 0.004,-0.0102 0.009,-0.0145 l 0.0205,-0.0173 c 0.006,-0.005 0.0127,-0.008 0.0194,-0.008 h 0.0597 c 0.01,0 0.0233,-0.002 0.0233,-0.0169 0,-0.0145 -0.012,-0.017 -0.0233,-0.017 h -0.0536 c -0.0198,0 -0.0279,3.6e-4 -0.0438,0.0134 l -0.0251,0.0208 c -0.0162,0.0134 -0.0201,0.0236 -0.0201,0.0445 z m 0.27181,0.0434 c -0.0113,0 -0.0219,0.005 -0.0219,0.0177 0,0.0127 0.01,0.0177 0.0212,0.0177 h 0.12814 c 0.0194,0 0.0251,-0.004 0.0251,-0.0237 v -0.22592 c 0,-0.0191 -0.004,-0.0251 -0.0236,-0.0251 h -0.12885 c -0.0113,0 -0.0219,0.005 -0.0219,0.0177 0,0.0127 0.01,0.0177 0.0212,0.0177 h 0.0642 v 0.20403 z m 0.0988,0 v -0.20403 h 0.0183 v 0.20403 z m 0.4229,-0.0844 h 0.0995 c 0.0117,0 0.0198,-0.002 0.0286,-0.01 0.01,-0.009 0.0109,-0.0187 0.0109,-0.0314 v -0.0724 c 0,-0.0127 -10e-4,-0.0222 -0.0109,-0.0314 -0.009,-0.008 -0.0169,-0.01 -0.0286,-0.01 h -0.1172 c -0.009,0 -0.0177,0.005 -0.0177,0.0177 0,0.0127 0.008,0.0177 0.0177,0.0177 h 0.12143 v 0.0844 h -0.0992 c -0.0265,0 -0.0399,0.0134 -0.0399,0.0399 v 0.11508 h 0.15673 c 0.009,0 0.0177,-0.005 0.0177,-0.0177 0,-0.0127 -0.008,-0.0177 -0.0177,-0.0177 h -0.12143 z m 0.25416,-0.15498 c -0.0194,0 -0.0353,0.0159 -0.0353,0.0353 v 0.20403 c 0,0.0198 0.0152,0.0353 0.0353,0.0353 h 0.10379 c 0.0201,0 0.0353,-0.0155 0.0353,-0.0353 v -0.20403 c 0,-0.0194 -0.0159,-0.0353 -0.0353,-0.0353 z m 0,0.23934 v -0.20403 h 0.10379 v 0.20403 z m 0.25417,-0.23934 c -0.0194,0 -0.0353,0.0159 -0.0353,0.0353 v 0.20403 c 0,0.0198 0.0152,0.0353 0.0353,0.0353 h 0.10378 c 0.0201,0 0.0353,-0.0155 0.0353,-0.0353 v -0.20403 c 0,-0.0194 -0.0159,-0.0353 -0.0353,-0.0353 z m 0,0.23934 v -0.20403 h 0.10378 v 0.20403 z m 0.25417,-0.0844 h 0.0995 c 0.0116,0 0.0198,-0.002 0.0286,-0.01 0.01,-0.009 0.0109,-0.0187 0.0109,-0.0314 v -0.0724 c 0,-0.0127 -10e-4,-0.0222 -0.0109,-0.0314 -0.009,-0.008 -0.017,-0.01 -0.0286,-0.01 h -0.1172 c -0.009,0 -0.0177,0.005 -0.0177,0.0177 0,0.0127 0.008,0.0177 0.0177,0.0177 h 0.12144 v 0.0844 h -0.0992 c -0.0265,0 -0.0399,0.0134 -0.0399,0.0399 v 0.11508 h 0.15674 c 0.009,0 0.0177,-0.005 0.0177,-0.0177 0,-0.0127 -0.008,-0.0177 -0.0177,-0.0177 h -0.12143 z"
             id="path23"
             aria-label="[c] 2002" /></g><g
           id="g29"
           transform="matrix(0.03591331,0,0,0.03591331,535.63055,298.04018)"
           style="fill:#000000"><path
             style="fill:#000000;stroke:none;stroke-width:1.78134"
             d="m 304.86742,204.9623 c -0.85485,0.17814 -1.5274,0.67909 -2.28672,1.07986 -0.85954,0.45364 -1.75703,0.8684 -2.37141,1.67268 -0.63045,0.82532 -1.10072,2.4538 0.46581,2.5408 0.98204,0.0545 1.18964,-0.96514 1.82091,-1.39744 1.00867,-0.69077 1.91138,-1.8808 3.13365,-1.90559 1.04861,-0.0213 1.87678,0.94731 2.75253,1.52447 0.73083,0.48166 1.29852,2.01317 2.07498,1.60917 0.77727,-0.40441 0.32534,-1.87512 -0.12704,-2.62548 -0.78745,-1.30612 -2.49167,-1.84589 -3.93824,-2.32908 -0.48495,-0.16198 -1.01257,-0.27603 -1.52448,-0.16939"
             id="path24" /><path
             style="fill:#000000;stroke:none;stroke-width:1.78134"
             d="m 304.23222,201.15113 c -3.60252,0.70047 -6.94442,2.84441 -8.65988,6.18259 -0.44653,0.86892 -0.89794,1.79499 -0.99515,2.79487 -0.29477,3.03194 1.13242,6.22086 3.176,8.38464 0.60635,0.64202 1.26506,1.77856 2.28671,1.77856 1.03686,0 1.27019,-1.18785 0.76224,-1.9056 -0.47129,-0.66596 -1.22898,-1.16982 -1.77855,-1.77855 -0.94318,-1.04475 -1.51529,-2.53693 -1.65152,-3.93825 -0.30032,-3.08898 0.8463,-6.89566 3.68415,-8.51166 1.87043,-1.0651 4.84379,-1.02591 6.86016,-0.46582 4.15427,1.15397 6.83,5.70676 5.67444,9.86676 -0.5123,1.84428 -1.62992,3.06218 -2.87957,4.4464 -0.44812,0.49638 -1.22542,2.17926 0,2.26555 0.82383,0.0581 1.745,-0.85711 2.28672,-1.37627 1.22998,-1.17873 1.97312,-2.42223 2.68901,-3.93823 0.35961,-0.76154 0.78395,-1.54813 0.8681,-2.41377 0.44193,-4.54558 -2.73205,-8.50142 -6.60607,-10.43843 -1.66574,-0.83287 -3.8439,-1.31697 -5.71679,-0.95279"
             id="path28" /><path
             style="fill:#000000;stroke:none;stroke-width:1.78134"
             d="m 304.74038,196.45058 c -2.03796,0.39625 -4.03245,0.4609 -5.97087,1.37626 -3.6335,1.7158 -6.74271,5.23353 -7.58005,9.25272 -0.28377,1.36216 -0.16938,2.80181 -0.16938,4.19232 0,4.76338 1.10308,9.58583 5.33567,12.40757 1.0619,0.70792 2.57754,1.7747 3.93823,1.56681 1.23548,-0.18875 0.26113,-1.57667 -0.25408,-1.99027 -0.67573,-0.5425 -1.44597,-0.87931 -2.15967,-1.35511 -1.89672,-1.26447 -3.86863,-3.53384 -4.40405,-5.80148 -0.41412,-1.7539 -0.34212,-3.68602 -0.16939,-5.46272 0.32511,-3.34393 1.19896,-6.78859 3.8112,-9.14687 2.97644,-2.68707 8.07593,-3.15588 11.8147,-2.11732 7.01754,1.94932 10.67007,10.04621 8.25759,16.72691 -0.73757,2.04251 -2.07646,3.84113 -3.81119,5.16629 -0.80284,0.61328 -1.74559,0.99317 -2.5408,1.60916 -0.38556,0.29868 -1.19291,1.33246 -0.25408,1.48213 1.07909,0.17208 2.13311,-0.41018 3.04896,-0.86811 3.02169,-1.51084 5.57022,-4.53043 6.22495,-7.89763 0.27643,-1.42164 0.6503,-2.98432 0.50816,-4.44639 -0.52606,-5.41097 -3.71579,-9.93682 -8.38463,-12.72516 -1.65871,-0.99062 -3.39615,-1.69586 -5.33567,-1.88443 -0.64212,-0.0624 -1.2506,-0.21205 -1.9056,-0.0846"
             id="path29" /></g><path
           id="path30"
           style="fill:#000000;stroke:none;stroke-width:0.0567235"
           d="m 546.56903,305.58606 c -0.0935,0.0234 -0.0625,0.2027 0.0404,0.17125 0.0932,-0.0285 0.067,-0.19811 -0.0404,-0.17125 m -0.16181,0.085 c -0.03,0.007 -0.0404,0.0411 -0.0276,0.0674 0.0288,0.0592 0.10154,0.0775 0.10855,0.14968 0.006,0.0606 -0.0122,0.11843 -0.0122,0.17799 0,0.0227 -0.009,0.0438 0.005,0.0647 0.0145,0.0209 0.0625,0.0253 0.0755,0 0.008,-0.0159 0.002,-0.0357 0.004,-0.0526 10e-4,-0.0123 0.006,-0.0243 0.008,-0.0364 0.002,-0.0108 0.008,-0.0362 0.0243,-0.0303 0.0107,0.004 0.0155,0.0167 0.0189,0.0263 0.004,0.0125 0.008,0.0272 0.007,0.0405 -10e-4,0.0301 -0.0148,0.0649 0.0303,0.0668 0.007,2.4e-4 0.0173,-10e-4 0.0243,-0.003 0.0348,-0.0111 0.0283,-0.0465 0.0283,-0.0755 0,-0.0701 -0.027,-0.14032 -0.003,-0.21035 0.0141,-0.0406 0.0561,-0.0628 0.0823,-0.0944 0.0177,-0.0214 0.0322,-0.0561 0.009,-0.0796 -0.0175,-0.0181 -0.0523,-0.0165 -0.0674,0.004 -0.0123,0.0167 -0.015,0.0395 -0.027,0.0566 -0.0442,0.0637 -0.13338,0.082 -0.19283,0.0283 -0.0151,-0.0136 -0.0271,-0.0303 -0.0357,-0.0485 -0.0131,-0.0277 -0.0218,-0.0611 -0.0614,-0.0512 z" /><path
           id="rect30"
           style="stroke-width:4.89898"
           d="m 544.53638,306.12805 h 0.83832 v 0.61477 h -0.83832 z" /><path
           style="font-size:0.870179px;font-family:Dimitri;-inkscape-font-specification:Dimitri;letter-spacing:0px;fill:#4d4d4d;stroke-width:2.46665"
           d="m -307.99265,549.17718 h 0.1723 v 0.13227 h -0.1723 z m 0.94067,0.003 -0.13053,0.12879 h -0.27933 v -0.47947 l 0.13053,-0.1314 h 0.27933 z m -0.1723,-0.02 v -0.31327 h -0.0644 v 0.31327 z m 0.6422,-0.35678 -8.7e-4,0.20363 -0.0949,8.7e-4 0.0949,0.0948 v 0.28541 h -0.1723 v -0.26366 l -0.0644,-0.0653 v 0.24974 h -0.1723 v -0.61087 h 0.27933 z m -0.17317,0.14097 v -0.0975 h -0.0644 v 0.0975 z m 0.64306,-0.0487 -8.7e-4,0.49252 h -0.17229 v -0.0792 h -0.10616 l -0.13053,-0.20101 v -0.40986 h 0.40898 v 0.13227 h -0.23669 v 0.3298 h 0.0644 v -0.26454 z"
           id="text32"
           transform="rotate(-90)"
           aria-label=". ORG" /><path
           style="font-size:0.870179px;font-family:'Dimitri Swank';-inkscape-font-specification:'Dimitri Swank';letter-spacing:0px;stroke-width:2.46665"
           d="m -307.80661,549.34687 -0.0235,0.0844 h -0.24713 v -0.2071 l 0.0235,-0.0844 h 0.24713 z m -0.0374,-0.0374 v -0.13227 h -0.17229 v 0.13227 z m 0.80579,-0.11313 -0.0235,0.0844 -0.15228,0.15054 h -0.33241 l 8.7e-4,-0.59346 0.17491,-0.17665 h 0.33241 z m -0.0374,-0.0157 v -0.48208 h -0.27933 l -0.13052,0.1314 v 0.47947 h 0.27932 z m -0.1723,-0.02 h -0.0644 v -0.31327 h 0.0644 z m 0.67962,-0.37505 -8.7e-4,0.25931 -0.0139,0.0287 0.0139,0.0139 v 0.3385 l -0.0235,0.0844 h -0.24713 v -0.0792 h -0.23669 v -0.6857 l 0.0235,-0.0844 h 0.32979 z m -0.0374,0.0183 -0.13053,-0.10529 h -0.27933 v 0.61087 h 0.1723 v -0.24974 l 0.0644,0.0653 v 0.26366 h 0.1723 v -0.28541 l -0.0949,-0.0948 0.0949,-8.7e-4 z m -0.17317,0.14097 h -0.0644 v -0.0975 h 0.0644 z m 0.67961,0.48121 -0.0235,0.0844 h -0.24713 v -0.0792 h -0.0888 l -0.14793,-0.22711 v -0.45859 l 0.0235,-0.0844 h 0.48382 z m -0.0365,-0.52994 h -0.17317 v 0.26454 h -0.0644 v -0.3298 h 0.23669 v -0.13227 h -0.40899 v 0.40986 l 0.13053,0.20101 h 0.10616 v 0.0792 h 0.1723 z"
           id="text34"
           transform="rotate(-90)"
           aria-label=". ORG" /></g></g><rect
       style="fill:#1a1a1a;fill-opacity:1;stroke-width:2.76184"
       id="rect37"
       width="0.27014714"
       height="0.60633028"
       x="540.0094"
       y="318.0636" /><g
       id="g63"
       transform="matrix(0.32224751,0,0,0.32224751,374.49651,207.54488)"><path
         style="fill:#808080;stroke-width:0.286348"
         d="m 518.00928,347.77687 c -0.0353,-0.031 -1.21377,-2.04135 -2.03246,-3.4682 -0.0685,-0.1196 -0.16112,-0.27761 -0.20542,-0.35129 -0.0651,-0.10783 -0.0802,-0.15554 -0.0793,-0.24602 0.002,-0.0995 0.0217,-0.14934 0.19148,-0.43659 0.95536,-1.63001 0.92252,-1.5699 0.92304,-1.68901 4.4e-4,-0.12083 0.0217,-0.0843 -0.78083,-1.45408 -0.14376,-0.24601 -0.26708,-0.47439 -0.27358,-0.50745 -0.009,-0.0449 0.003,-0.0747 0.0452,-0.11743 l 0.0573,-0.0573 h 2.30633 c 2.48625,0 2.36616,-0.006 2.47392,0.11526 0.0248,0.0279 0.0871,0.123 0.13633,0.20914 0.0493,0.0861 0.16267,0.28257 0.25221,0.43625 0.0896,0.15369 0.27886,0.48097 0.42108,0.72704 0.14221,0.24602 0.27947,0.4714 0.30488,0.50071 0.0248,0.0279 0.0867,0.0719 0.13602,0.0945 0.0827,0.0384 0.16638,0.0412 1.13634,0.0418 l 1.04686,4.3e-4 0.0573,0.0573 c 0.0437,0.0437 0.0545,0.0722 0.0449,0.11991 -0.0124,0.0548 -0.3872,0.71214 -1.82582,3.18953 -0.20016,0.34454 -0.39267,0.67226 -0.42802,0.72828 -0.11588,0.18373 -0.0716,0.17785 -1.34672,0.17785 -1.07654,9e-5 -1.12639,0.003 -1.19536,0.044 -0.0833,0.0508 -0.14594,0.14408 -0.43666,0.64946 -0.74817,1.30111 -0.73119,1.27515 -0.83363,1.27515 -0.0279,0 -0.0713,-0.0186 -0.096,-0.039 z m 2.44343,-4.07617 c 0.0483,-0.0124 0.11186,-0.0387 0.1416,-0.061 0.0682,-0.0518 1.10189,-1.83355 1.10189,-1.89942 0,-0.0279 -0.0186,-0.0728 -0.0428,-0.10194 l -0.0428,-0.0527 -1.059,-0.006 -1.05904,-0.006 -0.10039,0.0508 c -0.097,0.0493 -0.11836,0.0821 -0.63195,0.96673 -0.29249,0.50371 -0.53159,0.93473 -0.53159,0.95781 0,0.0632 0.0418,0.12859 0.0967,0.1509 0.0651,0.0248 2.0152,0.0279 2.12764,0.002 z"
         id="path38" /><g
         id="g59"
         style="font-size:8.20078px;font-family:Cubic;-inkscape-font-specification:Cubic;letter-spacing:0px;stroke:#000000;stroke-width:23.2463;stroke-linecap:round;stroke-linejoin:round"
         aria-label="pajs]"><path
           style="font-family:Higher;-inkscape-font-specification:Higher;stroke-width:0.25"
           d="m 511.07422,339.54433 h 1.75497 v 1.58275 h -1.23012 v 4.56784 h -0.52485 z m 1.23012,1.0497 v -0.52485 h -0.70527 v 0.52485 z m 1.81237,-1.0497 h 0.87748 v 6.15059 h -0.52485 v -0.52485 h -0.70527 v 0.52485 h -0.52485 v -6.15059 z m 0.35263,5.2731 v -4.74825 h -0.70527 v 4.74825 z m 0.93489,-5.2731 h 1.75497 v 6.15059 h -1.75497 v -2.63245 h 0.52485 v 0 0 2.1076 h 0.70527 v -5.10089 h -1.23012 z m 2.68985,0.52485 v 0.35263 h 1.23012 v 5.27311 h -1.75497 v -0.53305 h 1.23012 v -4.38742 h -1.23012 v -1.23012 h 1.75497 v 0.52485 z"
           id="path58" /><path
           style="font-family:Higher;-inkscape-font-specification:Higher;stroke:none;stroke-width:0.25"
           d="m 519.93926,346.40018 h 1.13171 v -5.97016 h -1.13171 v -0.59046 h 1.83697 v 7.15108 h -1.83697 z"
           id="path59" /></g><path
         style="fill:#cccccc;stroke:none;stroke-width:2;stroke-linecap:round;stroke-linejoin:round"
         d="m 507.72085,347.44739 -2.87201,-1.78531 -0.31049,-5.82165 2.63915,-1.70768 3.41537,1.55244 v 5.6664 z"
         id="path60" /><g
         id="g61"
         transform="matrix(0.22732704,0,0,0.22732704,487.65559,282.75449)"><path
           d="m 72.638196,255.68542 h -1.5875 v 7.40834 h 1.5875 v 10.31875 l 0.13229,4.23333 1.7198,1.14652 3.70416,2.11667 6.35,3.66008 2.64584,1.4993 3.43958,-1.76388 8.20208,-4.7625 3.042714,-1.94029 0.13229,-4.18923 v -10.31875 h 1.5875 v -7.40834 h -1.5875 v -3.96875 l -0.13229,-1.5875 -3.571874,-2.20486 -7.67292,-4.45381 -3.175,-1.7639 -3.43958,1.7639 -8.20209,4.7625 -3.04271,1.89617 -0.13229,1.5875 v 3.96875 m 26.45834,9.78959 -3.96875,-2.07257 -1.7198,-1.14653 -0.13229,-3.66007 h 2.91042 v -2.91042 h -5.82083 v 7.40834 h -6.08542 v -7.40834 h -5.82083 v 2.91042 h 2.91041 l -0.13229,3.66007 -1.71979,1.14653 -3.96875,2.07257 v -10.05417 l 0.13229,-3.61597 2.51354,-1.49931 6.35,-3.66006 2.91042,-1.41112 2.64583,1.41112 6.35,3.66006 2.51354,1.49931 0.1323,3.61597 v 10.05417 m -5.82084,0.52916 v 5.82084 h -2.91041 v -2.91042 h -6.08542 v 2.91042 h -2.91042 v -5.82084 h 11.90625"
           style="fill:#030303;stroke:none"
           id="path61" /></g><path
         style="font-size:0.767px;font-family:Dimitri;-inkscape-font-specification:Dimitri;letter-spacing:0px;stroke-width:0.232947;stroke-linecap:round;stroke-linejoin:round"
         d="m 526.12872,336.83415 h -0.10125 v 0.47707 h -0.15186 v -0.47707 h -0.10738 v -0.13116 h 0.36049 z m 0.41418,0.40727 h -0.36049 v -0.53843 h 0.36049 v 0.13116 h -0.20862 v 0.0859 h 0.0805 v 0.0936 h -0.0805 v 0.0966 h 0.20862 z m 0.41495,-0.53843 v 0.2953 h -0.15264 v -0.16414 h -0.0567 v 0.29069 h 0.0567 v -0.0897 h 0.15187 l 7.7e-4,0.0928 -0.11505,0.11351 h -0.24621 v -0.36125 l 0.11505,-0.17718 z m 0.0529,0.60823 h 0.15187 v -0.29759 h 0.0567 v 0.22779 h 0.15187 v -0.53843 h -0.15187 v 0.21706 h -0.0567 v -0.21706 h -0.15187 z m 0.77544,-0.0698 h -0.15263 v -0.40727 h -0.0568 v 0.40727 h -0.15187 v -0.42491 l 0.11505,-0.11352 h 0.24621 z m 0.41418,-0.11351 -0.11505,0.11351 h -0.24621 v -0.42261 l 0.11505,-0.11582 h 0.24621 z m -0.15187,-0.0176 v -0.27612 h -0.0568 v 0.27612 z m 0.52923,0.13115 h -0.32444 v -0.53843 h 0.15187 v 0.40728 h 0.17257 z m 0.41495,-0.11351 -0.11505,0.11351 h -0.24621 v -0.42261 l 0.11505,-0.11582 h 0.24621 z m -0.15186,-0.0176 v -0.27612 h -0.0568 v 0.27612 z m 0.56604,-0.23317 -7.7e-4,0.43412 h -0.15186 v -0.0698 h -0.0936 l -0.11505,-0.17717 v -0.36126 h 0.36049 v 0.11658 h -0.20862 v 0.2907 h 0.0568 v -0.23317 z m 0.20479,0.36432 h -0.15186 v -0.53843 h 0.15186 z m 0.41418,0 h -0.36049 v -0.53843 h 0.36049 v 0.13116 h -0.20862 v 0.0859 h 0.0805 v 0.0936 h -0.0805 v 0.0966 h 0.20862 z m 0.41495,-0.40727 h -0.21323 v 0.0859 h 0.21246 v 0.2347 l -0.0775,0.0867 h -0.28302 v -0.12118 h 0.22857 v -0.10661 h -0.22857 v -0.13346 l 0.11505,-0.17718 h 0.24621 z m 0.99173,0.48397 h -0.15186 v -0.69183 h 0.15186 z m 0.20556,0 h -0.15187 v -0.69183 h 0.15187 z m 1.20189,-0.52232 -7.7e-4,0.17948 -0.0836,7.6e-4 0.0836,0.0836 v 0.25157 h -0.15186 v -0.2324 l -0.0568,-0.0575 v 0.22012 h -0.15187 v -0.53843 h 0.24621 z m -0.15263,0.12425 v -0.0859 h -0.0568 v 0.0859 z m 0.56604,-0.0859 h -0.20862 v 0.0859 h 0.0805 v 0.0936 h -0.0805 v 0.22779 h -0.15187 v -0.53843 h 0.36049 z m 0.0537,0.29069 h 0.15187 v 0.11658 h -0.15187 z m 0.56682,-0.24774 -7.7e-4,0.43412 h -0.15187 v -0.0698 h -0.0936 l -0.11505,-0.17717 v -0.36126 h 0.36049 v 0.11658 h -0.20862 v 0.2907 h 0.0568 v -0.23317 z m 0.41418,0.25081 -0.11505,0.11351 h -0.24621 v -0.53843 h 0.24621 l 0.11505,0.17718 z m -0.15187,-0.0176 v -0.27612 h -0.0568 v 0.27612 z"
         id="path62"
         transform="scale(0.97204391,1.0287601)"
         aria-label="TEChNOLOGIES   ||   Rf.GD" /><path
         style="font-size:0.353008px;font-family:'OCR A Std';-inkscape-font-specification:'OCR A Std';letter-spacing:0px;stroke-width:0.107213;stroke-linecap:round;stroke-linejoin:round"
         d="m 519.87329,339.69434 v -0.20403 h 0.0643 c 0.0113,0 0.0212,-0.005 0.0212,-0.0177 0,-0.0131 -0.0106,-0.0177 -0.0219,-0.0177 h -0.12885 c -0.0201,0 -0.0236,0.006 -0.0236,0.0251 v 0.22592 c 0,0.0201 0.006,0.0237 0.0251,0.0237 h 0.12814 c 0.0113,0 0.0212,-0.005 0.0212,-0.0177 0,-0.0131 -0.0106,-0.0177 -0.0219,-0.0177 z m -0.0536,0 v -0.20403 h 0.0183 v 0.20403 z m 0.2231,-0.0434 c 0,0.0208 0.004,0.0311 0.0201,0.0445 l 0.0251,0.0208 c 0.0159,0.0131 0.024,0.0134 0.0438,0.0134 h 0.0536 c 0.0113,0 0.0233,-0.002 0.0233,-0.0169 0,-0.0148 -0.0134,-0.0169 -0.0233,-0.0169 h -0.0597 c -0.007,0 -0.0134,-0.004 -0.0194,-0.008 l -0.0205,-0.0173 c -0.005,-0.004 -0.009,-0.008 -0.009,-0.0145 v -0.042 c 0,-0.007 0.004,-0.0102 0.009,-0.0145 l 0.0205,-0.0173 c 0.006,-0.005 0.0127,-0.008 0.0194,-0.008 h 0.0597 c 0.01,0 0.0233,-0.002 0.0233,-0.0169 0,-0.0145 -0.012,-0.017 -0.0233,-0.017 h -0.0536 c -0.0198,0 -0.0279,3.6e-4 -0.0438,0.0134 l -0.0251,0.0208 c -0.0162,0.0134 -0.0201,0.0236 -0.0201,0.0445 z m 0.27181,0.0434 c -0.0113,0 -0.0219,0.005 -0.0219,0.0177 0,0.0127 0.01,0.0177 0.0212,0.0177 h 0.12814 c 0.0194,0 0.0251,-0.004 0.0251,-0.0237 v -0.22592 c 0,-0.0191 -0.004,-0.0251 -0.0236,-0.0251 h -0.12885 c -0.0113,0 -0.0219,0.005 -0.0219,0.0177 0,0.0127 0.01,0.0177 0.0212,0.0177 h 0.0642 v 0.20403 z m 0.0988,0 v -0.20403 h 0.0183 v 0.20403 z m 0.4229,-0.0844 h 0.0995 c 0.0117,0 0.0198,-0.002 0.0286,-0.01 0.01,-0.009 0.0109,-0.0187 0.0109,-0.0314 v -0.0724 c 0,-0.0127 -10e-4,-0.0222 -0.0109,-0.0314 -0.009,-0.008 -0.0169,-0.01 -0.0286,-0.01 h -0.1172 c -0.009,0 -0.0177,0.005 -0.0177,0.0177 0,0.0127 0.008,0.0177 0.0177,0.0177 h 0.12143 v 0.0844 h -0.0992 c -0.0265,0 -0.0399,0.0134 -0.0399,0.0399 v 0.11508 h 0.15673 c 0.009,0 0.0177,-0.005 0.0177,-0.0177 0,-0.0127 -0.008,-0.0177 -0.0177,-0.0177 h -0.12143 z m 0.25416,-0.15498 c -0.0194,0 -0.0353,0.0159 -0.0353,0.0353 v 0.20403 c 0,0.0198 0.0152,0.0353 0.0353,0.0353 h 0.10379 c 0.0201,0 0.0353,-0.0155 0.0353,-0.0353 v -0.20403 c 0,-0.0194 -0.0159,-0.0353 -0.0353,-0.0353 z m 0,0.23934 v -0.20403 h 0.10379 v 0.20403 z m 0.25417,-0.23934 c -0.0194,0 -0.0353,0.0159 -0.0353,0.0353 v 0.20403 c 0,0.0198 0.0152,0.0353 0.0353,0.0353 h 0.10378 c 0.0201,0 0.0353,-0.0155 0.0353,-0.0353 v -0.20403 c 0,-0.0194 -0.0159,-0.0353 -0.0353,-0.0353 z m 0,0.23934 v -0.20403 h 0.10378 v 0.20403 z m 0.25417,-0.0844 h 0.0995 c 0.0116,0 0.0198,-0.002 0.0286,-0.01 0.01,-0.009 0.0109,-0.0187 0.0109,-0.0314 v -0.0724 c 0,-0.0127 -10e-4,-0.0222 -0.0109,-0.0314 -0.009,-0.008 -0.017,-0.01 -0.0286,-0.01 h -0.1172 c -0.009,0 -0.0177,0.005 -0.0177,0.0177 0,0.0127 0.008,0.0177 0.0177,0.0177 h 0.12144 v 0.0844 h -0.0992 c -0.0265,0 -0.0399,0.0134 -0.0399,0.0399 v 0.11508 h 0.15674 c 0.009,0 0.0177,-0.005 0.0177,-0.0177 0,-0.0127 -0.008,-0.0177 -0.0177,-0.0177 h -0.12143 z"
         id="path63"
         aria-label="[c] 2002" /></g><g
       id="g66"
       transform="matrix(0.01157297,0,0,0.01157297,537.13949,315.45733)"
       style="fill:#000000"><path
         style="fill:#000000;stroke:none;stroke-width:1.78134"
         d="m 304.86742,204.9623 c -0.85485,0.17814 -1.5274,0.67909 -2.28672,1.07986 -0.85954,0.45364 -1.75703,0.8684 -2.37141,1.67268 -0.63045,0.82532 -1.10072,2.4538 0.46581,2.5408 0.98204,0.0545 1.18964,-0.96514 1.82091,-1.39744 1.00867,-0.69077 1.91138,-1.8808 3.13365,-1.90559 1.04861,-0.0213 1.87678,0.94731 2.75253,1.52447 0.73083,0.48166 1.29852,2.01317 2.07498,1.60917 0.77727,-0.40441 0.32534,-1.87512 -0.12704,-2.62548 -0.78745,-1.30612 -2.49167,-1.84589 -3.93824,-2.32908 -0.48495,-0.16198 -1.01257,-0.27603 -1.52448,-0.16939"
         id="path64" /><path
         style="fill:#000000;stroke:none;stroke-width:1.78134"
         d="m 304.23222,201.15113 c -3.60252,0.70047 -6.94442,2.84441 -8.65988,6.18259 -0.44653,0.86892 -0.89794,1.79499 -0.99515,2.79487 -0.29477,3.03194 1.13242,6.22086 3.176,8.38464 0.60635,0.64202 1.26506,1.77856 2.28671,1.77856 1.03686,0 1.27019,-1.18785 0.76224,-1.9056 -0.47129,-0.66596 -1.22898,-1.16982 -1.77855,-1.77855 -0.94318,-1.04475 -1.51529,-2.53693 -1.65152,-3.93825 -0.30032,-3.08898 0.8463,-6.89566 3.68415,-8.51166 1.87043,-1.0651 4.84379,-1.02591 6.86016,-0.46582 4.15427,1.15397 6.83,5.70676 5.67444,9.86676 -0.5123,1.84428 -1.62992,3.06218 -2.87957,4.4464 -0.44812,0.49638 -1.22542,2.17926 0,2.26555 0.82383,0.0581 1.745,-0.85711 2.28672,-1.37627 1.22998,-1.17873 1.97312,-2.42223 2.68901,-3.93823 0.35961,-0.76154 0.78395,-1.54813 0.8681,-2.41377 0.44193,-4.54558 -2.73205,-8.50142 -6.60607,-10.43843 -1.66574,-0.83287 -3.8439,-1.31697 -5.71679,-0.95279"
         id="path65" /><path
         style="fill:#000000;stroke:none;stroke-width:1.78134"
         d="m 304.74038,196.45058 c -2.03796,0.39625 -4.03245,0.4609 -5.97087,1.37626 -3.6335,1.7158 -6.74271,5.23353 -7.58005,9.25272 -0.28377,1.36216 -0.16938,2.80181 -0.16938,4.19232 0,4.76338 1.10308,9.58583 5.33567,12.40757 1.0619,0.70792 2.57754,1.7747 3.93823,1.56681 1.23548,-0.18875 0.26113,-1.57667 -0.25408,-1.99027 -0.67573,-0.5425 -1.44597,-0.87931 -2.15967,-1.35511 -1.89672,-1.26447 -3.86863,-3.53384 -4.40405,-5.80148 -0.41412,-1.7539 -0.34212,-3.68602 -0.16939,-5.46272 0.32511,-3.34393 1.19896,-6.78859 3.8112,-9.14687 2.97644,-2.68707 8.07593,-3.15588 11.8147,-2.11732 7.01754,1.94932 10.67007,10.04621 8.25759,16.72691 -0.73757,2.04251 -2.07646,3.84113 -3.81119,5.16629 -0.80284,0.61328 -1.74559,0.99317 -2.5408,1.60916 -0.38556,0.29868 -1.19291,1.33246 -0.25408,1.48213 1.07909,0.17208 2.13311,-0.41018 3.04896,-0.86811 3.02169,-1.51084 5.57022,-4.53043 6.22495,-7.89763 0.27643,-1.42164 0.6503,-2.98432 0.50816,-4.44639 -0.52606,-5.41097 -3.71579,-9.93682 -8.38463,-12.72516 -1.65871,-0.99062 -3.39615,-1.69586 -5.33567,-1.88443 -0.64212,-0.0624 -1.2506,-0.21205 -1.9056,-0.0846"
         id="path66" /></g><path
       id="path67"
       style="fill:#000000;stroke:none;stroke-width:0.018279"
       d="m 540.66439,317.88897 c -0.0301,0.008 -0.0201,0.0653 0.013,0.0552 0.03,-0.009 0.0216,-0.0638 -0.013,-0.0552 m -0.0522,0.0274 c -0.01,0.002 -0.013,0.0133 -0.009,0.0217 0.009,0.0191 0.0327,0.025 0.035,0.0482 0.002,0.0195 -0.004,0.0382 -0.004,0.0573 0,0.007 -0.003,0.0141 0.002,0.0208 0.005,0.007 0.0201,0.008 0.0243,0 0.003,-0.005 6.4e-4,-0.0115 10e-4,-0.017 3.2e-4,-0.004 0.002,-0.008 0.003,-0.0117 6.4e-4,-0.003 0.003,-0.0117 0.008,-0.01 0.003,0.001 0.005,0.005 0.006,0.008 10e-4,0.004 0.003,0.009 0.002,0.0131 -3.2e-4,0.01 -0.005,0.0209 0.01,0.0215 0.002,8e-5 0.006,-3.2e-4 0.008,-9.6e-4 0.0112,-0.004 0.009,-0.015 0.009,-0.0243 0,-0.0226 -0.009,-0.0452 -9.7e-4,-0.0678 0.005,-0.0131 0.0181,-0.0202 0.0265,-0.0304 0.006,-0.007 0.0104,-0.0181 0.003,-0.0256 -0.006,-0.006 -0.0168,-0.005 -0.0217,10e-4 -0.004,0.005 -0.005,0.0127 -0.009,0.0182 -0.0142,0.0205 -0.043,0.0264 -0.0621,0.009 -0.005,-0.004 -0.009,-0.01 -0.0115,-0.0156 -0.004,-0.009 -0.007,-0.0197 -0.0198,-0.0165 z" /><rect
       style="fill:#000000;stroke-width:1.57868"
       id="rect67"
       width="0.27014714"
       height="0.19810791"
       x="540.0094"
       y="318.0636" /><text
       xml:space="preserve"
       style="font-size:0.280413px;font-family:'OCR A Std';-inkscape-font-specification:'OCR A Std';letter-spacing:0px;fill:#4d4d4d;fill-opacity:1;stroke-width:0.794872"
       x="-318.68411"
       y="541.54749"
       id="text67"
       transform="rotate(-90)"><tspan
         sodipodi:role="line"
         id="tspan67"
         style="font-style:normal;font-variant:normal;font-weight:normal;font-stretch:normal;font-family:Dimitri;-inkscape-font-specification:Dimitri;fill:#4d4d4d;stroke-width:0.794872"
         x="-318.68411"
         y="541.54749">. ORG</tspan></text><text
       xml:space="preserve"
       style="font-size:0.280413px;font-family:'OCR A Std';-inkscape-font-specification:'OCR A Std';letter-spacing:0px;fill:#000000;fill-opacity:1;stroke-width:0.794872"
       x="-318.68417"
       y="541.54749"
       id="text68"
       transform="rotate(-90)"><tspan
         sodipodi:role="line"
         id="tspan68"
         style="font-style:normal;font-variant:normal;font-weight:normal;font-stretch:normal;font-family:'Dimitri Swank';-inkscape-font-specification:'Dimitri Swank';fill:#000000;stroke-width:0.794872"
         x="-318.68417"
         y="541.54749">. ORG</tspan></text></g></svg>
