<?xml version="1.0" encoding="UTF-8" standalone="no"?>
<!-- Created with Inkscape (http://www.inkscape.org/) -->

<svg
   width="64.858734mm"
   height="29.369616mm"
   viewBox="0 0 64.858734 29.369616"
   version="1.1"
   id="svg1"
   xml:space="preserve"
   xmlns="http://www.w3.org/2000/svg"
   xmlns:svg="http://www.w3.org/2000/svg"
   xmlns:rdf="http://www.w3.org/1999/02/22-rdf-syntax-ns#"
   xmlns:cc="http://creativecommons.org/ns#"
   xmlns:dc="http://purl.org/dc/elements/1.1/"><title
     id="title4">{Making Scholars } Ready-for-Global-Development</title><defs
     id="defs1" /><g
     id="layer1"
     transform="translate(-505.09627,-6.2270649)"><g
       id="g252"
       transform="matrix(3.2392481,0,0,3.2392481,-1161.7865,-438.70893)"><g
         id="g249"><g
           id="text224"
           style="font-size:1.60256px;font-family:Slackey;-inkscape-font-specification:Slackey;letter-spacing:0px;fill:#1a1a1a;stroke-width:0.454274"
           transform="scale(0.93133579,1.0737266)"
           aria-label="&#10;Public Access"><path
             d="m 553.71263,135.55352 q 0,0.0344 -0.005,0.083 -0.003,0.0485 -0.0125,0.0986 -0.008,0.0501 -0.0235,0.0939 -0.0156,0.0438 -0.0391,0.0689 -0.009,0.011 -0.061,0.0219 -0.0501,0.009 -0.12207,0.0204 -0.0704,0.009 -0.15181,0.0188 -0.0814,0.009 -0.15493,0.0172 -0.072,0.006 -0.1252,0.011 -0.0532,0.005 -0.0673,0.005 l -0.0125,0.32552 q -0.0485,0.003 -0.0955,0.002 -0.047,-0.003 -0.0955,-0.003 -0.0313,0 -0.0626,0.002 -0.0313,0.002 -0.0626,0.005 0,-0.14711 0,-0.29109 0,-0.14398 -0.006,-0.29109 -0.005,-0.13303 -0.009,-0.26449 -0.003,-0.13146 -0.006,-0.26448 0.1612,-0.011 0.32396,-0.0266 0.16432,-0.0172 0.32708,-0.0172 0.0282,0 0.0892,0.006 0.061,0.005 0.12833,0.0172 0.0673,0.011 0.12363,0.0282 0.0579,0.0172 0.0767,0.0391 0.0125,0.0141 0.0203,0.0548 0.009,0.0407 0.0141,0.0876 0.005,0.0454 0.006,0.0892 0.003,0.0438 0.003,0.0642 z m -0.4382,-0.0109 q 0,-0.0141 -0.002,-0.036 -0.002,-0.0219 -0.006,-0.0423 -0.003,-0.0219 -0.011,-0.0391 -0.008,-0.0188 -0.0203,-0.0266 -0.008,-0.005 -0.025,-0.008 -0.0172,-0.003 -0.036,-0.005 -0.0188,-0.002 -0.036,-0.002 -0.0172,-0.002 -0.025,-0.002 -0.0579,0 -0.11581,0.006 -0.0579,0.006 -0.11737,0.0157 0.005,0.0469 0.005,0.0923 0.002,0.0454 0.002,0.0908 0,0.0736 0.005,0.14868 0.0204,0 0.0704,-0.002 0.0501,-0.003 0.10485,-0.008 0.0548,-0.006 0.10329,-0.0156 0.0485,-0.011 0.0657,-0.0282 0.0282,-0.0266 0.0329,-0.0642 0.006,-0.0391 0.006,-0.0767 z"
             id="path248" /><path
             style="letter-spacing:-0.285364px"
             d="m 554.65109,136.25934 -0.26448,0.0109 -0.0188,-0.15806 q -0.0297,0.0407 -0.072,0.0689 -0.0407,0.0282 -0.0892,0.0454 -0.047,0.0172 -0.0986,0.025 -0.0501,0.006 -0.0986,0.006 -0.0376,0 -0.0939,-0.006 -0.0548,-0.006 -0.11268,-0.0172 -0.0563,-0.0125 -0.10485,-0.0313 -0.0485,-0.0188 -0.0704,-0.0438 -0.0172,-0.0188 -0.0266,-0.0595 -0.008,-0.0423 -0.011,-0.0892 -0.003,-0.047 -0.003,-0.0908 0,-0.0438 0,-0.0704 0,-0.11738 0.009,-0.23162 0.009,-0.11425 0.0266,-0.22693 0.0438,-0.005 0.0939,-0.005 0.0407,0 0.0814,0.006 0.0407,0.005 0.0814,0.0125 0,0.008 0.002,0.0454 0.002,0.0376 0.003,0.0892 0.003,0.0516 0.006,0.11111 0.003,0.0579 0.006,0.10799 0.005,0.0501 0.009,0.0861 0.006,0.0344 0.0125,0.0376 0.0235,0.0141 0.0516,0.0156 0.0282,0.002 0.0548,0.002 0.0188,0 0.0579,-0.002 0.0407,-0.003 0.0829,-0.008 0.0423,-0.006 0.0783,-0.0141 0.036,-0.009 0.0485,-0.0219 0.005,-0.005 0.006,-0.0297 0.003,-0.025 0.003,-0.0548 0.002,-0.0297 0.002,-0.0548 0.002,-0.0266 0.002,-0.0313 0,-0.0704 -0.003,-0.13929 -0.003,-0.0689 -0.006,-0.13928 l 0.30361,-0.0141 q 0.009,0.10955 0.0172,0.2191 0.008,0.10799 0.0204,0.21754 0.005,0.036 0.005,0.0735 0.002,0.0376 0.003,0.0751 0.003,0.0704 0.003,0.14085 0.002,0.0704 0.003,0.14242 z m 1.09653,-0.24571 q 0,0.0845 -0.0376,0.15337 -0.0376,0.0689 -0.12207,0.0955 -0.0125,0.003 -0.0516,0.006 -0.0391,0.002 -0.0845,0.003 -0.0454,0 -0.0861,0 -0.0407,0 -0.0532,0 -0.11111,0 -0.22223,-0.002 -0.10955,-0.002 -0.2191,-0.005 l -0.008,0.0673 q -0.0798,0 -0.1612,0.003 -0.0814,0.003 -0.16276,0.008 0.002,-0.12051 0.002,-0.23945 0.002,-0.11894 0.002,-0.23944 0,-0.17215 -0.006,-0.34117 -0.005,-0.17059 -0.009,-0.34117 l 0.26605,0.011 q -0.002,0.0204 -0.002,0.0423 0,0.0203 0,0.0422 0,0.10329 0.003,0.20658 0.005,0.10173 0.005,0.20502 0.025,-0.0454 0.0689,-0.0861 0.0438,-0.0407 0.0923,-0.0532 0.0438,-0.0109 0.10016,-0.0203 0.0563,-0.009 0.11424,-0.0156 0.0595,-0.008 0.11738,-0.011 0.0579,-0.003 0.10329,-0.003 0.0329,0 0.072,0.009 0.0407,0.008 0.0798,0.0235 0.0391,0.0157 0.0704,0.0391 0.0329,0.0219 0.0516,0.0516 0.0157,0.0266 0.0297,0.0798 0.0156,0.0517 0.025,0.11112 0.0109,0.0579 0.0172,0.11268 0.006,0.0548 0.006,0.0861 z m -0.32865,-0.0986 q 0,-0.0156 -0.005,-0.0407 -0.003,-0.025 -0.011,-0.0501 -0.006,-0.0266 -0.0157,-0.0485 -0.009,-0.0235 -0.0219,-0.0344 -0.006,-0.006 -0.0203,-0.008 -0.0141,-0.003 -0.0297,-0.005 -0.0141,-0.002 -0.0297,-0.002 -0.0141,0 -0.0219,0 -0.0141,0 -0.0438,0.002 -0.0297,0.002 -0.0673,0.005 -0.0376,0.002 -0.0798,0.006 -0.0407,0.003 -0.0767,0.008 -0.036,0.005 -0.0626,0.011 -0.0266,0.005 -0.036,0.0109 l 0.0188,0.26136 q 0.0407,0 0.10329,0 0.0642,-0.002 0.13146,-0.005 0.0689,-0.005 0.13146,-0.0125 0.0642,-0.008 0.10172,-0.0235 0.0266,-0.011 0.0297,-0.0297 0.005,-0.0188 0.005,-0.0454 z m 0.51279,-0.77937 q -0.0125,0.1518 -0.025,0.30204 -0.0109,0.15024 -0.0188,0.30205 -0.008,0.13772 -0.0172,0.27387 -0.008,0.13459 -0.0156,0.27231 l -0.23945,0.0125 q 0,-0.14241 0,-0.2817 0.002,-0.14085 -0.002,-0.28326 -0.003,-0.14242 -0.0125,-0.2817 -0.009,-0.14085 -0.0188,-0.28327 z m 0.12467,0.1565 q 0,0.0313 -0.0141,0.0595 -0.0125,0.0266 -0.036,0.047 -0.0219,0.0203 -0.0501,0.0329 -0.0282,0.011 -0.0563,0.011 -0.0313,0 -0.0595,-0.0141 -0.0266,-0.0141 -0.047,-0.036 -0.0204,-0.0219 -0.0313,-0.0501 -0.011,-0.0297 -0.011,-0.0595 0,-0.0297 0.011,-0.0548 0.0125,-0.0266 0.0313,-0.0454 0.0203,-0.0188 0.0454,-0.0297 0.0266,-0.011 0.0563,-0.011 0.0297,0 0.0579,0.0125 0.0297,0.011 0.0516,0.0329 0.0235,0.0204 0.0376,0.0485 0.0141,0.0266 0.0141,0.0563 z m 0.0642,0.26605 q -0.008,0.0829 -0.0125,0.16432 -0.005,0.0814 -0.009,0.16276 -0.006,0.0955 -0.0219,0.18937 -0.0141,0.0939 -0.0329,0.1878 l -0.23945,0.025 q 0,-0.0501 0,-0.0986 0.002,-0.0485 0.002,-0.0986 0,-0.12833 -0.005,-0.25666 -0.005,-0.12833 -0.009,-0.25666 0.083,-0.003 0.16276,-0.009 0.0814,-0.006 0.16589,-0.009 z m 0.90091,-0.0438 q 0,0.072 -0.0188,0.13928 -0.011,0.002 -0.0657,0.005 -0.0532,0.002 -0.12833,0.006 -0.0736,0.003 -0.15963,0.009 -0.0845,0.005 -0.15807,0.011 -0.072,0.006 -0.12363,0.0141 -0.0501,0.006 -0.0563,0.0125 -0.025,0.0219 -0.0376,0.0532 -0.0125,0.0313 -0.0125,0.0626 0,0.0188 0.003,0.0297 0.005,0.009 0.0141,0.0219 0.005,0.005 0.0329,0.008 0.0282,0.003 0.0626,0.005 0.0344,0.002 0.0642,0.003 0.0297,0 0.0344,0 0.11268,0 0.22536,-0.005 0.11268,-0.005 0.22536,-0.0125 l 0.0125,0.26918 q -0.1565,0.0125 -0.31456,0.025 -0.1565,0.011 -0.31457,0.011 -0.008,0 -0.0235,0 -0.0141,0 -0.0313,0 -0.0172,-0.002 -0.0329,-0.003 -0.0157,-0.002 -0.0219,-0.003 -0.0329,-0.009 -0.0657,-0.0203 -0.0313,-0.0125 -0.0595,-0.0297 -0.0282,-0.0188 -0.0501,-0.0438 -0.0203,-0.025 -0.0297,-0.061 -0.006,-0.0235 -0.011,-0.061 -0.003,-0.0391 -0.005,-0.0798 -0.002,-0.0407 -0.003,-0.0798 0,-0.0391 0,-0.0657 0,-0.061 0.002,-0.11424 0.002,-0.0532 0.0172,-0.097 0.0157,-0.0454 0.0501,-0.0798 0.036,-0.036 0.10172,-0.0626 0.0297,-0.0125 0.0892,-0.0188 0.0595,-0.008 0.12363,-0.011 0.0657,-0.005 0.1252,-0.006 0.0595,-0.002 0.0923,-0.002 0.10955,0 0.21753,0.005 0.10955,0.005 0.2191,0.0125 0.005,0.0391 0.008,0.0782 0.003,0.0376 0.003,0.0751 z m 1.24624,0.82006 -0.23788,0.036 q -0.025,-0.0798 -0.0501,-0.15806 -0.025,-0.0798 -0.0485,-0.15963 l -0.38499,0.0141 -0.0485,0.20815 h -0.24101 q 0.0219,-0.26605 0.0454,-0.52897 0.0235,-0.26292 0.0454,-0.52741 0.11268,-0.0188 0.22379,-0.0313 0.11268,-0.0125 0.22693,-0.0125 0.13928,0 0.27857,0.005 0.025,0.16276 0.0485,0.32552 0.025,0.16119 0.0516,0.32395 0.0188,0.12833 0.0407,0.25353 0.0235,0.1252 0.0501,0.25197 z m -0.39125,-0.49454 q -0.002,-0.0141 -0.008,-0.0516 -0.006,-0.0391 -0.0141,-0.0814 -0.008,-0.0438 -0.0188,-0.0782 -0.009,-0.036 -0.0188,-0.0422 -0.003,-0.002 -0.0156,-0.003 -0.011,-0.002 -0.025,-0.003 -0.0125,-0.002 -0.025,-0.002 -0.0125,0 -0.0172,0 -0.008,0 -0.0219,0 -0.0125,0 -0.0282,0.002 -0.0141,0 -0.0282,0.003 -0.0125,0.003 -0.0172,0.008 -0.003,0.002 -0.008,0.0204 -0.005,0.0188 -0.0125,0.0469 -0.006,0.0266 -0.0141,0.0579 -0.006,0.0313 -0.0125,0.0595 -0.006,0.0282 -0.011,0.0485 -0.003,0.0203 -0.005,0.0235 z m 1.24364,-0.32552 q 0,0.072 -0.0188,0.13928 -0.011,0.002 -0.0657,0.005 -0.0532,0.002 -0.12833,0.006 -0.0736,0.003 -0.15963,0.009 -0.0845,0.005 -0.15807,0.011 -0.072,0.006 -0.12363,0.0141 -0.0501,0.006 -0.0563,0.0125 -0.025,0.0219 -0.0376,0.0532 -0.0125,0.0313 -0.0125,0.0626 0,0.0188 0.003,0.0297 0.005,0.009 0.0141,0.0219 0.005,0.005 0.0329,0.008 0.0282,0.003 0.0626,0.005 0.0344,0.002 0.0642,0.003 0.0297,0 0.0344,0 0.11268,0 0.22536,-0.005 0.11268,-0.005 0.22536,-0.0125 l 0.0125,0.26918 q -0.1565,0.0125 -0.31456,0.025 -0.1565,0.011 -0.31457,0.011 -0.008,0 -0.0235,0 -0.0141,0 -0.0313,0 -0.0172,-0.002 -0.0329,-0.003 -0.0156,-0.002 -0.0219,-0.003 -0.0329,-0.009 -0.0657,-0.0203 -0.0313,-0.0125 -0.0595,-0.0297 -0.0282,-0.0188 -0.0501,-0.0438 -0.0203,-0.025 -0.0297,-0.061 -0.006,-0.0235 -0.011,-0.061 -0.003,-0.0391 -0.005,-0.0798 -0.002,-0.0407 -0.003,-0.0798 0,-0.0391 0,-0.0657 0,-0.061 0.002,-0.11424 0.002,-0.0532 0.0172,-0.097 0.0156,-0.0454 0.0501,-0.0798 0.036,-0.036 0.10172,-0.0626 0.0297,-0.0125 0.0892,-0.0188 0.0595,-0.008 0.12363,-0.011 0.0657,-0.005 0.1252,-0.006 0.0595,-0.002 0.0923,-0.002 0.10955,0 0.21753,0.005 0.10955,0.005 0.2191,0.0125 0.005,0.0391 0.008,0.0782 0.003,0.0376 0.003,0.0751 z m 0.84456,0 q 0,0.072 -0.0188,0.13928 -0.0109,0.002 -0.0657,0.005 -0.0532,0.002 -0.12833,0.006 -0.0735,0.003 -0.15963,0.009 -0.0845,0.005 -0.15806,0.011 -0.072,0.006 -0.12364,0.0141 -0.0501,0.006 -0.0563,0.0125 -0.025,0.0219 -0.0376,0.0532 -0.0125,0.0313 -0.0125,0.0626 0,0.0188 0.003,0.0297 0.005,0.009 0.0141,0.0219 0.005,0.005 0.0329,0.008 0.0282,0.003 0.0626,0.005 0.0344,0.002 0.0642,0.003 0.0297,0 0.0344,0 0.11268,0 0.22536,-0.005 0.11268,-0.005 0.22536,-0.0125 l 0.0125,0.26918 q -0.1565,0.0125 -0.31457,0.025 -0.1565,0.011 -0.31456,0.011 -0.008,0 -0.0235,0 -0.0141,0 -0.0313,0 -0.0172,-0.002 -0.0329,-0.003 -0.0156,-0.002 -0.0219,-0.003 -0.0329,-0.009 -0.0657,-0.0203 -0.0313,-0.0125 -0.0595,-0.0297 -0.0282,-0.0188 -0.0501,-0.0438 -0.0204,-0.025 -0.0297,-0.061 -0.006,-0.0235 -0.0109,-0.061 -0.003,-0.0391 -0.005,-0.0798 -0.002,-0.0407 -0.003,-0.0798 0,-0.0391 0,-0.0657 0,-0.061 0.002,-0.11424 0.002,-0.0532 0.0172,-0.097 0.0156,-0.0454 0.0501,-0.0798 0.036,-0.036 0.10173,-0.0626 0.0297,-0.0125 0.0892,-0.0188 0.0595,-0.008 0.12364,-0.011 0.0657,-0.005 0.1252,-0.006 0.0595,-0.002 0.0923,-0.002 0.10955,0 0.21754,0.005 0.10955,0.005 0.2191,0.0125 0.005,0.0391 0.008,0.0782 0.003,0.0376 0.003,0.0751 z m 0.89934,0.24414 q -0.20501,0.0109 -0.40846,0.0188 -0.20345,0.006 -0.40847,0.0141 -0.002,0.006 -0.002,0.0125 0,0.006 0,0.0125 0,0.0532 0.0235,0.0814 0.025,0.0282 0.061,0.0407 0.036,0.011 0.0798,0.0125 0.0438,0.002 0.0814,0.002 0.10486,0 0.20971,-0.006 0.10486,-0.008 0.21128,-0.0156 l 0.0125,0.24883 q -0.10329,0.005 -0.20658,0.008 -0.10173,0.003 -0.20502,0.003 -0.0219,0 -0.0814,0 -0.0579,-0.002 -0.1252,-0.005 -0.0657,-0.005 -0.12363,-0.011 -0.0579,-0.006 -0.0767,-0.0172 -0.0485,-0.0282 -0.0767,-0.072 -0.0266,-0.0438 -0.0423,-0.0955 -0.0141,-0.0516 -0.0203,-0.10486 -0.005,-0.0548 -0.006,-0.10485 -0.002,-0.008 -0.002,-0.0156 0.002,-0.009 0.002,-0.0172 0,-0.0829 0.0172,-0.15337 0.0188,-0.072 0.0673,-0.13928 0.0329,-0.0469 0.097,-0.0782 0.0642,-0.0313 0.13928,-0.0485 0.0751,-0.0188 0.15024,-0.025 0.0751,-0.008 0.1299,-0.008 0.0485,0 0.11894,0.009 0.0704,0.008 0.13928,0.0282 0.0704,0.0203 0.12677,0.0532 0.0563,0.0313 0.0767,0.0782 0.003,0.009 0.006,0.0329 0.005,0.0219 0.009,0.0517 0.005,0.0282 0.008,0.061 0.005,0.0329 0.008,0.0626 0.003,0.0297 0.005,0.0532 0.003,0.0235 0.005,0.0329 z m -0.21284,-0.11425 q -0.009,-0.0689 -0.036,-0.10798 -0.025,-0.0407 -0.0642,-0.0595 -0.0376,-0.0204 -0.0876,-0.025 -0.0485,-0.006 -0.10485,-0.006 -0.0188,0 -0.0469,0.002 -0.0282,0 -0.0563,0.005 -0.0282,0.003 -0.0532,0.011 -0.025,0.008 -0.0391,0.0219 -0.0109,0.009 -0.0188,0.0266 -0.006,0.0156 -0.0109,0.0344 -0.005,0.0188 -0.008,0.0376 -0.002,0.0172 -0.002,0.0297 0,0.025 0.005,0.0485 z m 0.91656,-0.39125 -0.009,0.20345 q -0.0485,-0.003 -0.097,-0.005 -0.0485,-0.002 -0.097,-0.002 -0.0204,0 -0.0579,0.002 -0.0376,0 -0.0845,0.002 -0.0454,0.002 -0.0939,0.005 -0.0485,0.003 -0.0892,0.006 -0.0407,0.003 -0.0689,0.008 -0.0282,0.005 -0.0344,0.009 -0.0204,0.0204 -0.0204,0.047 0,0.0172 0.009,0.0282 0.003,0.005 0.0344,0.008 0.0313,0.003 0.0767,0.006 0.0454,0.002 0.0986,0.003 0.0548,0 0.10329,0.002 0.0501,0 0.0876,0.002 0.0391,0.002 0.0548,0.003 0.0595,0.008 0.0939,0.0344 0.036,0.0266 0.0548,0.0673 0.0188,0.0391 0.0235,0.0892 0.006,0.0501 0.006,0.10172 0,0.025 -0.005,0.0595 -0.003,0.0344 -0.0109,0.0689 -0.008,0.0344 -0.0235,0.0642 -0.0141,0.0297 -0.0344,0.047 -0.0235,0.0188 -0.0767,0.0313 -0.0517,0.0125 -0.11268,0.0203 -0.0595,0.008 -0.11581,0.011 -0.0563,0.003 -0.0861,0.003 -0.10329,0 -0.20658,-0.011 -0.10329,-0.0125 -0.20501,-0.0266 V 135.842 q 0.0986,0.0204 0.19719,0.0235 0.10016,0.003 0.20032,0.011 0.0203,0.002 0.061,0.003 0.0423,0 0.0845,-0.002 0.0423,-0.003 0.0767,-0.011 0.0344,-0.008 0.0422,-0.0219 0.003,-0.005 0.003,-0.0109 0,-0.006 0,-0.011 0,-0.0125 -0.003,-0.0313 -0.002,-0.0203 -0.009,-0.0313 -0.002,-0.002 -0.0109,-0.002 -0.009,-0.002 -0.011,-0.002 -0.0876,-0.005 -0.17528,-0.005 -0.0876,-0.002 -0.17684,-0.009 -0.036,-0.003 -0.0736,-0.006 -0.036,-0.005 -0.072,-0.0125 -0.0297,-0.006 -0.0548,-0.0141 -0.0235,-0.008 -0.0423,-0.0203 -0.0172,-0.0125 -0.0297,-0.0313 -0.0125,-0.0204 -0.0172,-0.0532 -0.003,-0.011 -0.003,-0.0203 0,-0.011 0,-0.0235 0,-0.0282 0.003,-0.0642 0.003,-0.036 0.011,-0.072 0.009,-0.036 0.0219,-0.0673 0.0141,-0.0329 0.036,-0.0532 0.0141,-0.0141 0.0501,-0.0235 0.036,-0.009 0.0829,-0.0156 0.047,-0.008 0.10016,-0.0125 0.0532,-0.005 0.10172,-0.006 0.0501,-0.003 0.0892,-0.003 0.0407,-0.002 0.061,-0.002 0.0876,0 0.17215,0.003 0.0861,0.003 0.17059,0.008 z m 0.73501,0 -0.009,0.20345 q -0.0485,-0.003 -0.097,-0.005 -0.0485,-0.002 -0.097,-0.002 -0.0203,0 -0.0579,0.002 -0.0376,0 -0.0845,0.002 -0.0454,0.002 -0.0939,0.005 -0.0485,0.003 -0.0892,0.006 -0.0407,0.003 -0.0689,0.008 -0.0282,0.005 -0.0344,0.009 -0.0203,0.0204 -0.0203,0.047 0,0.0172 0.009,0.0282 0.003,0.005 0.0344,0.008 0.0313,0.003 0.0767,0.006 0.0454,0.002 0.0986,0.003 0.0548,0 0.10329,0.002 0.0501,0 0.0876,0.002 0.0391,0.002 0.0548,0.003 0.0595,0.008 0.0939,0.0344 0.036,0.0266 0.0548,0.0673 0.0188,0.0391 0.0235,0.0892 0.006,0.0501 0.006,0.10172 0,0.025 -0.005,0.0595 -0.003,0.0344 -0.011,0.0689 -0.008,0.0344 -0.0235,0.0642 -0.0141,0.0297 -0.0344,0.047 -0.0235,0.0188 -0.0767,0.0313 -0.0516,0.0125 -0.11268,0.0203 -0.0595,0.008 -0.11581,0.011 -0.0563,0.003 -0.0861,0.003 -0.10329,0 -0.20658,-0.011 -0.10329,-0.0125 -0.20502,-0.0266 V 135.842 q 0.0986,0.0204 0.19719,0.0235 0.10016,0.003 0.20032,0.011 0.0204,0.002 0.061,0.003 0.0422,0 0.0845,-0.002 0.0423,-0.003 0.0767,-0.011 0.0344,-0.008 0.0423,-0.0219 0.003,-0.005 0.003,-0.0109 0,-0.006 0,-0.011 0,-0.0125 -0.003,-0.0313 -0.002,-0.0203 -0.009,-0.0313 -0.002,-0.002 -0.011,-0.002 -0.009,-0.002 -0.0109,-0.002 -0.0876,-0.005 -0.17528,-0.005 -0.0876,-0.002 -0.17685,-0.009 -0.036,-0.003 -0.0736,-0.006 -0.036,-0.005 -0.072,-0.0125 -0.0297,-0.006 -0.0548,-0.0141 -0.0235,-0.008 -0.0422,-0.0203 -0.0172,-0.0125 -0.0297,-0.0313 -0.0125,-0.0204 -0.0172,-0.0532 -0.003,-0.011 -0.003,-0.0203 0,-0.011 0,-0.0235 0,-0.0282 0.003,-0.0642 0.003,-0.036 0.0109,-0.072 0.009,-0.036 0.0219,-0.0673 0.0141,-0.0329 0.036,-0.0532 0.0141,-0.0141 0.0501,-0.0235 0.036,-0.009 0.0829,-0.0156 0.047,-0.008 0.10016,-0.0125 0.0532,-0.005 0.10173,-0.006 0.0501,-0.003 0.0892,-0.003 0.0407,-0.002 0.061,-0.002 0.0876,0 0.17215,0.003 0.0861,0.003 0.17058,0.008 z"
             id="path249" /></g><g
           id="g225"
           style="font-size:2.54153px;font-family:Slackey;-inkscape-font-specification:Slackey;letter-spacing:0px;fill:#1a1a1a;stroke-width:0.720437"
           transform="matrix(1.0133153,0,0,0.98685966,-17.667287,-4.3913786)"
           aria-label="&#10;ORG"><path
             d="m 538.99327,151.51233 q 0,0.0323 0,0.0645 0,0.0298 -0.002,0.0596 -0.002,0.0248 -0.007,0.0869 -0.002,0.062 -0.01,0.14395 -0.005,0.0794 -0.0149,0.16878 -0.007,0.0893 -0.0199,0.16629 -0.01,0.0745 -0.0223,0.12906 -0.0124,0.0546 -0.0248,0.067 -0.0745,0.0745 -0.1787,0.11169 -0.10176,0.0348 -0.21345,0.0472 -0.11169,0.0124 -0.22338,0.01 -0.11169,-0.002 -0.20848,-0.002 -0.0323,0 -0.10921,0 -0.0769,-0.002 -0.17622,-0.005 -0.0968,-0.002 -0.20352,-0.007 -0.10672,-0.007 -0.20104,-0.0174 -0.0918,-0.0124 -0.16133,-0.0273 -0.067,-0.0174 -0.0844,-0.0422 -0.0199,-0.0273 -0.0348,-0.0596 -0.0149,-0.0323 -0.0273,-0.062 -0.0323,-0.0819 -0.0596,-0.17374 -0.0273,-0.0943 -0.0472,-0.19111 -0.0174,-0.0993 -0.0298,-0.19607 -0.01,-0.0968 -0.01,-0.18367 0,-0.0472 0.007,-0.12162 0.007,-0.0769 0.0199,-0.1638 0.0124,-0.0894 0.0298,-0.18119 0.0174,-0.0918 0.0372,-0.17125 0.0223,-0.0794 0.0471,-0.13651 0.0248,-0.0596 0.0546,-0.0794 0.0248,-0.0174 0.0918,-0.0323 0.067,-0.0149 0.15636,-0.0248 0.0894,-0.0124 0.19111,-0.0199 0.10176,-0.01 0.1936,-0.0149 0.0918,-0.007 0.16629,-0.01 0.0745,-0.002 0.1092,-0.002 0.0472,0 0.12658,0.005 0.0819,0.005 0.17622,0.0174 0.0943,0.01 0.19112,0.0273 0.0968,0.0149 0.1787,0.0372 0.0844,0.0223 0.14395,0.0496 0.0596,0.0273 0.0745,0.0596 0.0124,0.0273 0.0223,0.0794 0.0124,0.0496 0.0199,0.11417 0.007,0.0645 0.0124,0.13651 0.007,0.072 0.01,0.13899 0.005,0.0645 0.007,0.11913 0.002,0.0546 0.002,0.0869 z m -0.44427,0.0819 q 0,-0.0496 -0.005,-0.10425 -0.005,-0.0571 -0.0323,-0.0993 -0.0199,-0.0298 -0.0968,-0.0472 -0.0745,-0.0174 -0.16629,-0.0248 -0.0894,-0.007 -0.17374,-0.007 -0.0844,-0.002 -0.11913,-0.002 -0.0273,0 -0.0968,0.005 -0.067,0.005 -0.14395,0.0174 -0.0745,0.01 -0.13899,0.0273 -0.0645,0.0149 -0.0794,0.0372 -0.0149,0.0174 -0.0248,0.067 -0.007,0.0472 -0.0149,0.10425 -0.005,0.0546 -0.007,0.10672 -0.002,0.0496 -0.002,0.072 0,0.0198 0,0.0596 0.002,0.0397 0.007,0.0819 0.005,0.0422 0.01,0.0794 0.007,0.0372 0.0199,0.0546 0.007,0.0124 0.0447,0.0223 0.0372,0.01 0.0893,0.0199 0.0546,0.007 0.11417,0.0124 0.0596,0.005 0.11417,0.01 0.0571,0.002 0.0993,0.005 0.0447,0 0.062,0 0.0298,0 0.10176,-0.005 0.0745,-0.005 0.15388,-0.0149 0.0819,-0.0124 0.14892,-0.0273 0.0695,-0.0174 0.0893,-0.0397 0.0149,-0.0174 0.0248,-0.072 0.01,-0.0571 0.0149,-0.12161 0.005,-0.067 0.005,-0.12658 0.002,-0.062 0.002,-0.0893 z"
             id="path224" /><path
             style="letter-spacing:-0.452562px"
             d="m 540.6603,151.3237 q 0,0.20352 -0.1241,0.32018 -0.12409,0.11665 -0.32761,0.12658 0.24571,0.40952 0.42937,0.8389 l -0.72473,0.0174 q -0.0199,-0.20104 -0.0596,-0.36981 -0.0397,-0.16877 -0.11168,-0.35492 -0.0819,0.005 -0.16381,0.0124 -0.0794,0.007 -0.15885,0.0124 l 0.0124,0.56341 q -0.14147,0.007 -0.28294,0.007 -0.072,0 -0.14147,-0.002 -0.067,-0.002 -0.13651,-0.01 0.0174,-0.22834 0.0323,-0.4542 0.0149,-0.22834 0.0174,-0.4542 0.007,-0.40207 0.0223,-0.80415 0.23331,-0.0124 0.46413,-0.0273 0.23331,-0.0149 0.46661,-0.0149 0.0596,0 0.12906,0.002 0.0695,0.002 0.13899,0.0149 0.072,0.01 0.13651,0.0298 0.067,0.0199 0.11913,0.0521 0.12658,0.0794 0.1936,0.21345 0.0695,0.13155 0.0695,0.28046 z m -0.57581,-0.0397 q 0,-0.0198 -0.002,-0.0546 0,-0.0348 -0.005,-0.0695 -0.005,-0.0372 -0.0149,-0.067 -0.01,-0.0323 -0.0273,-0.0472 -0.0124,-0.01 -0.0422,-0.0149 -0.0298,-0.005 -0.0645,-0.007 -0.0323,-0.005 -0.0645,-0.005 -0.0298,-0.002 -0.0422,-0.002 -0.0993,0 -0.19608,0.01 -0.0943,0.01 -0.18863,0.0248 l 0.067,0.4815 q 0.0546,0.0124 0.11417,0.0174 0.0596,0.005 0.11665,0.005 0.0248,0 0.072,-0.002 0.0496,-0.002 0.0993,-0.01 0.0521,-0.007 0.0943,-0.0199 0.0447,-0.0149 0.062,-0.0372 0.007,-0.01 0.0124,-0.0372 0.005,-0.0298 0.005,-0.0596 0.002,-0.0323 0.002,-0.062 0.002,-0.0298 0.002,-0.0422 z m 2.00954,1.32785 q -0.30032,-0.005 -0.61552,-0.0149 -0.31273,-0.01 -0.61305,-0.0447 -0.0348,-0.005 -0.0794,-0.007 -0.0422,-0.005 -0.0769,-0.0174 -0.072,-0.0273 -0.11417,-0.0596 -0.0397,-0.0348 -0.062,-0.0769 -0.0223,-0.0447 -0.0323,-0.0968 -0.01,-0.0546 -0.0174,-0.12162 -0.0223,-0.17373 -0.0348,-0.34747 -0.0124,-0.17622 -0.0124,-0.35244 0,-0.0323 0,-0.0769 0.002,-0.0472 0.005,-0.0968 0.005,-0.0496 0.0124,-0.0943 0.007,-0.0447 0.0199,-0.0745 0.0596,-0.12906 0.17374,-0.206 0.11665,-0.0794 0.25564,-0.12162 0.13899,-0.0447 0.28543,-0.0571 0.14891,-0.0149 0.27301,-0.0149 0.26557,0 0.53114,0.0521 l 0.0199,0.53114 q -0.25316,-0.0794 -0.5237,-0.0794 -0.0496,0 -0.13154,0.005 -0.0819,0.005 -0.16877,0.0199 -0.0844,0.0124 -0.15885,0.0397 -0.0745,0.0248 -0.10424,0.0695 -0.0149,0.0223 -0.0273,0.062 -0.01,0.0397 -0.0174,0.0844 -0.005,0.0422 -0.007,0.0844 -0.002,0.0422 -0.002,0.0695 0,0.0571 0.007,0.1365 0.01,0.0769 0.0223,0.15885 0.0124,0.0819 0.0298,0.15636 0.0174,0.0745 0.0372,0.12162 h 0.43931 l -0.0223,-0.47902 q 0.17126,0.0124 0.34251,0.0124 0.17374,-0.002 0.34499,-0.002 0.0174,0.21097 0.0199,0.41945 0.002,0.20848 0.002,0.41945 z"
             id="path225" /></g><g
           id="g227"
           style="font-size:7.38413px;font-family:'High Tower Text';-inkscape-font-specification:'High Tower Text';letter-spacing:-0.744107px;stroke-width:2.09313"
           aria-label="Pajs"
           transform="translate(-17.667287,-4.3913786)"><path
             style="font-family:Slackey;-inkscape-font-specification:Slackey"
             d="m 537.3857,145.28575 q 0,0.15864 -0.0216,0.38218 -0.0144,0.22355 -0.0577,0.4543 -0.0361,0.23075 -0.10817,0.43266 -0.0721,0.20191 -0.18027,0.31729 -0.0433,0.0505 -0.28124,0.10096 -0.23075,0.0433 -0.56246,0.0937 -0.3245,0.0433 -0.69947,0.0865 -0.37498,0.0433 -0.7139,0.0793 -0.33171,0.0289 -0.57688,0.0505 -0.24518,0.0216 -0.31008,0.0216 l -0.0577,1.49991 q -0.22354,0.0144 -0.43987,0.007 -0.21633,-0.0144 -0.43988,-0.0144 -0.14422,0 -0.28844,0.007 -0.14422,0.007 -0.28844,0.0216 0,-0.67784 0,-1.34126 0,-0.66342 -0.0289,-1.34126 -0.0216,-0.61294 -0.0433,-1.21867 -0.0144,-0.60573 -0.0288,-1.21867 0.74274,-0.0505 1.49269,-0.12258 0.75716,-0.0793 1.50712,-0.0793 0.12979,0 0.41103,0.0288 0.28123,0.0216 0.5913,0.0793 0.31008,0.0505 0.56968,0.1298 0.26681,0.0793 0.35334,0.18028 0.0577,0.0649 0.0937,0.25238 0.0433,0.18749 0.0649,0.40382 0.0216,0.20912 0.0288,0.41103 0.0144,0.20191 0.0144,0.29566 z m -2.0191,-0.0505 q 0,-0.0649 -0.007,-0.16586 -0.007,-0.10095 -0.0288,-0.19469 -0.0144,-0.10096 -0.0505,-0.18028 -0.0361,-0.0865 -0.0937,-0.12259 -0.0361,-0.0216 -0.11537,-0.0361 -0.0793,-0.0144 -0.16586,-0.0216 -0.0865,-0.007 -0.16585,-0.007 -0.0793,-0.007 -0.11538,-0.007 -0.26681,0 -0.53362,0.0288 -0.26681,0.0289 -0.54083,0.0721 0.0216,0.21633 0.0216,0.42545 0.007,0.20912 0.007,0.41824 0,0.33892 0.0216,0.68505 0.0937,0 0.3245,-0.007 0.23075,-0.0144 0.48314,-0.0361 0.25239,-0.0288 0.47593,-0.0721 0.22354,-0.0505 0.30286,-0.1298 0.1298,-0.12258 0.15144,-0.29565 0.0288,-0.18028 0.0288,-0.35334 z m 7.12317,0.41824 q 0,0.60573 -0.0433,1.20425 -0.0433,0.59852 -0.0865,1.19704 -0.80764,0.0721 -1.60807,0.12258 -0.80043,0.0505 -1.60807,0.0505 -0.0721,0 -0.26681,0 -0.1947,-0.007 -0.41103,-0.0144 -0.21633,-0.0144 -0.41103,-0.0289 -0.1947,-0.0216 -0.2596,-0.0577 -0.23796,-0.1298 -0.33171,-0.3245 -0.0937,-0.20191 -0.0937,-0.4543 0,-0.0865 0.007,-0.23075 0.007,-0.14422 0.0289,-0.30287 0.0216,-0.15864 0.0577,-0.29565 0.0361,-0.13701 0.0865,-0.20191 0.0649,-0.0865 0.29565,-0.14422 0.23075,-0.0649 0.54804,-0.10096 0.3245,-0.0361 0.69226,-0.0577 0.37498,-0.0216 0.7139,-0.0288 0.33892,-0.0144 0.60573,-0.0144 0.26681,0 0.38218,0 0.0216,-0.15865 0.0216,-0.31008 0,-0.0144 0,-0.0721 0,-0.0649 -0.007,-0.0793 -0.0216,-0.0433 -0.13701,-0.0721 -0.11538,-0.0289 -0.28845,-0.0433 -0.16585,-0.0144 -0.36776,-0.0216 -0.1947,-0.0144 -0.38219,-0.0144 -0.18748,0 -0.33171,0 -0.14422,0 -0.20912,0 -0.45429,0 -0.90859,0.0216 -0.4543,0.0144 -0.90859,0.0288 0.0288,-0.27402 0.0433,-0.55525 0.0216,-0.28123 0.007,-0.55525 0.52641,-0.0937 1.05282,-0.1298 0.53362,-0.0433 1.07445,-0.0433 0.1947,0 0.42545,0.007 0.23075,0 0.46151,0.0144 0.23075,0.007 0.45429,0.0288 0.23076,0.0216 0.42546,0.0577 0.20191,0.0361 0.39661,0.1298 0.20191,0.0937 0.37497,0.23075 0.17307,0.13701 0.30287,0.31729 0.1298,0.17307 0.18748,0.37498 0.007,0.0216 0.007,0.0721 0.007,0.0505 0.007,0.11537 0,0.0577 0,0.10817 0,0.0505 0,0.0721 z m -1.60807,1.6946 v -0.92302 q -0.20912,-0.007 -0.41824,-0.007 -0.20912,-0.007 -0.41825,-0.007 -0.0433,0 -0.24517,0.007 -0.1947,0 -0.42545,0.0144 -0.22355,0.0144 -0.41103,0.036 -0.18749,0.0216 -0.21634,0.0649 -0.036,0.0577 -0.0505,0.12259 -0.007,0.0577 -0.007,0.12259 0,0.0505 0.007,0.13701 0.007,0.0865 0.0216,0.18027 0.0216,0.0937 0.0433,0.17307 0.0216,0.0793 0.0577,0.11538 0.0288,0.036 0.0937,0.0577 0.0721,0.0144 0.15143,0.0289 0.0793,0.007 0.15864,0.0144 0.0793,0 0.12259,0 0.17307,0 0.36777,-0.0144 0.20191,-0.0144 0.40382,-0.0289 0.20912,-0.0216 0.40382,-0.0433 0.19469,-0.0289 0.36055,-0.0505 z"
             id="path226" /><path
             style="font-family:Slackey;-inkscape-font-specification:Slackey;fill:#1a1a1a"
             d="m 543.7936,144.0815 q 0,0.14422 -0.0649,0.26681 -0.0649,0.12259 -0.16585,0.22354 -0.10096,0.0937 -0.23076,0.15143 -0.1298,0.0505 -0.26681,0.0505 -0.14422,0 -0.27402,-0.0649 -0.12258,-0.0649 -0.21633,-0.16585 -0.0937,-0.10096 -0.14422,-0.23076 -0.0505,-0.13701 -0.0505,-0.28123 0,-0.27402 0.1947,-0.46151 0.20191,-0.18748 0.47593,-0.18748 0.13701,0 0.26681,0.0577 0.13701,0.0505 0.23797,0.15144 0.10816,0.0937 0.17306,0.22354 0.0649,0.12259 0.0649,0.26681 z m 0.15143,2.14168 q 0,0.57689 0,1.13935 0,0.56247 -0.007,1.13935 0,0.18749 -0.007,0.37498 -0.007,0.18748 -0.007,0.37497 0,0.16586 -0.0144,0.36056 -0.0144,0.19469 -0.0649,0.37497 -0.0433,0.18749 -0.15143,0.33171 -0.10096,0.14422 -0.28845,0.20191 -0.0649,0.0216 -0.27402,0.036 -0.20912,0.0144 -0.44708,0.0216 -0.23797,0.007 -0.4543,0.007 -0.20912,0 -0.28123,0 -0.10817,0 -0.21633,-0.007 -0.10817,0 -0.20912,0 -0.0144,-0.27402 -0.0577,-0.52641 -0.0505,-0.24518 -0.0937,-0.5192 l 0.7139,-0.0649 q 0.10095,-0.007 0.21633,-0.0144 0.12259,-0.007 0.22354,-0.0433 0.10096,-0.0289 0.16586,-0.10817 0.0649,-0.0721 0.0649,-0.21633 0,-0.33171 -0.0289,-0.66342 -0.0288,-0.33171 -0.0505,-0.66342 -0.0361,-0.54083 -0.0793,-1.08166 -0.0433,-0.54083 -0.0865,-1.09608 0.0793,0.007 0.15143,0.007 0.0721,0 0.15144,0 0.28123,0 0.56246,-0.0144 0.28844,-0.0216 0.56967,-0.0361 z m 4.10173,-2.32196 -0.0433,0.93744 q -0.22355,-0.0144 -0.44709,-0.0216 -0.22354,-0.007 -0.44709,-0.007 -0.0937,0 -0.26681,0.007 -0.17306,0 -0.38939,0.007 -0.20912,0.007 -0.43267,0.0216 -0.22354,0.0144 -0.41103,0.0289 -0.18749,0.0144 -0.31728,0.0361 -0.1298,0.0216 -0.15865,0.0433 -0.0937,0.0937 -0.0937,0.21633 0,0.0793 0.0433,0.1298 0.0144,0.0216 0.15865,0.036 0.14422,0.0144 0.35334,0.0289 0.20912,0.007 0.4543,0.0144 0.25238,0 0.47593,0.007 0.23075,0 0.40382,0.007 0.18027,0.007 0.25238,0.0144 0.27402,0.0361 0.43267,0.15865 0.16585,0.12259 0.25239,0.31007 0.0865,0.18028 0.10816,0.41103 0.0289,0.23076 0.0289,0.46872 0,0.11538 -0.0216,0.27402 -0.0144,0.15865 -0.0505,0.31729 -0.0361,0.15864 -0.10817,0.29565 -0.0649,0.13701 -0.15864,0.21634 -0.10817,0.0865 -0.35335,0.14422 -0.23796,0.0577 -0.51919,0.0937 -0.27402,0.0361 -0.53362,0.0505 -0.2596,0.0144 -0.39661,0.0144 -0.47593,0 -0.95186,-0.0505 -0.47593,-0.0577 -0.94465,-0.12258 v -1.37732 q 0.4543,0.0937 0.90859,0.10817 0.46151,0.0144 0.92302,0.0505 0.0937,0.007 0.28123,0.0144 0.1947,0 0.3894,-0.007 0.1947,-0.0144 0.35334,-0.0505 0.15864,-0.0361 0.1947,-0.10096 0.0144,-0.0216 0.0144,-0.0505 0,-0.0288 0,-0.0505 0,-0.0577 -0.0144,-0.14422 -0.007,-0.0937 -0.0433,-0.14422 -0.007,-0.007 -0.0505,-0.007 -0.0433,-0.007 -0.0505,-0.007 -0.40382,-0.0216 -0.80764,-0.0216 -0.40382,-0.007 -0.81485,-0.0433 -0.16586,-0.0144 -0.33892,-0.0289 -0.16586,-0.0216 -0.33171,-0.0577 -0.13701,-0.0288 -0.25239,-0.0649 -0.10816,-0.036 -0.1947,-0.0937 -0.0793,-0.0577 -0.13701,-0.14422 -0.0577,-0.0937 -0.0793,-0.24518 -0.0144,-0.0505 -0.0144,-0.0937 0,-0.0505 0,-0.10817 0,-0.1298 0.0144,-0.29565 0.0144,-0.16586 0.0505,-0.33171 0.0433,-0.16586 0.10095,-0.31008 0.0649,-0.15143 0.16586,-0.24517 0.0649,-0.0649 0.23075,-0.10817 0.16586,-0.0433 0.38219,-0.0721 0.21633,-0.0361 0.46151,-0.0577 0.24517,-0.0216 0.46872,-0.0288 0.23075,-0.0144 0.41103,-0.0144 0.18749,-0.007 0.28123,-0.007 0.40382,0 0.79322,0.0144 0.3966,0.0144 0.786,0.036 z"
             id="path227" /></g><path
           style="fill:#faffdc;fill-opacity:1;stroke-width:3.71723"
           d="m 528.55354,142.10095 -0.38222,0.32631 -0.55041,-0.14684 0.2752,-0.34262 0.32108,-0.26102 0.0306,-0.39156 1.19258,-1.23992 0.36695,-0.37524 h 0.16817 l 0.33638,0.29367 h 0.30577 l 0.2905,-0.3263 0.33637,0.049 0.62687,0.55471 0.33635,0.57101 0.1682,0.29367 0.48925,0.5547 0.18348,0.27734 0.0459,0.27736 -0.42812,0.0164 -0.27521,-0.2284 c 0,0 -0.15287,-0.19579 -0.21402,-0.17946 -0.0612,0.0163 -0.25993,0.21206 -0.25993,0.21206 l -0.4434,-0.50573 -0.2599,0.16315 0.2599,0.78309 0.0459,0.22841 -1.62066,-1.30518 c 0,0 -0.10703,-0.29367 -0.16818,-0.30999 -0.0612,-0.0163 -0.33635,0.45682 -0.33635,0.45682 l -0.0765,0.29367 -0.36694,0.37523 -0.25992,0.0979 z"
           id="path228" /><g
           id="g230"
           transform="matrix(0.92697385,0,0,0.92697385,48.642334,-42.790153)"><path
             style="fill:#ffd42a;fill-opacity:1;stroke-width:4"
             d="m 521.3537,200.71682 c 0,0 0.0515,0.26485 0.0441,0.32371 -0.007,0.0588 -0.0294,0.38255 -0.0294,0.38255 l 0.20597,0.30899 0.36785,0.0221 0.73571,-0.0736 0.29426,-0.22806 c 0,0 -0.13977,-0.51498 -0.13977,-0.55177 0,-0.0368 -0.0368,-0.30899 -0.0368,-0.30899 l 0.27956,-0.0589 0.31636,-0.33842 -0.17655,-0.44877 -0.94171,0.25749 -0.57383,0.0368 -0.89016,0.0368 c 0,0 -0.20601,0.13978 -0.20601,0.18392 0,0.0442 0.0441,0.36049 0.0515,0.38992 0.007,0.0294 0.23543,0.0809 0.23543,0.0809 z"
             id="path229" /><path
             style="fill:#806600;fill-opacity:1;stroke-width:4"
             d="m 522.36893,202.24705 0.0589,0.1545 0.13978,0.1692 0.3384,-0.11035 0.12507,-0.23542 -0.22807,-0.60326 c 0,0 -0.15449,0.0441 -0.2354,0.0662 -0.0809,0.0221 -0.4267,0.0662 -0.4267,0.0662 0,0 -0.19129,0.0147 -0.26484,0.0147 -0.0736,0 -0.35314,0.0147 -0.35314,0.0147 l -0.0441,0.21335 c 0,0 0.0662,0.25013 0.0736,0.30899 0.007,0.0589 0.022,0.21335 0.022,0.21335 l 0.33107,0.16185 0.30163,-0.0662 0.13978,-0.103 z"
             id="path230" /></g><path
           style="fill:#ffff00;fill-opacity:1;stroke-width:2.63603"
           d="m 531.83563,140.38631 c 0,0 1.0945,-2.71546 -1.25244,-2.84829 -2.81406,-0.15927 -1.57999,2.56106 -1.57999,2.56106 0,0 0.61222,-0.21541 0.61222,-0.31115 0,-0.0958 0.45541,-1.00528 0.45541,-1.00528 l 0.59776,0.21541 c 0,0 0.37004,0.50264 0.42696,0.69412 0.0569,0.19149 0.25619,0.35904 0.25619,0.35904 z"
           id="path231" /><path
           style="fill:#000000;stroke-width:0.158507"
           d="m 532.20182,146.1098 c -0.26707,-0.0775 -0.26825,-0.39036 -0.002,-0.42144 0.13738,-0.016 0.0811,-0.52388 -0.0642,-0.57913 -0.12848,-0.0489 -0.15763,-0.11362 -0.20232,-0.4494 -0.0236,-0.17668 -0.0649,-0.38418 -0.0921,-0.46113 -0.0271,-0.0769 -0.0493,-0.27698 -0.0493,-0.44449 0,-0.29865 -0.002,-0.30414 -0.0807,-0.28198 -0.35335,0.099 -0.49541,0.0603 -0.55907,-0.15213 -0.052,-0.1735 -0.35912,-0.2453 -0.57396,-0.13419 -0.15143,0.0784 -0.36039,0.0752 -0.38912,-0.006 -0.0123,-0.0346 -0.0462,-0.0906 -0.0753,-0.12465 -0.0888,-0.10344 0.008,-0.29006 0.13966,-0.27067 0.0855,0.0126 0.10173,8.3e-4 0.11089,-0.0775 0.0177,-0.15216 0.15697,-0.14435 0.23202,0.013 0.0709,0.14863 0.13459,0.15879 0.44233,0.0705 0.10851,-0.0311 0.37207,-0.0699 0.58569,-0.086 0.44153,-0.0335 0.44972,-0.0371 0.36977,-0.15904 -0.0869,-0.13268 -0.0734,-0.36955 0.0314,-0.55308 0.11619,-0.20325 0.11607,-0.2034 -0.0696,-0.0946 -0.18609,0.10907 -0.22077,0.0967 -0.41492,-0.14754 -0.16803,-0.2114 -0.17981,-0.20133 -0.11981,0.10231 0.11431,0.57861 0.0667,0.86812 -0.0936,0.56869 -0.02,-0.0374 -0.14398,-0.11835 -0.27544,-0.17987 -0.41621,-0.19477 -0.93925,-0.6295 -1.16916,-0.97174 -0.059,-0.0879 -0.0603,-0.0842 -0.0621,0.18363 -0.003,0.50497 -0.14777,1.15068 -0.26206,1.17269 -0.0984,0.019 -0.11286,-0.0841 -0.0512,-0.36334 0.14302,-0.64714 0.11733,-0.78315 -0.0893,-0.47283 -0.31016,0.46571 -0.61008,0.53779 -0.83257,0.20006 -0.20836,-0.31628 -0.19384,-0.31083 -0.41018,-0.15394 -0.25069,0.18178 -0.12225,0.29289 0.16606,0.14366 0.15156,-0.0785 0.18258,0.0847 0.0546,0.2874 -0.0589,0.0931 -0.3319,0.0838 -0.44542,-0.0153 -0.0311,-0.0272 -0.083,-0.0494 -0.11533,-0.0494 -0.21133,0 -0.12589,-0.23493 0.17,-0.46747 0.22324,-0.17543 0.25192,-0.21974 0.23705,-0.36629 -0.009,-0.0899 0.0513,-0.16125 0.38271,-0.45211 0.16225,-0.14237 0.33667,-0.31352 0.38764,-0.38034 l 0.0927,-0.12149 -0.12452,-0.16312 c -1.07767,-1.41184 0.77246,-3.49995 2.41629,-2.72712 0.8743,0.41105 1.16348,2.0232 0.4679,2.60849 l -0.10501,0.0884 0.17886,0.29063 c 0.0984,0.15986 0.21446,0.30949 0.25797,0.3325 0.18984,0.10044 0.37657,0.28466 0.35852,0.3537 -0.0126,0.048 0.0382,0.13248 0.16513,0.27491 0.10076,0.11309 0.18323,0.23389 0.18323,0.26849 0,0.0345 0.0188,0.10394 0.0416,0.15412 0.0434,0.0951 -0.0333,0.235 -0.12879,0.235 -0.0235,0 -0.0402,0.0637 -0.04,0.15245 1.1e-4,0.0839 -0.008,0.1928 -0.017,0.24214 -0.0231,0.11976 0.0613,0.10905 0.58055,-0.0738 0.53114,-0.18706 0.60838,-0.23591 0.68015,-0.43021 0.0325,-0.0878 0.077,-0.158 0.099,-0.15603 0.0975,0.009 0.11179,0.0174 0.11179,0.0681 0,0.0769 0.0625,0.0665 0.10761,-0.018 0.0937,-0.17518 0.29076,0.0266 0.27209,0.2786 -0.0131,0.17797 -0.24339,0.32644 -0.42379,0.27336 -0.046,-0.0135 -0.38323,0.14104 -0.55682,0.2553 -0.005,0.003 0.0151,0.0853 0.0445,0.18226 0.10481,0.34548 0.0713,0.39898 -0.26576,0.42412 -0.28053,0.0209 -0.26208,-0.0203 -0.17477,0.39009 0.0666,0.31295 0.0686,0.35627 0.0203,0.41192 -0.0599,0.0687 -0.0585,0.0752 0.0831,0.39155 l 0.0993,0.22173 0.18585,-0.0594 0.18584,-0.0594 0.0719,0.0888 c 0.0616,0.076 0.0686,0.12095 0.049,0.31256 -0.0331,0.32389 -0.0436,0.34051 -0.20014,0.3224 -0.19104,-0.0221 -0.22351,-0.0512 -0.19619,-0.17564 l 0.0236,-0.10691 -0.26352,0.007 c -0.14493,0.003 -0.3467,-0.002 -0.44838,-0.0112 l -0.18485,-0.0175 -0.0236,0.15722 c -0.0129,0.0865 -0.0126,0.30753 8.3e-4,0.49121 0.0328,0.44638 -0.0527,0.52814 -0.43561,0.41694 z m 0.26226,-1.27351 0.15174,-0.0241 -0.009,-0.16592 c -0.0121,-0.24247 0.10882,-0.23954 0.18458,0.005 0.0626,0.20185 0.0572,0.20061 0.23083,0.0532 l 0.13669,-0.11604 -0.0728,-0.16397 -0.0727,-0.16396 -0.27792,0.0476 c -0.18596,0.0318 -0.33441,0.0374 -0.44864,0.0165 -0.19232,-0.0349 -0.21353,-0.026 -0.19173,0.0807 0.009,0.0416 0.0257,0.16963 0.0383,0.28479 0.0209,0.19218 0.0292,0.20781 0.10053,0.19004 0.0426,-0.0106 0.14602,-0.0302 0.22947,-0.0435 z m -0.0898,-0.75792 c 0.0553,-0.0499 0.0803,-0.0532 0.13686,-0.018 0.12307,0.0768 0.23861,0.0586 0.16231,-0.0258 -0.14913,-0.1648 -0.0191,-0.259 0.17527,-0.12704 0.23425,0.15896 0.25244,-0.002 0.0754,-0.66747 -0.0309,-0.11599 0.0513,-0.1936 0.17263,-0.16315 0.1914,0.048 0.31991,-0.0424 0.29367,-0.20671 -0.0338,-0.21117 -0.0312,-0.21089 -0.50418,-0.0519 -0.43177,0.14506 -0.77388,0.18507 -0.85852,0.10044 -0.0402,-0.0402 -0.1911,-0.0444 -0.42786,-0.0119 l -0.16643,0.0228 4.6e-4,0.14759 c 8.2e-4,0.25471 0.15924,0.28602 0.43941,0.0869 0.20673,-0.14694 0.31724,0.0977 0.1838,0.40691 -0.13039,0.30213 -0.10258,0.50163 0.0758,0.54339 0.1335,0.0311 0.17354,0.0252 0.24131,-0.036 z m -1.17719,-2.1105 c -0.0108,-0.0416 -0.10532,-0.11707 -0.22303,-0.17851 -0.25619,-0.13369 -0.84481,-0.69557 -0.82667,-0.78913 0.0246,-0.12771 0.10684,-0.0922 0.36475,0.15792 0.21176,0.20534 0.28138,0.25241 0.36713,0.2483 0.0582,-0.003 0.13406,0.008 0.16859,0.0227 0.0483,0.0213 0.0628,0.0109 0.0628,-0.0454 0,-0.15634 -0.0705,-0.24969 -0.27522,-0.36457 -0.31594,-0.17727 -0.59836,-0.42001 -0.82463,-0.70879 -0.468,-0.59727 -0.55774,-0.12585 -0.11583,0.60843 0.33929,0.56379 1.39834,1.41711 1.30213,1.0492 z m 1.51558,-0.0819 c -0.0327,-0.0362 -0.0596,-0.0978 -0.0596,-0.13699 0,-0.17661 -0.22598,-0.30006 -0.34485,-0.18839 -0.0957,0.0899 -0.0752,0.17554 0.042,0.17554 0.12358,0 0.25798,0.0707 0.32305,0.17005 0.0314,0.048 0.0666,0.0779 0.078,0.0665 0.0115,-0.0115 -0.006,-0.0504 -0.0387,-0.0867 z m -3.63653,-0.007 c 0.0504,-0.0397 0.18203,-0.24545 0.29257,-0.45738 0.11053,-0.21191 0.21967,-0.41187 0.24253,-0.44437 0.0332,-0.0472 0.0176,-0.11399 -0.0786,-0.33446 l -0.12006,-0.27536 -0.0884,0.11921 c -0.0486,0.0656 -0.24955,0.27517 -0.44647,0.46575 -0.19692,0.19059 -0.35217,0.36167 -0.34501,0.38019 0.0457,0.11799 0.3788,0.61848 0.41167,0.61848 0.022,0 0.0813,-0.0325 0.13169,-0.072 z m 2.94104,-0.44855 0.19628,-0.25158 -0.14208,-0.16095 c -0.0782,-0.0885 -0.215,-0.27395 -0.30413,-0.41205 -0.22242,-0.34465 -0.37152,-0.4907 -0.62417,-0.61146 l -0.21551,-0.103 -0.12187,0.13304 c -0.16849,0.18389 -0.53045,0.18517 -0.63848,0.003 -0.0361,-0.0613 -0.0969,-0.0633 -0.0969,-0.003 0,0.26078 0.92176,0.95613 1.03247,0.77886 0.0476,-0.0762 0.18717,-0.0445 0.18717,0.0425 0,0.15383 0.42689,0.87611 0.50137,0.84828 0.0163,-0.006 0.11789,-0.12424 0.22582,-0.26261 z m -2.58059,-1.38956 c 0.18414,-0.19982 0.29688,-0.43156 0.40052,-0.82338 0.0718,-0.27136 0.12776,-0.33626 0.4241,-0.49178 0.32662,-0.17141 0.60057,0.004 0.79499,0.50856 0.055,0.14275 0.13412,0.31583 0.17585,0.38461 0.0418,0.0687 0.0924,0.15755 0.1126,0.19729 0.35806,0.70435 0.90914,-0.58832 0.59378,-1.39289 -0.41108,-1.04876 -1.89197,-1.11348 -2.74911,-0.12011 -0.43996,0.50987 -0.46101,1.40058 -0.0437,1.84487 0.10002,0.10648 0.0909,0.10985 0.29089,-0.10717 z m 1.16467,-0.14169 c 0.0806,-0.0806 0.0478,-0.13632 -0.0804,-0.13632 -0.14011,0 -0.19011,0.0502 -0.12636,0.12712 0.0526,0.0634 0.1483,0.0677 0.20676,0.009 z m -0.24395,-0.35485 c 0.12048,-0.0548 0.20012,-0.0678 0.31389,-0.0508 0.29403,0.0437 0.20552,-0.20635 -0.13341,-0.37689 l -0.16031,-0.0806 -0.13629,0.15359 c -0.28563,0.32186 -0.22415,0.50967 0.11612,0.35478 z"
           id="path232" /><path
           style="fill:#000000;fill-opacity:1;stroke-width:1.29297"
           d="m 525.62685,145.77363 c 0.0352,-0.13502 0.0396,-0.29015 0.20338,-0.33916 0.11312,-0.11596 0.2261,-0.0217 0.33915,0.009 l 0.0339,0.20338 c 0.048,-0.21132 0.15579,-0.18495 0.24584,-0.22892 l 0.27981,0.0339 0.1273,0.2036 c -0.072,0.31495 -0.31917,0.42553 -0.51717,0.59349 -0.30621,-0.0943 -0.48952,-0.20253 -0.71218,-0.47479 z"
           id="path236" /><path
           style="fill:#ff0000;fill-opacity:1;stroke-width:0.951558"
           d="m 525.78917,145.78413 c 0.0259,-0.0994 0.0292,-0.21353 0.14967,-0.2496 0.0833,-0.0854 0.1664,-0.016 0.2496,0.006 l 0.025,0.14967 c 0.0354,-0.15551 0.11461,-0.13611 0.18094,-0.16847 l 0.20592,0.025 0.0937,0.14985 c -0.053,0.23178 -0.2349,0.31316 -0.38062,0.43677 -0.22535,-0.0694 -0.36025,-0.14905 -0.52412,-0.34942 z"
           id="path237" /><path
           id="path238"
           style="fill:#ffff00;stroke-width:4"
           d="m 528.44382,145.18581 a 0.10360674,0.10360674 0 0 1 -0.1036,0.10361 0.10360674,0.10360674 0 0 1 -0.10361,-0.10361 0.10360674,0.10360674 0 0 1 0.10361,-0.1036 0.10360674,0.10360674 0 0 1 0.1036,0.1036 z" /><path
           id="path239"
           style="fill:#ffff00;stroke-width:4"
           d="m 528.43735,145.43836 a 0.10360674,0.10360674 0 0 1 -0.1036,0.10361 0.10360674,0.10360674 0 0 1 -0.10361,-0.10361 0.10360674,0.10360674 0 0 1 0.10361,-0.1036 0.10360674,0.10360674 0 0 1 0.1036,0.1036 z" /><g
           id="g242"
           style="fill:#1a1a1a"
           transform="matrix(0.10028149,0,0,0.10028149,473.91681,128.00362)"><path
             style="color:#000000;fill:#1a1a1a;-inkscape-stroke:none"
             d="m 541.14062,158.13477 -1.48828,4.01367 -0.97265,-2.59961 -0.80469,0.30078 1.7832,4.75976 2.28711,-6.17578 z"
             id="path240" /><g
             id="g241"
             style="fill:#1a1a1a"><path
               style="color:#000000;fill:#1a1a1a;fill-rule:evenodd;-inkscape-stroke:none"
               d="m 541.55055,158.26402 c 0.0111,0.004 0.0168,0.0165 0.0127,0.0276 -0.004,0.0111 -0.0165,0.0168 -0.0276,0.0127 -0.0111,-0.004 -0.0167,-0.0167 -0.0127,-0.0276 0.004,-0.0111 0.0165,-0.0168 0.0276,-0.0127 z"
               id="path241" /></g></g><g
           id="g243"
           style="fill:#1a1a1a"
           transform="matrix(0.10028149,0,0,0.10028149,473.91681,128.00362)"><path
             style="color:#000000;fill:#1a1a1a;-inkscape-stroke:none"
             d="m 538.6517,159.50757 a 0.56777292,0.56777292 0 0 1 -0.56778,0.56777 0.56777292,0.56777292 0 0 1 -0.56777,-0.56777 0.56777292,0.56777292 0 0 1 0.56777,-0.56777 0.56777292,0.56777292 0 0 1 0.56778,0.56777 z"
             id="path242" /><path
             style="color:#000000;fill:#1a1a1a;-inkscape-stroke:none"
             d="m 538.08398,158.83984 c -0.36761,0 -0.66796,0.30036 -0.66796,0.66797 0,0.36762 0.30035,0.66797 0.66796,0.66797 0.36762,0 0.66797,-0.30035 0.66797,-0.66797 0,-0.36761 -0.30035,-0.66797 -0.66797,-0.66797 z m 0,0.19922 c 0.25953,0 0.4668,0.20922 0.4668,0.46875 0,0.25953 -0.20727,0.4668 -0.4668,0.4668 -0.25952,0 -0.46875,-0.20727 -0.46875,-0.4668 0,-0.25953 0.20923,-0.46875 0.46875,-0.46875 z"
             id="path243" /></g><g
           id="g245"
           style="fill:#1a1a1a"
           transform="matrix(0.10028149,0,0,0.10028149,473.91681,128.00362)"><path
             style="color:#000000;fill:#1a1a1a;-inkscape-stroke:none"
             d="m 542.02169,158.22549 a 0.56777292,0.56777292 0 0 1 -0.56777,0.56778 0.56777292,0.56777292 0 0 1 -0.56777,-0.56778 0.56777292,0.56777292 0 0 1 0.56777,-0.56777 0.56777292,0.56777292 0 0 1 0.56777,0.56777 z"
             id="path244" /><path
             style="color:#000000;fill:#1a1a1a;-inkscape-stroke:none"
             d="m 541.45312,157.55859 c -0.36761,0 -0.66601,0.2984 -0.66601,0.66602 0,0.36762 0.2984,0.66797 0.66601,0.66797 0.36762,0 0.66797,-0.30035 0.66797,-0.66797 0,-0.36762 -0.30035,-0.66602 -0.66797,-0.66602 z m 0,0.19922 c 0.25953,0 0.46875,0.20727 0.46875,0.4668 0,0.25953 -0.20922,0.46875 -0.46875,0.46875 -0.25952,0 -0.46679,-0.20922 -0.46679,-0.46875 0,-0.25953 0.20727,-0.4668 0.46679,-0.4668 z"
             id="path245" /></g><g
           id="g247"
           style="fill:#1a1a1a"
           transform="matrix(0.10028149,0,0,0.10028149,473.91681,128.00362)"><path
             style="color:#000000;fill:#1a1a1a;-inkscape-stroke:none"
             d="m 541.8385,163.18892 a 2.3809834,1.3919594 0 0 1 -2.38098,1.39196 2.3809834,1.3919594 0 0 1 -2.38098,-1.39196 2.3809834,1.3919594 0 0 1 2.38098,-1.39196 2.3809834,1.3919594 0 0 1 2.38098,1.39196 z"
             id="path246" /><path
             style="color:#000000;fill:#1a1a1a;-inkscape-stroke:none"
             d="m 539.45703,161.69727 c -0.67329,0 -1.28437,0.15879 -1.73437,0.42187 -0.45001,0.26308 -0.7461,0.63971 -0.7461,1.07031 0,0.4306 0.29609,0.80724 0.7461,1.07032 0.45,0.26308 1.06108,0.42187 1.73437,0.42187 0.67329,0 1.28437,-0.15879 1.73438,-0.42187 0.45,-0.26308 0.74804,-0.63972 0.74804,-1.07032 0,-0.4306 -0.29804,-0.80723 -0.74804,-1.07031 -0.45001,-0.26308 -1.06109,-0.42187 -1.73438,-0.42187 z m 0,0.19921 c 0.64169,0 1.22107,0.15383 1.63281,0.39454 0.41174,0.24071 0.64844,0.56028 0.64844,0.89843 0,0.33816 -0.2367,0.65578 -0.64844,0.89649 -0.41174,0.24071 -0.99112,0.39453 -1.63281,0.39453 -0.64169,0 -1.22107,-0.15382 -1.63281,-0.39453 -0.41174,-0.24071 -0.64844,-0.55833 -0.64844,-0.89649 0,-0.33815 0.2367,-0.65772 0.64844,-0.89843 0.41174,-0.24071 0.99112,-0.39454 1.63281,-0.39454 z"
             id="path247" /></g><path
           d="m 515.04242,144.65211 v 0.0526 l -0.14511,0.008 q -0.003,0.0436 -0.005,0.0865 -10e-4,0.0429 -10e-4,0.0857 0,0.0526 -0.003,0.10526 -0.002,0.0519 -0.006,0.10376 -0.0271,0.002 -0.0541,0.002 -0.0271,10e-4 -0.0541,10e-4 -0.01,0 -0.0195,-7.5e-4 -0.009,0 -0.018,0 0.002,-0.0459 0.002,-0.091 0.002,-0.0459 0.002,-0.091 0,-0.0451 -0.002,-0.0902 -0.002,-0.0459 -0.005,-0.0917 -0.0218,7.5e-4 -0.0444,0.001 -0.0218,7.6e-4 -0.0444,7.6e-4 -0.0128,0 -0.0256,0 -0.012,0 -0.0248,-7.6e-4 -0.002,-0.0556 -0.003,-0.11052 -7.5e-4,-0.0549 -0.002,-0.10977 0.11278,0.002 0.22406,0.007 0.11127,0.004 0.2233,0.007 0.003,0.0323 0.005,0.0632 10e-4,0.0301 10e-4,0.0616 z m 0.46556,0.43533 -0.14962,0.004 q -10e-4,-0.0489 -0.002,-0.097 -7.6e-4,-0.0481 -0.002,-0.097 l -0.14135,0.007 q -7.5e-4,0.008 -7.5e-4,0.015 0,0.007 0,0.0135 0,0.0421 0.003,0.0842 0.004,0.0413 0.008,0.0827 -0.015,7.5e-4 -0.0308,7.5e-4 -0.015,7.5e-4 -0.0301,7.5e-4 -0.0293,0 -0.0594,-0.001 -0.0293,-7.6e-4 -0.0587,-7.6e-4 0.002,-0.0699 0.004,-0.13834 0.002,-0.0684 0.004,-0.13834 0.002,-0.0684 0.002,-0.13533 7.5e-4,-0.0669 10e-4,-0.13459 h 0.12556 q 0.006,0.0564 0.008,0.11278 0.002,0.0556 0.007,0.11203 0.0361,-7.5e-4 0.0714,-7.5e-4 0.0353,0 0.0722,-7.5e-4 l 0.008,-0.24361 q 0.0105,-7.5e-4 0.0203,-7.5e-4 0.0105,0 0.0211,0 0.0301,0 0.0586,0.002 0.0293,0.002 0.0586,0.007 0.004,0.13759 0.003,0.27443 -7.5e-4,0.13609 7.5e-4,0.27368 z m 0.46706,-0.45563 q -0.0737,0.004 -0.14661,0.008 -0.0722,0.004 -0.14586,0.01 l -0.002,0.0594 0.19398,-0.0113 q 0.004,0.0256 0.005,0.0504 0.002,0.0248 0.002,0.0504 0,0.0105 -7.6e-4,0.0218 0,0.0113 0,0.0218 l -0.18044,0.0323 0.0113,0.0932 q 0.0571,-0.004 0.11353,-0.0105 0.0571,-0.008 0.11503,-0.0128 0.005,0.0376 0.0105,0.0759 0.005,0.0376 0.015,0.0737 -0.10676,-7.5e-4 -0.21202,0 -0.10526,0.002 -0.21202,0.002 0.002,-0.088 0.005,-0.17519 0.003,-0.0872 0.003,-0.17593 v -0.0143 q 0,-0.0511 -0.002,-0.1015 -0.001,-0.0511 -0.003,-0.103 0.0594,7.5e-4 0.11804,7.5e-4 0.0594,-7.5e-4 0.11954,-7.5e-4 0.0459,0 0.091,0.002 0.0459,0.001 0.0917,0.004 z"
           id="text249"
           style="font-size:0.7699px;font-family:Slackey;-inkscape-font-specification:Slackey;letter-spacing:-0.0727694px;fill:#666666;stroke-width:0.218239"
           aria-label="THE" /></g><g
         id="g251"><path
           id="path251"
           style="fill:#cccccc;stroke-width:0.232743"
           d="m 526.08214,139.66594 a 0.76762956,0.76762956 0 0 1 -0.76763,0.76763 0.76762956,0.76762956 0 0 1 -0.76763,-0.76763 0.76762956,0.76762956 0 0 1 0.76763,-0.76763 0.76762956,0.76762956 0 0 1 0.76763,0.76763 z" /><path
           style="color:#000000;-inkscape-font-specification:'Exo 2 Heavy';opacity:0.99;fill:#000000;fill-opacity:1;stroke-width:0.995307;stroke-linecap:round;stroke-linejoin:round;-inkscape-stroke:none;paint-order:stroke fill markers"
           d="m 525.45547,138.76353 q 0.24566,0 0.44379,0.11149 0.19812,0.11151 0.317,0.29734 0.11886,0.18584 0.11886,0.41629 0,0.23042 -0.11886,0.41999 -0.11888,0.18583 -0.317,0.29732 -0.19813,0.1115 -0.44379,0.1115 -0.24567,0 -0.44776,-0.1115 -0.19812,-0.11149 -0.31699,-0.29732 -0.11887,-0.18957 -0.11887,-0.41999 0,-0.23045 0.11887,-0.41629 0.11887,-0.18583 0.31699,-0.29734 0.20209,-0.11149 0.44776,-0.11149 z m -0.0554,0.41998 v 0.77309 h -0.33681 v -0.77309 z m 0.0554,-0.20813 q -0.1783,0 -0.32889,0.0854 -0.1466,0.0817 -0.23773,0.21927 -0.0872,0.13753 -0.0872,0.3085 0,0.17096 0.0872,0.3122 0.0911,0.13752 0.23773,0.223 0.15059,0.0818 0.32889,0.0818 0.17831,0 0.32491,-0.0818 0.14662,-0.0854 0.2338,-0.223 0.0911,-0.14124 0.0911,-0.3122 0,-0.17097 -0.0911,-0.3085 -0.0872,-0.1375 -0.2338,-0.21927 -0.1466,-0.0854 -0.32491,-0.0854 z m 0.0159,0.19698 q 0.21398,0 0.31304,0.0521 0.0991,0.0483 0.0991,0.18584 0,0.0595 -0.0397,0.11521 -0.0396,0.0521 -0.15453,0.0631 v 0.008 q 0.0436,0.004 0.0911,0.0223 0.0516,0.0186 0.0713,0.10411 l 0.0674,0.23416 h -0.35662 l -0.0436,-0.223 q -0.0119,-0.0297 -0.0278,-0.0334 -0.0119,-0.008 -0.0436,-0.008 -0.1585,0 -0.22586,0 -0.0674,0 -0.13869,-0.004 v -0.18584 h 0.37643 q 0.0554,0 0.0674,-0.0112 0.0159,-0.0149 0.0159,-0.0483 0,-0.0334 -0.0159,-0.0409 -0.0119,-0.0112 -0.0674,-0.0112 -0.13868,0 -0.23774,0 -0.0991,0 -0.13472,0.008 l -0.0237,-0.21557 q 0.0951,-0.008 0.1783,-0.008 0.0832,-0.004 0.22982,-0.004 z"
           id="path250" /></g></g></g><metadata
     id="metadata4"><rdf:RDF><cc:Work
         rdf:about=""><dc:title>{Making Scholars } Ready-for-Global-Development</dc:title></cc:Work></rdf:RDF></metadata></svg>
